<svg preserveAspectRatio="none" width="100%" height="100%" overflow="visible" style="display: block;" viewBox="0 0 61.7 111.644" fill="none" xmlns="http://www.w3.org/2000/svg">
<g id="R_Letter">
<path id="R_Letter_Outline" d="M46 67.1441L24.4 79.6441V99.6441L15.7 104.644M46 67.1441V87.1441M46 67.1441L37.3 62.1441V82.1441L46 87.1441M15.7 104.644V30.6441M15.7 104.644L7 99.6441V25.6441M15.7 30.6441L46 13.1441M15.7 30.6441L7 25.6441M46 13.1441C48.2667 11.8107 50.2667 11.6441 52 12.6441C53.8 13.6441 54.7 15.4774 54.7 18.1441V42.1441C54.7 43.8774 54.2667 45.7441 53.4 47.7441C52.6 49.7441 51.5333 51.6108 50.2 53.3441C48.9333 55.0108 47.5333 56.2774 46 57.1441M46 13.1441C48.2667 11.8107 50.3 11.6441 52.1 12.6441L43.4 7.64408C41.6667 6.64408 39.6333 6.81075 37.3 8.14408L7 25.6441M46 57.1441C48.2667 55.8108 50.2667 55.6441 52 56.6441C53.8 57.6441 54.7 59.4774 54.7 62.1441V82.1441L46 87.1441M46 57.1441V23.1441M46 57.1441L24.4 69.6441M46 57.1441C48.2667 55.8108 50.3 55.6441 52.1 56.6441L43.4 51.6441C41.6667 50.6441 39.6333 50.8108 37.3 52.1441M46 57.1441L37.3 52.1441M46 23.1441L24.4 35.6441V69.6441M46 23.1441L37.3 18.1441V52.1441M24.4 69.6441L15.7 64.6441L37.3 52.1441" stroke="var(--stroke-0, #29B8FF)" stroke-linejoin="round"/>
<g id="R_Letter_Blur" filter="url(#filter0_f_282_33)">
<path d="M46 67.1441L24.4 79.6441V99.6441L15.7 104.644M46 67.1441V87.1441M46 67.1441L37.3 62.1441V82.1441L46 87.1441M15.7 104.644V30.6441M15.7 104.644L7 99.6441V25.6441M15.7 30.6441L46 13.1441M15.7 30.6441L7 25.6441M46 13.1441C48.2667 11.8107 50.2667 11.6441 52 12.6441C53.8 13.6441 54.7 15.4774 54.7 18.1441V42.1441C54.7 43.8774 54.2667 45.7441 53.4 47.7441C52.6 49.7441 51.5333 51.6108 50.2 53.3441C48.9333 55.0108 47.5333 56.2774 46 57.1441M46 13.1441C48.2667 11.8107 50.3 11.6441 52.1 12.6441L43.4 7.64408C41.6667 6.64408 39.6333 6.81075 37.3 8.14408L7 25.6441M46 57.1441C48.2667 55.8108 50.2667 55.6441 52 56.6441C53.8 57.6441 54.7 59.4774 54.7 62.1441V82.1441L46 87.1441M46 57.1441V23.1441M46 57.1441L24.4 69.6441M46 57.1441C48.2667 55.8108 50.3 55.6441 52.1 56.6441L43.4 51.6441C41.6667 50.6441 39.6333 50.8108 37.3 52.1441M46 57.1441L37.3 52.1441M46 23.1441L24.4 35.6441V69.6441M46 23.1441L37.3 18.1441V52.1441M24.4 69.6441L15.7 64.6441L37.3 52.1441" stroke="var(--stroke-0, #29B8FF)" stroke-width="2" stroke-linejoin="round"/>
</g>
<g id="R_Letter_Texture" filter="url(#filter1_g_282_33)">
<path d="M36.8037 7.27564C39.3251 5.83486 41.7532 5.54148 43.8975 6.77759L52.5986 11.7766C52.7004 11.8351 52.7871 11.9099 52.8594 11.9944C54.8116 13.2618 55.7001 15.4072 55.7002 18.1438V42.1438C55.7002 44.0443 55.2249 46.0476 54.3174 48.1419C53.4846 50.2167 52.3761 52.1524 50.9951 53.9485L50.9961 53.9495C50.834 54.1627 50.6689 54.3698 50.502 54.5715L52.5986 55.7766C52.7004 55.8351 52.7871 55.9099 52.8594 55.9944C54.8116 57.2618 55.7001 59.4072 55.7002 62.1438V82.1438C55.7002 82.5018 55.5086 82.8326 55.1982 83.011L46.498 88.011C46.1896 88.1882 45.8104 88.1882 45.502 88.011L36.8018 83.011C36.4914 82.8326 36.2998 82.5018 36.2998 82.1438V73.9124L25.4004 80.22V99.6438C25.4004 100.002 25.2087 100.333 24.8984 100.511L16.1982 105.511C15.8898 105.688 15.5106 105.688 15.2021 105.511L6.50195 100.511C6.19159 100.333 6 100.002 6 99.6438V25.6438C6.0001 25.2867 6.19081 24.9572 6.5 24.7786L36.7998 7.27857L36.8037 7.27564ZM25.4004 36.22V57.8743L36.2998 51.5667V29.9124L25.4004 36.22Z" stroke="var(--stroke-0, #29B8FF)" stroke-width="2" stroke-linejoin="round"/>
</g>
</g>
<defs>
<filter id="filter0_f_282_33" x="2" y="2.00062" width="57.7" height="107.643" filterUnits="userSpaceOnUse" color-interpolation-filters="sRGB">
<feFlood flood-opacity="0" result="BackgroundImageFix"/>
<feBlend mode="normal" in="SourceGraphic" in2="BackgroundImageFix" result="shape"/>
<feGaussianBlur stdDeviation="2" result="effect1_foregroundBlur_282_33"/>
</filter>
<filter id="filter1_g_282_33" x="0" y="-2.38419e-07" width="61.7" height="111.644" filterUnits="userSpaceOnUse" color-interpolation-filters="sRGB">
<feFlood flood-opacity="0" result="BackgroundImageFix"/>
<feBlend mode="normal" in="SourceGraphic" in2="BackgroundImageFix" result="shape"/>
<feTurbulence type="fractalNoise" baseFrequency="10 10" numOctaves="3" seed="3429" />
<feDisplacementMap in="shape" scale="10" xChannelSelector="R" yChannelSelector="G" result="displacedImage" width="100%" height="100%" />
<feMerge result="effect1_texture_282_33">
<feMergeNode in="displacedImage"/>
</feMerge>
</filter>
</defs>
</svg>
