<svg preserveAspectRatio="none" width="100%" height="100%" overflow="visible" style="display: block;" viewBox="0 0 62.5 112.144" fill="none" xmlns="http://www.w3.org/2000/svg">
<g id="D_Letter">
<path id="D_Letter_Outline" d="M52.9 12.6439C51.1667 11.6439 49.1667 11.8106 46.9 13.1439L15.7 31.1439M52.9 12.6439C54.6333 13.6439 55.5 15.4772 55.5 18.1439V72.1439C55.5 73.9439 55.1 75.8439 54.3 77.8439C53.5 79.7772 52.4333 81.6106 51.1 83.3439C49.8333 85.0106 48.4333 86.2772 46.9 87.1439L33 95.1439C30.7333 96.4772 28.7333 96.6439 27 95.6439M52.9 12.6439L44.3 7.64389C42.5 6.64389 40.4667 6.81056 38.2 8.1439L7 26.1439M27 95.6439C25.2667 94.6439 24.4 92.8106 24.4 90.1439M27 95.6439L18.3 90.6439C16.5667 89.6439 15.7 87.8106 15.7 85.1439M24.4 90.1439L46.9 77.1439M24.4 90.1439L15.7 85.1439M46.9 77.1439V23.1439M46.9 77.1439L38.2 72.1439M46.9 23.1439L24.4 36.1439V100.144L15.7 105.144M46.9 23.1439L38.2 18.1439V72.1439M15.7 105.144V31.1439M15.7 105.144L7 100.144V26.1439M15.7 31.1439L7 26.1439M38.2 72.1439L15.7 85.1439" stroke="var(--stroke-0, #29B8FF)" stroke-linejoin="round"/>
<g id="D_Letter_Blur" filter="url(#filter0_f_282_28)">
<path d="M52.9 12.6439C51.1667 11.6439 49.1667 11.8106 46.9 13.1439L15.7 31.1439M52.9 12.6439C54.6333 13.6439 55.5 15.4772 55.5 18.1439V72.1439C55.5 73.9439 55.1 75.8439 54.3 77.8439C53.5 79.7772 52.4333 81.6106 51.1 83.3439C49.8333 85.0106 48.4333 86.2772 46.9 87.1439L33 95.1439C30.7333 96.4772 28.7333 96.6439 27 95.6439M52.9 12.6439L44.3 7.64389C42.5 6.64389 40.4667 6.81056 38.2 8.1439L7 26.1439M27 95.6439C25.2667 94.6439 24.4 92.8106 24.4 90.1439M27 95.6439L18.3 90.6439C16.5667 89.6439 15.7 87.8106 15.7 85.1439M24.4 90.1439L46.9 77.1439M24.4 90.1439L15.7 85.1439M46.9 77.1439V23.1439M46.9 77.1439L38.2 72.1439M46.9 23.1439L24.4 36.1439V100.144L15.7 105.144M46.9 23.1439L38.2 18.1439V72.1439M15.7 105.144V31.1439M15.7 105.144L7 100.144V26.1439M15.7 31.1439L7 26.1439M38.2 72.1439L15.7 85.1439" stroke="var(--stroke-0, #29B8FF)" stroke-width="2" stroke-linejoin="round"/>
</g>
<g id="D_Letter_Texture" filter="url(#filter1_g_282_28)">
<path d="M37.7002 7.2774C40.0948 5.87099 42.4394 5.56827 44.5791 6.65924L44.7852 6.76959L44.8027 6.77936L53.3994 11.7774C55.5439 13.0146 56.4999 15.2551 56.5 18.1436V72.1436C56.5 74.0931 56.0666 76.1196 55.2285 78.2149L55.2236 78.2266C54.3893 80.2428 53.2782 82.15 51.8955 83.9483C50.5634 85.701 49.0668 87.065 47.3975 88.0098L47.3984 88.0108L33.499 96.0108L33.498 96.0098C31.036 97.4556 28.641 97.745 26.5 96.5098C26.498 96.5087 26.4962 96.5071 26.4941 96.5059L25.4004 95.877V100.144C25.4004 100.502 25.2087 100.832 24.8984 101.011L16.1982 106.011C15.8898 106.188 15.5106 106.188 15.2021 106.011L6.50195 101.011C6.19159 100.832 6 100.502 6 100.144V26.1436C6.0001 25.7864 6.19057 25.456 6.5 25.2774L37.7002 7.2774ZM25.4004 36.7208V78.3848L37.2002 71.5665V29.9024L25.4004 36.7208Z" stroke="var(--stroke-0, #29B8FF)" stroke-width="2" stroke-linejoin="round"/>
</g>
</g>
<defs>
<filter id="filter0_f_282_28" x="2" y="2.00053" width="58.5" height="108.143" filterUnits="userSpaceOnUse" color-interpolation-filters="sRGB">
<feFlood flood-opacity="0" result="BackgroundImageFix"/>
<feBlend mode="normal" in="SourceGraphic" in2="BackgroundImageFix" result="shape"/>
<feGaussianBlur stdDeviation="2" result="effect1_foregroundBlur_282_28"/>
</filter>
<filter id="filter1_g_282_28" x="0" y="0" width="62.5" height="112.144" filterUnits="userSpaceOnUse" color-interpolation-filters="sRGB">
<feFlood flood-opacity="0" result="BackgroundImageFix"/>
<feBlend mode="normal" in="SourceGraphic" in2="BackgroundImageFix" result="shape"/>
<feTurbulence type="fractalNoise" baseFrequency="10 10" numOctaves="3" seed="3429" />
<feDisplacementMap in="shape" scale="10" xChannelSelector="R" yChannelSelector="G" result="displacedImage" width="100%" height="100%" />
<feMerge result="effect1_texture_282_28">
<feMergeNode in="displacedImage"/>
</feMerge>
</filter>
</defs>
</svg>
