<svg preserveAspectRatio="none" width="100%" height="100%" overflow="visible" style="display: block;" viewBox="0 0 61.7 111.788" fill="none" xmlns="http://www.w3.org/2000/svg">
<g id="O_Letter">
<path id="O_Letter_Outline" d="M46 13.1441L24.4 25.6441C22.8667 26.5107 21.4333 27.8107 20.1 29.5441C18.7667 31.2107 17.7 33.0441 16.9 35.0441C16.1 36.9774 15.7 38.8441 15.7 40.6441V98.6441C15.7 101.311 16.5667 103.144 18.3 104.144M46 13.1441C48.2667 11.8107 50.2667 11.6441 52 12.6441C53.8 13.6441 54.7 15.4774 54.7 18.1441V76.1441C54.7 77.8774 54.2667 79.7441 53.4 81.7441C52.6 83.7441 51.5333 85.6108 50.2 87.3441C48.9333 89.0108 47.5333 90.2774 46 91.1441L24.4 103.644C22.0667 104.977 20.0333 105.144 18.3 104.144M46 13.1441C48.2667 11.8107 50.3 11.6441 52.1 12.6441L43.4 7.64408C41.6667 6.64408 39.6333 6.81075 37.3 8.14408L15.7 20.6441C14.1667 21.5108 12.7333 22.8108 11.4 24.5441C10.0667 26.2108 9.00001 28.0441 8.20001 30.0441C7.40001 31.9774 7 33.8441 7 35.6441V93.6441C7 96.3108 7.86667 98.1441 9.60001 99.1441L18.3 104.144M24.4 93.6441L46 81.1441M24.4 93.6441V35.6441L46 23.1441M24.4 93.6441L15.7 88.6441L37.3 76.1441M46 81.1441V23.1441M46 81.1441L37.3 76.1441M46 23.1441L37.3 18.1441V76.1441" stroke="var(--stroke-0, #29B8FF)" stroke-linejoin="round"/>
<g id="O_Letter_Blur" filter="url(#filter0_f_282_43)">
<path d="M46 13.1441L24.4 25.6441C22.8667 26.5107 21.4333 27.8107 20.1 29.5441C18.7667 31.2107 17.7 33.0441 16.9 35.0441C16.1 36.9774 15.7 38.8441 15.7 40.6441V98.6441C15.7 101.311 16.5667 103.144 18.3 104.144M46 13.1441C48.2667 11.8107 50.2667 11.6441 52 12.6441C53.8 13.6441 54.7 15.4774 54.7 18.1441V76.1441C54.7 77.8774 54.2667 79.7441 53.4 81.7441C52.6 83.7441 51.5333 85.6108 50.2 87.3441C48.9333 89.0108 47.5333 90.2774 46 91.1441L24.4 103.644C22.0667 104.977 20.0333 105.144 18.3 104.144M46 13.1441C48.2667 11.8107 50.3 11.6441 52.1 12.6441L43.4 7.64408C41.6667 6.64408 39.6333 6.81075 37.3 8.14408L15.7 20.6441C14.1667 21.5108 12.7333 22.8108 11.4 24.5441C10.0667 26.2108 9.00001 28.0441 8.20001 30.0441C7.40001 31.9774 7 33.8441 7 35.6441V93.6441C7 96.3108 7.86667 98.1441 9.60001 99.1441L18.3 104.144M24.4 93.6441L46 81.1441M24.4 93.6441V35.6441L46 23.1441M24.4 93.6441L15.7 88.6441L37.3 76.1441M46 81.1441V23.1441M46 81.1441L37.3 76.1441M46 23.1441L37.3 18.1441V76.1441" stroke="var(--stroke-0, #29B8FF)" stroke-width="2" stroke-linejoin="round"/>
</g>
<g id="O_Letter_Texture" filter="url(#filter1_g_282_43)">
<path d="M36.8037 7.27564C39.3251 5.83486 41.7532 5.54148 43.8975 6.77759L52.5986 11.7766C52.7004 11.8351 52.7871 11.9099 52.8594 11.9944C54.8116 13.2618 55.7001 15.4072 55.7002 18.1438V76.1438C55.7002 78.0443 55.2249 80.0476 54.3174 82.1419C53.4846 84.2167 52.3761 86.1524 50.9951 87.9485L50.9961 87.9495C49.6647 89.7013 48.1684 91.0643 46.5 92.009L24.9004 104.51L24.8965 104.512C22.3744 105.953 19.9445 106.247 17.7998 105.01C17.7978 105.009 17.796 105.007 17.7939 105.006L9.10156 100.011L9.10059 100.01C6.95602 98.7728 6 96.5325 6 93.6438V35.6438C6.00004 33.6932 6.43429 31.6964 7.27637 29.6614C8.05967 27.7061 9.0875 25.9006 10.3604 24.2483L10.6191 23.9192C12.0119 22.1119 13.5382 20.7175 15.208 19.7737L36.7988 7.27857L36.8037 7.27564ZM25.4004 36.22V81.8743L36.2998 75.5667V29.9124L25.4004 36.22Z" stroke="var(--stroke-0, #29B8FF)" stroke-width="2" stroke-linejoin="round"/>
</g>
</g>
<defs>
<filter id="filter0_f_282_43" x="2" y="2.00062" width="57.7" height="107.787" filterUnits="userSpaceOnUse" color-interpolation-filters="sRGB">
<feFlood flood-opacity="0" result="BackgroundImageFix"/>
<feBlend mode="normal" in="SourceGraphic" in2="BackgroundImageFix" result="shape"/>
<feGaussianBlur stdDeviation="2" result="effect1_foregroundBlur_282_43"/>
</filter>
<filter id="filter1_g_282_43" x="0" y="-2.38419e-07" width="61.7" height="111.788" filterUnits="userSpaceOnUse" color-interpolation-filters="sRGB">
<feFlood flood-opacity="0" result="BackgroundImageFix"/>
<feBlend mode="normal" in="SourceGraphic" in2="BackgroundImageFix" result="shape"/>
<feTurbulence type="fractalNoise" baseFrequency="10 10" numOctaves="3" seed="3429" />
<feDisplacementMap in="shape" scale="10" xChannelSelector="R" yChannelSelector="G" result="displacedImage" width="100%" height="100%" />
<feMerge result="effect1_texture_282_43">
<feMergeNode in="displacedImage"/>
</feMerge>
</filter>
</defs>
</svg>
