<svg preserveAspectRatio="none" width="100%" height="100%" overflow="visible" style="display: block;" viewBox="0 0 61.7 111.788" fill="none" xmlns="http://www.w3.org/2000/svg">
<g id="S_Letter">
<path id="S_Letter_Outline" d="M18.3 70.1441C20.0333 71.1441 22.0667 70.9774 24.4 69.6441L46 57.1441M18.3 70.1441C16.5667 69.1441 15.7 67.3108 15.7 64.6441V40.6441C15.7 38.8441 16.1 36.9774 16.9 35.0441C17.7 33.0441 18.7667 31.2107 20.1 29.5441C21.4333 27.8107 22.8667 26.5107 24.4 25.6441L46 13.1441M18.3 70.1441L9.6 65.1441C7.86666 64.1441 7 62.3108 7 59.6441V35.6441C7 33.8441 7.4 31.9774 8.2 30.0441C9 28.0441 10.0667 26.2108 11.4 24.5441C12.7333 22.8108 14.1667 21.5108 15.7 20.6441L37.3 8.14408C39.6333 6.81075 41.6667 6.64408 43.4 7.64408L52.1 12.6441C50.3 11.6441 48.2667 11.8107 46 13.1441M46 13.1441C48.2667 11.8107 50.2667 11.6441 52 12.6441C53.8 13.6441 54.7 15.4774 54.7 18.1441V32.1441L46 37.1441M46 37.1441V23.1441M46 37.1441L37.3 32.1441V18.1441L46 23.1441M46 23.1441L24.4 35.6441V59.6441M24.4 59.6441L46 47.1441M24.4 59.6441L15.7 54.6441L37.3 42.1441C39.6333 40.8108 41.6667 40.6441 43.4 41.6441L52.1 46.6441C50.3 45.6441 48.2667 45.8108 46 47.1441M46 47.1441C48.2667 45.8108 50.2667 45.6441 52 46.6441C53.8 47.6441 54.7 49.4774 54.7 52.1441V76.1441C54.7 77.8774 54.2667 79.7441 53.4 81.7441C52.6 83.7441 51.5333 85.6108 50.2 87.3441C48.9333 89.0108 47.5333 90.2774 46 91.1441L24.4 103.644C22.0667 104.977 20.0333 105.144 18.3 104.144M18.3 104.144C16.5667 103.144 15.7 101.311 15.7 98.6441V88.6441M18.3 104.144L9.6 99.1441C7.86666 98.1441 7 96.3108 7 93.6441V83.6441M15.7 88.6441L24.4 83.6441M15.7 88.6441L24.4 93.6441M15.7 88.6441L37.3 76.1441M15.7 88.6441L7 83.6441M24.4 83.6441V93.6441M24.4 83.6441L15.7 78.6441L7 83.6441M24.4 93.6441L46 81.1441M46 81.1441V57.1441M46 81.1441L37.3 76.1441M46 57.1441L37.3 52.1441V76.1441" stroke="var(--stroke-0, #29B8FF)" stroke-linejoin="round"/>
<g id="S_Letter_Blur" filter="url(#filter0_f_282_13)">
<path d="M18.3 70.1441C20.0333 71.1441 22.0667 70.9774 24.4 69.6441L46 57.1441M18.3 70.1441C16.5667 69.1441 15.7 67.3108 15.7 64.6441V40.6441C15.7 38.8441 16.1 36.9774 16.9 35.0441C17.7 33.0441 18.7667 31.2107 20.1 29.5441C21.4333 27.8107 22.8667 26.5107 24.4 25.6441L46 13.1441M18.3 70.1441L9.6 65.1441C7.86666 64.1441 7 62.3108 7 59.6441V35.6441C7 33.8441 7.4 31.9774 8.2 30.0441C9 28.0441 10.0667 26.2108 11.4 24.5441C12.7333 22.8108 14.1667 21.5108 15.7 20.6441L37.3 8.14408C39.6333 6.81075 41.6667 6.64408 43.4 7.64408L52.1 12.6441C50.3 11.6441 48.2667 11.8107 46 13.1441M46 13.1441C48.2667 11.8107 50.2667 11.6441 52 12.6441C53.8 13.6441 54.7 15.4774 54.7 18.1441V32.1441L46 37.1441M46 37.1441V23.1441M46 37.1441L37.3 32.1441V18.1441L46 23.1441M46 23.1441L24.4 35.6441V59.6441M24.4 59.6441L46 47.1441M24.4 59.6441L15.7 54.6441L37.3 42.1441C39.6333 40.8108 41.6667 40.6441 43.4 41.6441L52.1 46.6441C50.3 45.6441 48.2667 45.8108 46 47.1441M46 47.1441C48.2667 45.8108 50.2667 45.6441 52 46.6441C53.8 47.6441 54.7 49.4774 54.7 52.1441V76.1441C54.7 77.8774 54.2667 79.7441 53.4 81.7441C52.6 83.7441 51.5333 85.6108 50.2 87.3441C48.9333 89.0108 47.5333 90.2774 46 91.1441L24.4 103.644C22.0667 104.977 20.0333 105.144 18.3 104.144M18.3 104.144C16.5667 103.144 15.7 101.311 15.7 98.6441V88.6441M18.3 104.144L9.6 99.1441C7.86666 98.1441 7 96.3108 7 93.6441V83.6441M15.7 88.6441L24.4 83.6441M15.7 88.6441L24.4 93.6441M15.7 88.6441L37.3 76.1441M15.7 88.6441L7 83.6441M24.4 83.6441V93.6441M24.4 83.6441L15.7 78.6441L7 83.6441M24.4 93.6441L46 81.1441M46 81.1441V57.1441M46 81.1441L37.3 76.1441M46 57.1441L37.3 52.1441V76.1441" stroke="var(--stroke-0, #29B8FF)" stroke-width="2" stroke-linejoin="round"/>
</g>
<g id="S_Letter_Texture" filter="url(#filter1_g_282_13)">
<path d="M36.8037 7.27564C39.3251 5.83486 41.7532 5.54148 43.8975 6.77759L52.5986 11.7766C52.7004 11.8351 52.7871 11.9099 52.8594 11.9944C54.8116 13.2618 55.7001 15.4072 55.7002 18.1438V32.1438C55.7002 32.5018 55.5086 32.8326 55.1982 33.011L46.498 38.011C46.1896 38.1882 45.8104 38.1882 45.502 38.011L36.8018 33.011C36.4914 32.8326 36.2998 32.5018 36.2998 32.1438V29.9124L25.4004 36.22V47.8743L36.7988 41.2786L36.8037 41.2756C39.3249 39.835 41.7533 39.5408 43.8975 40.7766L52.5986 45.7766C52.7004 45.8351 52.7871 45.9099 52.8594 45.9944C54.8116 47.2618 55.7001 49.4072 55.7002 52.1438V76.1438C55.7002 78.0443 55.2249 80.0476 54.3174 82.1419C53.4846 84.2167 52.3761 86.1524 50.9951 87.9485L50.9961 87.9495C49.6647 89.7013 48.1684 91.0643 46.5 92.009L24.9004 104.51L24.8965 104.512C22.3744 105.953 19.9445 106.247 17.7998 105.01C17.7978 105.009 17.796 105.007 17.7939 105.006L9.10156 100.011L9.10059 100.01C6.95602 98.7728 6 96.5325 6 93.6438V83.6438C6.0001 83.2859 6.19167 82.9549 6.50195 82.7766L15.2021 77.7766L15.3203 77.719C15.6038 77.6026 15.9283 77.6216 16.1982 77.7766L24.3682 82.4719L36.2998 75.5667V63.9124L24.9004 70.51L24.8965 70.512C22.3744 71.9532 19.9445 72.2473 17.7998 71.01C17.7978 71.0088 17.796 71.0073 17.7939 71.0061L9.10156 66.011L9.10059 66.01C6.95602 64.7728 6 62.5325 6 59.6438V35.6438C6.00004 33.6932 6.43429 31.6964 7.27637 29.6614C8.05967 27.7061 9.0875 25.9006 10.3604 24.2483L10.6191 23.9192C12.0119 22.1119 13.5382 20.7175 15.208 19.7737L36.7988 7.27857L36.8037 7.27564Z" stroke="var(--stroke-0, #29B8FF)" stroke-width="2" stroke-linejoin="round"/>
</g>
</g>
<defs>
<filter id="filter0_f_282_13" x="2" y="2.00062" width="57.7" height="107.787" filterUnits="userSpaceOnUse" color-interpolation-filters="sRGB">
<feFlood flood-opacity="0" result="BackgroundImageFix"/>
<feBlend mode="normal" in="SourceGraphic" in2="BackgroundImageFix" result="shape"/>
<feGaussianBlur stdDeviation="2" result="effect1_foregroundBlur_282_13"/>
</filter>
<filter id="filter1_g_282_13" x="0" y="-2.38419e-07" width="61.7" height="111.788" filterUnits="userSpaceOnUse" color-interpolation-filters="sRGB">
<feFlood flood-opacity="0" result="BackgroundImageFix"/>
<feBlend mode="normal" in="SourceGraphic" in2="BackgroundImageFix" result="shape"/>
<feTurbulence type="fractalNoise" baseFrequency="10 10" numOctaves="3" seed="3429" />
<feDisplacementMap in="shape" scale="10" xChannelSelector="R" yChannelSelector="G" result="displacedImage" width="100%" height="100%" />
<feMerge result="effect1_texture_282_13">
<feMergeNode in="displacedImage"/>
</feMerge>
</filter>
</defs>
</svg>
