<svg preserveAspectRatio="xMidYMid meet" width="100%" height="100%" overflow="visible" style="display: block;" viewBox="0 0 68 68" fill="none" xmlns="http://www.w3.org/2000/svg">
<g id="DataFragment">
<g id="Star 3" filter="url(#filter0_g_2009_168)">
<path d="M34 8.94729L34.5978 19.6694C34.7614 22.6028 38.6224 23.5544 40.1304 21.033L45.6426 11.8169L41.1891 21.5887C39.9707 24.2621 42.9472 26.899 45.4543 25.3673L54.618 19.7684L46.1335 26.3513C43.8122 28.1522 45.2223 31.8704 48.1541 31.6792L58.87 30.9802L48.2982 32.8661C45.4059 33.382 44.9266 37.3296 47.6114 38.5227L57.4247 42.8838L47.1874 39.6407C44.3866 38.7534 42.1276 42.026 43.9504 44.3302L50.613 52.7522L43.0555 45.1231C40.9878 43.0358 37.4668 44.8838 38.01 47.7711L39.9955 58.3247L36.8491 48.0573C35.9883 45.2482 32.0117 45.2482 31.1509 48.0573L28.0045 58.3247L29.99 47.7711C30.5332 44.8838 27.0121 43.0358 24.9445 45.1231L17.387 52.7522L24.0496 44.3302C25.8724 42.026 23.6134 38.7534 20.8126 39.6407L10.5753 42.8838L20.3886 38.5227C23.0734 37.3296 22.5941 33.382 19.7018 32.8661L9.12995 30.9802L19.8459 31.6792C22.7777 31.8704 24.1878 28.1522 21.8665 26.3513L13.382 19.7684L22.5457 25.3673C25.0528 26.899 28.0293 24.2621 26.8109 21.5887L22.3574 11.8169L27.8696 21.033C29.3776 23.5544 33.2386 22.6028 33.4022 19.6693L34 8.94729Z" fill="var(--fill-0, #FFBC42)"/>
</g>
<g id="Star 4" filter="url(#filter1_f_2009_168)">
<path d="M27.5488 6.45106L33.1467 25.2539C33.4269 26.1952 34.7545 26.2107 35.0566 25.2761L41.0903 6.60854L37.3089 25.8591C37.1195 26.8229 38.2879 27.4535 38.9897 26.7664L53.0075 13.041L40.713 28.3292C40.0975 29.0946 40.839 30.196 41.7797 29.9137L60.5703 24.2749L42.5794 32.0984C41.6786 32.4901 41.8233 33.8099 42.7875 33.9972L62.0463 37.7367L42.4803 36.3032C41.5007 36.2315 41.0155 37.4674 41.7822 38.0812L57.0971 50.3424L40.4385 39.9804C39.6044 39.4616 38.6005 40.3304 38.9941 41.2303L46.8567 59.2042L36.9217 42.2874C36.4243 41.4405 35.1316 41.7432 35.0619 42.7229L33.671 62.292L32.7356 42.6959C32.6888 41.7148 31.4034 41.3821 30.8865 42.2172L20.5607 58.8984L28.8392 41.1122C29.2537 40.2217 28.2702 39.3298 27.4243 39.829L10.5292 49.8008L26.1251 37.8991C26.9059 37.3033 26.4495 36.0564 25.4686 36.1054L5.87453 37.0834L25.215 33.7928C26.1833 33.628 26.3587 32.312 25.4673 31.8994L7.66311 23.6596L26.3175 29.7339C27.2514 30.038 28.0183 28.9542 27.4208 28.1746L15.4852 12.6047L29.18 26.6523C29.8656 27.3556 31.0483 26.7523 30.8815 25.7843L27.5488 6.45106Z" fill="var(--fill-0, #E09600)"/>
</g>
</g>
<defs>
<filter id="filter0_g_2009_168" x="5.12995" y="4.94729" width="57.7401" height="57.3774" filterUnits="userSpaceOnUse" color-interpolation-filters="sRGB">
<feFlood flood-opacity="0" result="BackgroundImageFix"/>
<feBlend mode="normal" in="SourceGraphic" in2="BackgroundImageFix" result="shape"/>
<feTurbulence type="fractalNoise" baseFrequency="2 2" numOctaves="3" seed="6952" />
<feDisplacementMap in="shape" scale="8" xChannelSelector="R" yChannelSelector="G" result="displacedImage" width="100%" height="100%" />
<feMerge result="effect1_texture_2009_168">
<feMergeNode in="displacedImage"/>
</feMerge>
</filter>
<filter id="filter1_f_2009_168" x="1.87453" y="2.45106" width="64.1717" height="63.8409" filterUnits="userSpaceOnUse" color-interpolation-filters="sRGB">
<feFlood flood-opacity="0" result="BackgroundImageFix"/>
<feBlend mode="normal" in="SourceGraphic" in2="BackgroundImageFix" result="shape"/>
<feGaussianBlur stdDeviation="2" result="effect1_foregroundBlur_2009_168"/>
</filter>
</defs>
</svg>
