<svg preserveAspectRatio="none" width="100%" height="100%" overflow="visible" style="display: block;" viewBox="0 0 61.7 111.644" fill="none" xmlns="http://www.w3.org/2000/svg">
<g id="A_Letter">
<path id="A_Letter_Outline" d="M46 13.1441L24.4 25.6441C22.8667 26.5107 21.4333 27.8107 20.1 29.5441C18.7667 31.2107 17.7 33.0441 16.9 35.0441C16.1 36.9774 15.7 38.8441 15.7 40.6441V104.644M46 13.1441C48.2667 11.8107 50.2667 11.6441 52 12.6441C53.8 13.6441 54.7 15.4774 54.7 18.1441V82.1441L46 87.1441M46 13.1441C48.2667 11.8107 50.3 11.6441 52.1 12.6441L43.4 7.64408C41.6667 6.64408 39.6333 6.81075 37.3 8.14408L15.7 20.6441C14.1667 21.5108 12.7333 22.8108 11.4 24.5441C10.0667 26.2108 9 28.0441 8.2 30.0441C7.4 31.9774 7 33.8441 7 35.6441V99.6441L15.7 104.644M46 87.1441V67.1441M46 87.1441L37.3 82.1441V62.1441L46 67.1441M46 67.1441L24.4 79.6441V99.6441L15.7 104.644M46 57.1441V23.1441M46 57.1441L24.4 69.6441M46 57.1441L37.3 52.1441M46 23.1441L24.4 35.6441V69.6441M46 23.1441L37.3 18.1441V52.1441M24.4 69.6441L15.7 64.6441L37.3 52.1441" stroke="var(--stroke-0, #29B8FF)" stroke-linejoin="round"/>
<g id="A_Letter_Blur" filter="url(#filter0_f_282_8)">
<path d="M46 13.1441L24.4 25.6441C22.8667 26.5107 21.4333 27.8107 20.1 29.5441C18.7667 31.2107 17.7 33.0441 16.9 35.0441C16.1 36.9774 15.7 38.8441 15.7 40.6441V104.644M46 13.1441C48.2667 11.8107 50.2667 11.6441 52 12.6441C53.8 13.6441 54.7 15.4774 54.7 18.1441V82.1441L46 87.1441M46 13.1441C48.2667 11.8107 50.3 11.6441 52.1 12.6441L43.4 7.64408C41.6667 6.64408 39.6333 6.81075 37.3 8.14408L15.7 20.6441C14.1667 21.5108 12.7333 22.8108 11.4 24.5441C10.0667 26.2108 9 28.0441 8.2 30.0441C7.4 31.9774 7 33.8441 7 35.6441V99.6441L15.7 104.644M46 87.1441V67.1441M46 87.1441L37.3 82.1441V62.1441L46 67.1441M46 67.1441L24.4 79.6441V99.6441L15.7 104.644M46 57.1441V23.1441M46 57.1441L24.4 69.6441M46 57.1441L37.3 52.1441M46 23.1441L24.4 35.6441V69.6441M46 23.1441L37.3 18.1441V52.1441M24.4 69.6441L15.7 64.6441L37.3 52.1441" stroke="var(--stroke-0, #29B8FF)" stroke-width="2" stroke-linejoin="round"/>
</g>
<g id="A_Letter_Texture" filter="url(#filter1_g_282_8)">
<path d="M36.8037 7.27564C39.3251 5.83486 41.7532 5.54148 43.8975 6.77759L52.5986 11.7766C52.7004 11.8351 52.7871 11.9099 52.8594 11.9944C54.8116 13.2618 55.7001 15.4072 55.7002 18.1438V82.1438C55.7002 82.5018 55.5086 82.8326 55.1982 83.011L46.498 88.011C46.1896 88.1882 45.8104 88.1882 45.502 88.011L36.8018 83.011C36.4914 82.8326 36.2998 82.5018 36.2998 82.1438V73.9133L25.4004 80.221V99.6438C25.4004 100.002 25.2087 100.333 24.8984 100.511L16.1982 105.511C15.8898 105.688 15.5106 105.688 15.2021 105.511L6.50195 100.511C6.19159 100.333 6 100.002 6 99.6438V35.6438C6.00004 33.6932 6.43429 31.6964 7.27637 29.6614C8.05967 27.7061 9.0875 25.9006 10.3604 24.2483L10.6191 23.9192C12.0119 22.1119 13.5382 20.7175 15.208 19.7737L36.7988 7.27857L36.8037 7.27564ZM25.4004 36.221V57.8743L36.2998 51.5667V29.9133L25.4004 36.221Z" stroke="var(--stroke-0, #29B8FF)" stroke-width="2" stroke-linejoin="round"/>
</g>
</g>
<defs>
<filter id="filter0_f_282_8" x="2" y="2.00062" width="57.7" height="107.643" filterUnits="userSpaceOnUse" color-interpolation-filters="sRGB">
<feFlood flood-opacity="0" result="BackgroundImageFix"/>
<feBlend mode="normal" in="SourceGraphic" in2="BackgroundImageFix" result="shape"/>
<feGaussianBlur stdDeviation="2" result="effect1_foregroundBlur_282_8"/>
</filter>
<filter id="filter1_g_282_8" x="0" y="-2.38419e-07" width="61.7" height="111.644" filterUnits="userSpaceOnUse" color-interpolation-filters="sRGB">
<feFlood flood-opacity="0" result="BackgroundImageFix"/>
<feBlend mode="normal" in="SourceGraphic" in2="BackgroundImageFix" result="shape"/>
<feTurbulence type="fractalNoise" baseFrequency="10 10" numOctaves="3" seed="3429" />
<feDisplacementMap in="shape" scale="10" xChannelSelector="R" yChannelSelector="G" result="displacedImage" width="100%" height="100%" />
<feMerge result="effect1_texture_282_8">
<feMergeNode in="displacedImage"/>
</feMerge>
</filter>
</defs>
</svg>
