<svg width="1438" height="356" viewBox="0 0 1438 356" fill="none" xmlns="http://www.w3.org/2000/svg">
<path d="M0.0134917 26.0708C-0.399842 14.0574 8.7335 2.23078 20.6002 0.0707796C54.3468 -0.0758871 88.1068 0.0574552 121.853 0.0174552C130.2 -0.275878 137.84 7.03078 138.2 15.3241C138.467 22.0308 138.387 28.7508 138.267 35.4575C138.32 43.4308 131.36 51.1108 123.187 50.7908C105.613 50.9641 88.0135 50.4708 70.4268 51.0175C72.9335 56.6308 76.3735 61.7108 79.6402 66.8975C100.507 101.577 121.307 136.324 142.227 170.977C145.4 175.524 146.627 181.311 145.107 186.697C143.12 193.177 136.387 195.991 131.24 199.484C125.813 202.671 120.667 207.804 113.867 207.004C108 207.191 103.333 202.791 100.627 197.991C69.2668 146.631 38.2668 95.0575 6.72016 43.8175C3.29349 38.4708 -0.0131749 32.6174 0.0134917 26.0708ZM501.733 96.5908C506.187 94.2308 510.693 91.9375 515.413 90.1641C520.693 88.1908 526.867 90.7508 529.867 95.3641C534.373 102.324 537.373 110.124 541 117.564C555.227 147.297 568.733 177.391 583.267 206.964C588.8 197.244 592.973 186.817 597.88 176.764C609.293 152.617 620.52 128.364 632.014 104.244C634.76 98.9375 637.147 92.2441 643.413 90.2308C648.293 88.1641 653.267 90.8575 657.667 92.8575C661.707 94.8708 666.24 96.4175 669.227 99.9775C672.427 103.551 673.08 108.937 671.493 113.364C649.387 160.071 627.56 206.937 605.427 253.644C602.214 260.524 599.213 268.684 591.547 271.697C582.24 276.551 570 271.604 565.467 262.471C541.92 212.711 518.613 162.831 495.08 113.071C492.48 106.964 495.947 99.4574 501.733 96.5908ZM842.12 91.6708C851.773 86.3641 864.987 91.1375 869.387 101.151C892.8 150.551 915.68 200.231 939.387 249.497C941.68 255.777 938.893 263.311 932.88 266.351C927.16 269.111 921.547 272.884 915.147 273.644C907.347 273.484 903.107 265.964 900.28 259.711C883.933 224.897 867.36 190.191 851.16 155.297C834.693 190.351 818.227 225.391 801.6 260.377C799.134 265.471 796.267 271.297 790.413 273.084C785.547 274.871 780.827 271.937 776.534 269.991C772.534 267.937 768.053 266.337 765.107 262.791C761.947 259.204 761.52 253.884 762.92 249.484C785.093 203.177 806.76 156.604 828.573 110.111C831.933 103.297 834.587 95.0041 842.12 91.6708ZM1075.83 91.0041C1083.44 88.9641 1091.36 89.5641 1099.16 89.5108C1121.84 89.5108 1144.51 89.5108 1167.19 89.4975C1171.93 89.2441 1177 90.6308 1180.07 94.4841C1185.19 100.191 1183.43 108.484 1183.09 115.431C1183.03 121.151 1179.28 126.924 1173.55 128.257C1167.52 129.644 1161.28 128.964 1155.16 129.097C1132.91 129.097 1110.67 129.084 1088.43 129.097C1083.07 128.871 1077.03 131.057 1074.63 136.164C1073.03 141.257 1074.24 147.297 1078.29 150.937C1082.47 155.351 1088.65 156.551 1094.32 157.884C1106.53 160.884 1118.79 163.697 1131.05 166.537C1145.31 169.777 1158.83 178.004 1166.8 190.471C1175.16 203.231 1176.67 219.684 1172.88 234.257C1166.99 256.817 1143.55 272.697 1120.48 271.044C1094.68 270.964 1068.88 271.084 1043.08 270.977C1035.43 271.644 1028.72 264.231 1029.19 256.777C1029.24 251.564 1028.92 246.244 1030.17 241.137C1031.69 235.564 1037.31 231.444 1043.13 231.897C1068.03 231.871 1092.92 231.844 1117.83 231.924C1122.15 231.911 1126.93 232.137 1130.61 229.444C1136.07 225.564 1136.43 217.337 1133.32 211.871C1130.73 207.404 1125.53 205.604 1120.76 204.644C1107.32 201.857 1094.08 198.257 1080.69 195.271C1065.12 191.604 1050.6 182.271 1041.97 168.644C1033.73 155.431 1031.97 138.457 1036.79 123.737C1042.43 106.577 1058.79 95.0575 1075.83 91.0041ZM1273.4 100.671C1274.16 94.1375 1280.61 89.1641 1287.11 89.5108C1332.47 89.5241 1377.84 89.4708 1423.21 89.5375C1430.12 89.3641 1436.2 95.2175 1436.73 102.031C1437.15 109.657 1438.23 118.711 1432.48 124.751C1429.19 128.537 1423.88 129.204 1419.17 129.137C1404.45 129.057 1389.72 129.164 1375 129.044C1374.17 172.044 1374.95 215.097 1374.63 258.111C1374.69 263.737 1370.21 268.591 1365.2 270.524C1359.23 271.457 1353.13 270.977 1347.12 270.937C1342.4 271.137 1338.36 267.711 1336.31 263.724C1334.32 258.524 1334.93 252.831 1334.84 247.391C1334.87 207.951 1334.89 168.524 1334.84 129.084C1320.72 129.111 1306.6 129.057 1292.49 129.151C1288.75 129.137 1284.88 129.177 1281.37 127.724C1276.76 125.484 1273.23 120.684 1273.27 115.457C1273.12 110.524 1273.01 105.591 1273.4 100.671ZM278.014 162.284C281.28 156.844 284.4 150.044 291.2 148.484C298.413 146.337 304.733 151.191 310.6 154.631C315.907 157.924 322.387 160.724 324.867 166.924C326.8 173.724 325.147 181.084 321.453 186.991C291.547 236.671 261.76 286.444 231.853 336.124C227.893 342.524 224.587 350.137 217.493 353.697C207.12 359.297 193.48 354.111 187.307 344.631C170.747 316.751 154.227 288.817 137.6 260.964C134.96 256.844 134.8 251.511 136.227 246.951C138.227 242.044 143.12 239.417 147.52 237.017C152.453 234.377 157.16 231.311 162.293 229.057C168.827 226.177 176.973 229.191 180.613 235.204C189.627 249.777 197.92 264.804 207.227 279.217C209.253 276.391 211.227 273.537 212.96 270.524C234.453 234.337 256.334 198.364 278.014 162.284Z" fill="#E5E7EB"/>
<path d="M842.12 91.6708C851.773 86.3641 864.987 91.1375 869.387 101.151C892.8 150.551 915.68 200.231 939.387 249.497C941.68 255.777 938.893 263.311 932.88 266.351C927.16 269.111 921.547 272.884 915.147 273.644C907.347 273.484 903.107 265.964 900.28 259.711C883.934 224.897 867.36 190.191 851.16 155.297C834.693 190.351 818.227 225.391 801.6 260.377C799.134 265.471 796.267 271.297 790.413 273.084C785.547 274.871 780.827 271.937 776.534 269.991C772.534 267.937 768.054 266.337 765.107 262.791C761.947 259.204 761.52 253.884 762.92 249.484C785.093 203.177 806.76 156.604 828.573 110.111C831.933 103.297 834.587 95.0041 842.12 91.6708Z" fill="#1FD9FE"/>
<path d="M179.867 14.3241C181.654 5.08411 191.947 0.870783 200.48 1.16412C264.014 1.07078 327.547 1.04411 391.08 1.05745C408.28 0.63078 420.187 22.5108 411.6 37.0308C395.507 63.6841 379.36 90.2841 363.44 117.031C361.014 121.617 357.454 126.071 352.08 127.137C346.96 129.031 341.867 126.044 337.534 123.564C332.787 120.724 327.854 118.191 323.174 115.244C317.12 111.377 314.24 102.844 317.614 96.3241C325.987 80.8841 336.2 66.4575 344.374 50.9108C294.174 50.7508 243.974 50.8975 193.787 50.7908C185.854 50.9375 179.094 43.2975 179.547 35.4975C179.667 28.4441 179.107 21.3374 179.867 14.3241Z" fill="#E5E7EB"/>
</svg>
