<svg preserveAspectRatio="xMidYMid meet" width="100%" height="100%" overflow="visible" style="display: block;" viewBox="0 0 166.833 141.882" fill="none" xmlns="http://www.w3.org/2000/svg">
<g id="Ship">
<g id="Thrust" filter="url(#filter0_f_2016_203)">
<path d="M83.4166 91.8821L50 67.6763L116.833 67.6763L83.4166 91.8821Z" fill="var(--fill-0, #29B8FF)"/>
</g>
<g id="body">
<path d="M64.6661 35.1275C63.4867 34.067 63.7721 32.2143 64.5555 31.0073C70.0598 21.8227 75.5737 12.6438 81.0933 3.46849C82.5254 0.947128 86.7198 1.12761 88.0713 3.62886C90.5233 8.2681 92.963 12.9104 95.4436 17.5327C95.8953 18.2816 96.2294 19.1825 95.9168 20.0512C95.7456 20.9552 94.8718 21.4315 94.1373 21.842C93.3149 22.2809 92.5205 22.7735 91.6885 23.1935C90.6043 23.732 89.1216 23.4069 88.4728 22.3534C86.97 19.8031 85.7732 17.075 84.2376 14.5443C79.8547 21.7811 75.5161 29.0445 71.1421 36.284C70.4743 37.4426 68.7837 37.7555 67.6965 37.0126C66.6882 36.3827 65.6131 35.8464 64.6661 35.1275Z" fill="#29B8FF"/>
<path d="M48.7751 56.8939C48.0565 58.7954 48.9715 61.1417 50.7425 62.1254C51.6858 62.6978 52.8184 62.7285 53.8882 62.6979C64.0289 62.5915 74.1702 62.593 84.312 62.524C85.2404 62.5499 86.2812 62.258 86.7637 61.3944C87.4698 60.4817 87.1754 59.2926 87.1864 58.232C87.1288 57.1853 87.3072 55.9684 86.5438 55.1187C85.8978 54.4313 84.9555 54.1059 84.0232 54.1694C77.2011 54.1814 70.376 54.168 63.5548 54.1701C62.5219 54.1915 61.4894 54.2471 60.4609 54.1217C61.9093 51.5341 63.5091 49.0348 65.0103 46.4815C65.7663 45.3288 65.2615 43.6565 64.1053 42.9718C63.147 42.372 62.1833 41.7768 61.1915 41.2329C59.9624 40.5646 58.2435 41.0335 57.561 42.2646C54.6359 47.1423 51.6847 52.0069 48.7751 56.8939Z" fill="var(--fill-0, white)"/>
<path d="M93.7123 30.6988C93.3471 31.8164 94.0583 32.8576 94.5603 33.8019C97.8887 40.0667 101.184 46.3512 104.544 52.5983C104.829 53.1104 105.07 53.6432 105.302 54.1814C102.412 54.2739 99.5213 54.1667 96.6336 54.2029C95.449 54.2064 94.3062 55.1214 94.1548 56.3151C94.0344 57.2523 94.0686 58.1984 94.0215 59.1403L94.0203 59.1678C93.9851 60.0045 93.9462 60.9269 94.4754 61.6341C95.0101 62.2362 95.7943 62.6763 96.6187 62.6528C102.086 62.6703 107.555 62.7101 113.02 62.7396C114.925 62.6712 116.859 61.1516 116.951 59.167C117.053 57.8332 116.241 56.6944 115.66 55.5666C111.082 46.9325 106.48 38.3075 101.901 29.6733C101.369 28.6269 100.45 27.7489 99.2996 27.4375C98.1887 27.2573 97.2215 27.9501 96.2849 28.4305C95.2786 28.9791 94.0287 29.4705 93.7123 30.6988Z" fill="var(--fill-0, white)"/>
</g>
</g>
<defs>
<filter id="filter0_f_2016_203" x="-9.53674e-07" y="17.6763" width="166.833" height="124.206" filterUnits="userSpaceOnUse" color-interpolation-filters="sRGB">
<feFlood flood-opacity="0" result="BackgroundImageFix"/>
<feBlend mode="normal" in="SourceGraphic" in2="BackgroundImageFix" result="shape"/>
<feGaussianBlur stdDeviation="25" result="effect1_foregroundBlur_2016_203"/>
</filter>
</defs>
</svg>
