<svg width="70" height="61" viewBox="0 0 70 61" fill="none" xmlns="http://www.w3.org/2000/svg">
<path d="M49.4678 26.0369C49.7742 25.9457 50.0941 25.9839 50.5127 26.1628C50.9724 26.3595 51.3664 26.633 51.9316 26.9656V26.9666C52.4784 27.3059 52.8495 27.4841 53.2549 27.7791C53.5933 28.0252 53.8029 28.2571 53.9199 28.5193C54.1307 29.3278 53.9411 30.2569 53.4443 31.0515L53.4395 31.0593L53.4355 31.0662C50.9097 35.2621 48.3885 39.4618 45.8682 43.6609C43.3497 47.8569 40.8317 52.0526 38.3086 56.2439C37.9129 56.8834 37.6848 57.3478 37.3262 57.8591C37.0022 58.321 36.6782 58.6472 36.2852 58.8445L36.2715 58.8513L36.2588 58.8582C35.0665 59.5018 33.3032 58.9298 32.4766 57.6658C29.6871 52.9693 26.9014 48.2585 24.0986 43.5632L24.0908 43.5496L24.082 43.5359C23.8433 43.163 23.7888 42.6081 23.9492 42.0554C24.1366 41.635 24.5891 41.3487 25.3877 40.9128C26.3307 40.4082 26.9843 39.9659 27.8125 39.6023H27.8145C28.4141 39.338 29.2692 39.6147 29.6494 40.2429L29.6543 40.2507C31.1275 42.6326 32.5961 45.2786 34.1602 47.7009L34.957 48.9353L35.8125 47.741C36.1567 47.2609 36.5113 46.7501 36.8281 46.2009C40.4567 40.0918 44.147 34.0247 47.8125 27.9246V27.9236C48.1316 27.3922 48.3382 26.9863 48.6289 26.6189C48.8929 26.2853 49.1334 26.1161 49.4062 26.0535L49.4375 26.0457L49.4678 26.0369Z" stroke="white" stroke-width="2"/>
<path d="M20.582 1.00293H20.5986L20.6152 1.00195C21.4054 0.974185 22.1991 1.66574 22.3262 2.46973L22.3418 2.63184C22.3854 3.73187 22.3728 4.84028 22.3525 5.9707V5.99512C22.3582 6.84583 21.5837 7.60803 20.8447 7.5791L20.8203 7.57812H20.7959C17.8901 7.60679 14.836 7.52478 11.8633 7.61719L10.374 7.66309L10.9814 9.02441C11.3269 9.79805 11.7709 10.5203 12.1934 11.1855L12.6045 11.832C16.1234 17.6804 19.6351 23.5473 23.165 29.3945L23.1826 29.4229L23.2012 29.4492C23.5813 29.9939 23.7091 30.6588 23.5479 31.2471C23.4654 31.5082 23.2815 31.7404 22.9336 32.0039C22.7565 32.1381 22.5567 32.2668 22.3262 32.4092C22.1247 32.5337 21.8846 32.6788 21.6592 32.8291C21.3958 32.9838 21.1396 33.1603 20.9209 33.3086C20.6905 33.4649 20.4923 33.5977 20.2959 33.708C19.9092 33.9253 19.6251 34.0012 19.3486 33.9688L19.2744 33.96L19.2002 33.9629C18.7619 33.9768 18.2505 33.6298 17.8662 32.9482L17.8486 32.9189L13.8877 26.4111C9.93122 19.8966 5.98243 13.3667 1.98633 6.87598L1.98145 6.86816L1.97656 6.86133L1.76855 6.52734C1.30327 5.76267 0.999166 5.09143 1.00195 4.40723V4.36914C0.94925 2.83735 2.1282 1.31563 3.59277 1.01074C9.25516 0.98673 14.9106 1.00965 20.582 1.00293Z" stroke="white" stroke-width="2"/>
<path d="M66.0513 1.17871H66.0767C67.0693 1.15414 67.9939 1.77484 68.5454 2.75879C69.099 3.74644 69.1593 4.89511 68.6567 5.74512C65.9418 10.2415 63.2134 14.7365 60.5239 19.2549L60.5112 19.2764L60.4995 19.2988C60.126 20.0047 59.7169 20.4035 59.27 20.4922L59.1919 20.5078L59.1177 20.5352C58.9688 20.5901 58.785 20.594 58.5034 20.5C58.352 20.4494 58.1991 20.3801 58.0356 20.2959L57.5044 20.002C57.0942 19.757 56.6764 19.5238 56.2817 19.3018C55.8757 19.0733 55.4882 18.8527 55.1157 18.6182H55.1147C54.4786 18.2073 54.2302 17.3163 54.5288 16.7324C55.2179 15.463 55.9849 14.2318 56.7671 12.9658C57.5461 11.705 58.3399 10.412 59.0483 9.06445L59.8159 7.60449L58.1665 7.59863C49.6937 7.57163 41.1951 7.59611 32.7319 7.57812H32.7222L32.7114 7.5791C32.0008 7.59224 31.2773 6.8375 31.3228 6.05371L31.3247 6.0332V5.06641C31.313 4.18402 31.2825 3.4108 31.3677 2.58105C31.4565 2.16925 31.7301 1.83031 32.1821 1.57617C32.6566 1.30948 33.2663 1.17711 33.8257 1.19629L33.8442 1.19727H33.8618C44.5915 1.1815 55.3213 1.17646 66.0513 1.17871Z" fill="#29B8FF" stroke="#29B8FF" stroke-width="2"/>
</svg>
