<svg width="70" height="61" viewBox="0 0 70 61" fill="none" xmlns="http://www.w3.org/2000/svg">
<path d="M49.4678 26.0366C49.7742 25.9454 50.0941 25.9836 50.5127 26.1626C50.9724 26.3592 51.3664 26.6328 51.9316 26.9653V26.9663C52.4784 27.3056 52.8495 27.4839 53.2549 27.7788C53.5933 28.025 53.8029 28.2569 53.9199 28.519C54.1307 29.3275 53.9411 30.2567 53.4443 31.0513L53.4395 31.0591L53.4355 31.0659C50.9097 35.2618 48.3885 39.4615 45.8682 43.6606C43.3497 47.8566 40.8317 52.0524 38.3086 56.2437C37.9129 56.8832 37.6848 57.3476 37.3262 57.8589C37.0022 58.3207 36.6782 58.647 36.2852 58.8442L36.2715 58.8511L36.2588 58.8579C35.0665 59.5015 33.3032 58.9295 32.4766 57.6655C29.6871 52.9691 26.9014 48.2583 24.0986 43.563L24.0908 43.5493L24.082 43.5356C23.8433 43.1628 23.7888 42.6079 23.9492 42.0552C24.1366 41.6348 24.5891 41.3484 25.3877 40.9126C26.3307 40.4079 26.9843 39.9656 27.8125 39.6021H27.8145C28.4141 39.3378 29.2692 39.6145 29.6494 40.2427L29.6543 40.2505C31.1275 42.6324 32.5961 45.2784 34.1602 47.7007L34.957 48.9351L35.8125 47.7407C36.1567 47.2606 36.5113 46.7499 36.8281 46.2007C40.4567 40.0916 44.147 34.0245 47.8125 27.9243V27.9233C48.1316 27.392 48.3382 26.986 48.6289 26.6187C48.8929 26.2851 49.1334 26.1158 49.4062 26.0532L49.4375 26.0454L49.4678 26.0366Z" fill="white" stroke="white" stroke-width="2"/>
<path d="M20.582 1.00293H20.5986L20.6152 1.00195C21.4054 0.974185 22.1991 1.66574 22.3262 2.46973L22.3418 2.63184C22.3854 3.73187 22.3728 4.84028 22.3525 5.9707V5.99512C22.3582 6.84583 21.5837 7.60803 20.8447 7.5791L20.8203 7.57812H20.7959C17.8901 7.60679 14.836 7.52478 11.8633 7.61719L10.374 7.66309L10.9814 9.02441C11.3269 9.79805 11.7709 10.5203 12.1934 11.1855L12.6045 11.832C16.1234 17.6804 19.6351 23.5473 23.165 29.3945L23.1826 29.4229L23.2012 29.4492C23.5813 29.9939 23.7091 30.6588 23.5479 31.2471C23.4654 31.5082 23.2815 31.7404 22.9336 32.0039C22.7565 32.1381 22.5567 32.2668 22.3262 32.4092C22.1247 32.5337 21.8846 32.6788 21.6592 32.8291C21.3958 32.9838 21.1396 33.1603 20.9209 33.3086C20.6905 33.4649 20.4923 33.5977 20.2959 33.708C19.9092 33.9253 19.6251 34.0012 19.3486 33.9688L19.2744 33.96L19.2002 33.9629C18.7619 33.9768 18.2505 33.6298 17.8662 32.9482L17.8486 32.9189L13.8877 26.4111C9.93122 19.8966 5.98243 13.3667 1.98633 6.87598L1.98145 6.86816L1.97656 6.86133L1.76855 6.52734C1.30327 5.76267 0.999166 5.09143 1.00195 4.40723V4.36914C0.94925 2.83735 2.1282 1.31563 3.59277 1.01074C9.25516 0.98673 14.9106 1.00965 20.582 1.00293Z" stroke="white" stroke-width="2"/>
<path d="M66.0513 1.17847H66.0767C67.0693 1.15389 67.9939 1.77459 68.5454 2.75854C69.099 3.7462 69.1593 4.89486 68.6567 5.74487C65.9418 10.2412 63.2134 14.7362 60.5239 19.2546L60.5112 19.2761L60.4995 19.2986C60.126 20.0045 59.7169 20.4032 59.27 20.4919L59.1919 20.5076L59.1177 20.5349C58.9688 20.5899 58.785 20.5938 58.5034 20.4998C58.352 20.4492 58.1991 20.3799 58.0356 20.2957L57.5044 20.0017C57.0942 19.7568 56.6764 19.5235 56.2817 19.3015C55.8757 19.0731 55.4882 18.8524 55.1157 18.6179H55.1147C54.4786 18.207 54.2302 17.3161 54.5288 16.7322C55.2179 15.4627 55.9849 14.2315 56.7671 12.9656C57.5461 11.7047 58.3399 10.4117 59.0483 9.06421L59.8159 7.60425L58.1665 7.59839C49.6937 7.57138 41.1951 7.59587 32.7319 7.57788H32.7222L32.7114 7.57886C32.0008 7.59199 31.2773 6.83726 31.3228 6.05347L31.3247 6.03296V5.06616C31.313 4.18378 31.2825 3.41056 31.3677 2.58081C31.4565 2.169 31.7301 1.83007 32.1821 1.57593C32.6566 1.30924 33.2663 1.17687 33.8257 1.19604L33.8442 1.19702H33.8618C44.5915 1.18126 55.3213 1.17622 66.0513 1.17847Z" fill="#29B8FF" stroke="#29B8FF" stroke-width="2"/>
</svg>
