<svg preserveAspectRatio="xMidYMid meet" width="100%" height="100%" overflow="visible" style="display: block;" viewBox="0 0 551.5 98.8" fill="none" xmlns="http://www.w3.org/2000/svg">
<!-- VASTEROIDS Logo - Combined Letters -->
<defs>
  <!-- Filters for glow effects -->
  <filter id="blur-effect" x="-50%" y="-50%" width="200%" height="200%" filterUnits="objectBoundingBox">
    <feGaussianBlur stdDeviation="2"/>
  </filter>
  <filter id="texture-effect" x="-50%" y="-50%" width="200%" height="200%" filterUnits="objectBoundingBox">
    <feTurbulence type="fractalNoise" baseFrequency="10 10" numOctaves="3" seed="3429" />
    <feComposite operator="in" in2="SourceGraphic"/>
  </filter>
</defs>

<!-- V Letter - Position 0 -->
<g id="V" transform="translate(0, 1)">
  <path d="M27 103C28.7333 104 30.7333 103.833 33 102.5L37.3 100C38.8333 99.1333 40.2667 97.8667 41.6 96.2C42.9333 94.4667 44 92.6 44.8 90.6C45.6 88.6 46 86.7333 46 85M27 103C25.2667 102 24.4 100.167 24.4 97.5M27 103L18.3 98M24.4 97.5L46 85M24.4 97.5C22.0667 98.8333 20.0333 99 18.3 98M24.4 97.5V29.5M24.4 97.5L15.7 92.5M46 85V17M46 85C47.5333 84.1333 48.9333 82.8667 50.2 81.2C51.5333 79.4667 52.6 77.6 53.4 75.6C54.2667 73.6 54.7 71.7333 54.7 70V12M46 85L37.3 80M46 17L54.7 12M46 17L37.3 12M54.7 12L46 7L37.3 12M18.3 98C16.5667 97 15.7 95.1667 15.7 92.5M18.3 98L9.6 93C7.86667 92 7 90.1667 7 87.5V29.5M15.7 92.5V34.5M15.7 92.5L37.3 80M15.7 34.5L24.4 29.5M15.7 34.5L7 29.5M24.4 29.5L15.7 24.5L7 29.5M37.3 12V80" stroke="#29B8FF" stroke-linejoin="round"/>
  <path d="M27 103C28.7333 104 30.7333 103.833 33 102.5L37.3 100C38.8333 99.1333 40.2667 97.8667 41.6 96.2C42.9333 94.4667 44 92.6 44.8 90.6C45.6 88.6 46 86.7333 46 85M27 103C25.2667 102 24.4 100.167 24.4 97.5M27 103L18.3 98M24.4 97.5L46 85M24.4 97.5C22.0667 98.8333 20.0333 99 18.3 98M24.4 97.5V29.5M24.4 97.5L15.7 92.5M46 85V17M46 85C47.5333 84.1333 48.9333 82.8667 50.2 81.2C51.5333 79.4667 52.6 77.6 53.4 75.6C54.2667 73.6 54.7 71.7333 54.7 70V12M46 85L37.3 80M46 17L54.7 12M46 17L37.3 12M54.7 12L46 7L37.3 12M18.3 98C16.5667 97 15.7 95.1667 15.7 92.5M18.3 98L9.6 93C7.86667 92 7 90.1667 7 87.5V29.5M15.7 92.5V34.5M15.7 92.5L37.3 80M15.7 34.5L24.4 29.5M15.7 34.5L7 29.5M24.4 29.5L15.7 24.5L7 29.5M37.3 12V80" stroke="#29B8FF" stroke-width="2" stroke-linejoin="round" filter="url(#blur-effect)"/>
</g>

<!-- A Letter - Position 1 -->
<g id="A" transform="translate(56.35, 1)">
  <path d="M46 13.1441L24.4 25.6441C22.8667 26.5107 21.4333 27.8107 20.1 29.5441C18.8333 31.2107 17.8 33.1107 17 35.2441C16.2 37.3774 15.8 39.4774 15.8 41.5441V71.6441M46 13.1441V83.1441M46 13.1441L54.7 8.14406C56.2333 7.2774 57.6667 6.01073 59 4.34406C60.3333 2.61073 61.4 0.710726 62.2 -1.35594C63 -3.48927 63.4 -5.52261 63.4 -7.45594V-37.5559M15.8 71.6441V83.1441M15.8 71.6441C13.6667 72.8441 11.8 73.1441 10.2 72.5441C8.6 71.8774 7.13333 70.7441 5.8 69.1441C4.46667 67.4774 3.4 65.5774 2.6 63.4441C1.86667 61.2441 1.5 59.1441 1.5 57.1441V12.6441C1.5 10.7107 2.1 8.94406 3.3 7.34406C4.5 5.7774 6.06667 4.61073 8 3.84406L24.4 -4.35594M15.8 83.1441L7.1 88.1441M46 83.1441L37.3 88.1441M46 83.1441L54.7 78.1441M37.3 88.1441V-21.8559M37.3 88.1441L24.4 95.6441L15.7 90.6441L7.1 95.6441V27.6441M24.4 95.6441V25.6441M24.4 -4.35594V25.6441M24.4 -4.35594L15.7 -9.35594L7.1 -4.35594V12.6441" stroke="#29B8FF" stroke-linejoin="round"/>
  <path d="M46 13.1441L24.4 25.6441C22.8667 26.5107 21.4333 27.8107 20.1 29.5441C18.8333 31.2107 17.8 33.1107 17 35.2441C16.2 37.3774 15.8 39.4774 15.8 41.5441V71.6441M46 13.1441V83.1441M46 13.1441L54.7 8.14406C56.2333 7.2774 57.6667 6.01073 59 4.34406C60.3333 2.61073 61.4 0.710726 62.2 -1.35594C63 -3.48927 63.4 -5.52261 63.4 -7.45594V-37.5559M15.8 71.6441V83.1441M15.8 71.6441C13.6667 72.8441 11.8 73.1441 10.2 72.5441C8.6 71.8774 7.13333 70.7441 5.8 69.1441C4.46667 67.4774 3.4 65.5774 2.6 63.4441C1.86667 61.2441 1.5 59.1441 1.5 57.1441V12.6441C1.5 10.7107 2.1 8.94406 3.3 7.34406C4.5 5.7774 6.06667 4.61073 8 3.84406L24.4 -4.35594M15.8 83.1441L7.1 88.1441M46 83.1441L37.3 88.1441M46 83.1441L54.7 78.1441M37.3 88.1441V-21.8559M37.3 88.1441L24.4 95.6441L15.7 90.6441L7.1 95.6441V27.6441M24.4 95.6441V25.6441M24.4 -4.35594V25.6441M24.4 -4.35594L15.7 -9.35594L7.1 -4.35594V12.6441" stroke="#29B8FF" stroke-width="2" stroke-linejoin="round" filter="url(#blur-effect)"/>
</g>

<!-- S Letter - Position 2 -->
<g id="S1" transform="translate(112.7, 1)">
  <path d="M18.3 70.1441C20.0333 71.1441 22.0667 70.9774 24.4 69.6441L46 57.1441C48.3333 55.8107 50.3667 53.9774 52.1 51.6441C53.8333 49.3107 55.0667 46.8107 55.8 44.1441C56.6 41.4107 57 38.8107 57 36.3441V12.6441C57 10.7107 56.4 8.94407 55.2 7.34407C54 5.7774 52.4333 4.61073 50.5 3.84406L35.1 -3.6559C33.1667 -4.4226 31.1333 -4.25593 29 -3.1559L7.4 9.34407C5.06667 10.6774 3.03333 12.5107 1.3 14.8441C-0.433333 17.1774 -1.66667 19.6774 -2.4 22.3441C-3.2 25.0774 -3.6 27.6774 -3.6 30.1441V54.1441C-3.6 56.0774 -3 57.8441 -1.8 59.4441C-0.6 61.0107 0.966667 62.1774 2.9 62.9441L18.3 70.1441ZM18.3 70.1441C16.5667 69.1441 15.7 67.3107 15.7 64.6441V50.6441M46 57.1441V71.1441M46 57.1441L37.3 52.1441M37.3 52.1441V66.1441M37.3 52.1441L15.7 64.6441M15.7 64.6441L7 69.6441M15.7 50.6441L7 55.6441M15.7 50.6441V14.6441M15.7 14.6441L7 9.64407M15.7 14.6441L37.3 2.14407M37.3 2.14407L46 -2.8559M37.3 2.14407V16.1441" stroke="#29B8FF" stroke-linejoin="round"/>
  <path d="M18.3 70.1441C20.0333 71.1441 22.0667 70.9774 24.4 69.6441L46 57.1441C48.3333 55.8107 50.3667 53.9774 52.1 51.6441C53.8333 49.3107 55.0667 46.8107 55.8 44.1441C56.6 41.4107 57 38.8107 57 36.3441V12.6441C57 10.7107 56.4 8.94407 55.2 7.34407C54 5.7774 52.4333 4.61073 50.5 3.84406L35.1 -3.6559C33.1667 -4.4226 31.1333 -4.25593 29 -3.1559L7.4 9.34407C5.06667 10.6774 3.03333 12.5107 1.3 14.8441C-0.433333 17.1774 -1.66667 19.6774 -2.4 22.3441C-3.2 25.0774 -3.6 27.6774 -3.6 30.1441V54.1441C-3.6 56.0774 -3 57.8441 -1.8 59.4441C-0.6 61.0107 0.966667 62.1774 2.9 62.9441L18.3 70.1441ZM18.3 70.1441C16.5667 69.1441 15.7 67.3107 15.7 64.6441V50.6441M46 57.1441V71.1441M46 57.1441L37.3 52.1441M37.3 52.1441V66.1441M37.3 52.1441L15.7 64.6441M15.7 64.6441L7 69.6441M15.7 50.6441L7 55.6441M15.7 50.6441V14.6441M15.7 14.6441L7 9.64407M15.7 14.6441L37.3 2.14407M37.3 2.14407L46 -2.8559M37.3 2.14407V16.1441" stroke="#29B8FF" stroke-width="2" stroke-linejoin="round" filter="url(#blur-effect)"/>
</g>

<!-- T Letter - Position 3 -->
<g id="T" transform="translate(169.05, 0)">
  <path d="M31.3 36L15.7 45M31.3 36V105M31.3 36L22.6 31V100L31.3 105M31.3 105L40 100L48.5 105M40 100V31L31.3 36M15.7 45L7 40V102L15.7 107M15.7 45V107M15.7 107L24.4 112L33.1 107L40 111L48.5 105M40 111V119M48.5 105V8M48.5 8L40 3M48.5 8L57 3V111L48.5 116M57 3L40 -6L33.1 -2L24.4 -7L15.7 -2L7 -7" stroke="#29B8FF" stroke-linejoin="round"/>
  <path d="M31.3 36L15.7 45M31.3 36V105M31.3 36L22.6 31V100L31.3 105M31.3 105L40 100L48.5 105M40 100V31L31.3 36M15.7 45L7 40V102L15.7 107M15.7 45V107M15.7 107L24.4 112L33.1 107L40 111L48.5 105M40 111V119M48.5 105V8M48.5 8L40 3M48.5 8L57 3V111L48.5 116M57 3L40 -6L33.1 -2L24.4 -7L15.7 -2L7 -7" stroke="#29B8FF" stroke-width="2" stroke-linejoin="round" filter="url(#blur-effect)"/>
</g>

<!-- E Letter - Position 4 -->
<g id="E" transform="translate(220.35, 1)">
  <path d="M54.7 12L24.4 29.5C22.8667 30.3667 21.4333 31.6667 20.1 33.4C18.8333 35.0667 17.8 36.9667 17 39.1C16.2 41.2333 15.8 43.3333 15.8 45.4V75.5M54.7 12V82M54.7 12L46 7L37.3 12V82M37.3 82L28.6 77M37.3 82L46 87L54.7 82M28.6 77L15.8 84.5M28.6 77V47M15.8 84.5V75.5M15.8 84.5L7.1 89.5M15.8 75.5L7.1 80.5M7.1 80.5V50.5M7.1 80.5L28.6 68V47M7.1 50.5L28.6 38V47M7.1 50.5V29.5M7.1 29.5L28.6 17V38" stroke="#29B8FF" stroke-linejoin="round"/>
  <path d="M54.7 12L24.4 29.5C22.8667 30.3667 21.4333 31.6667 20.1 33.4C18.8333 35.0667 17.8 36.9667 17 39.1C16.2 41.2333 15.8 43.3333 15.8 45.4V75.5M54.7 12V82M54.7 12L46 7L37.3 12V82M37.3 82L28.6 77M37.3 82L46 87L54.7 82M28.6 77L15.8 84.5M28.6 77V47M15.8 84.5V75.5M15.8 84.5L7.1 89.5M15.8 75.5L7.1 80.5M7.1 80.5V50.5M7.1 80.5L28.6 68V47M7.1 50.5L28.6 38V47M7.1 50.5V29.5M7.1 29.5L28.6 17V38" stroke="#29B8FF" stroke-width="2" stroke-linejoin="round" filter="url(#blur-effect)"/>
</g>

<!-- R Letter - Position 5 -->
<g id="R" transform="translate(276.7, 1)">
  <path d="M46 67.1441L24.4 79.6441V99.6441L15.7 104.644M46 67.1441V13.1441M46 67.1441L54.7 62.1441C56.2333 61.2774 57.6667 60.0107 59 58.3441C60.3333 56.6107 61.4 54.7107 62.2 52.6441C63 50.5107 63.4 48.4774 63.4 46.5441V12.6441C63.4 10.7107 62.8 8.94407 61.6 7.34407C60.4 5.7774 58.8333 4.61073 56.9 3.84407L41.5 -3.6559C39.5667 -4.4226 37.5333 -4.25593 35.4 -3.1559L15.7 7.64406M46 13.1441L37.3 8.14407M46 13.1441L54.7 8.14407M37.3 8.14407V60.1441M37.3 8.14407L15.7 20.6441M15.7 7.64406L7 12.6441M15.7 7.64406V20.6441M15.7 20.6441V104.644M7 12.6441V97.6441" stroke="#29B8FF" stroke-linejoin="round"/>
  <path d="M46 67.1441L24.4 79.6441V99.6441L15.7 104.644M46 67.1441V13.1441M46 67.1441L54.7 62.1441C56.2333 61.2774 57.6667 60.0107 59 58.3441C60.3333 56.6107 61.4 54.7107 62.2 52.6441C63 50.5107 63.4 48.4774 63.4 46.5441V12.6441C63.4 10.7107 62.8 8.94407 61.6 7.34407C60.4 5.7774 58.8333 4.61073 56.9 3.84407L41.5 -3.6559C39.5667 -4.4226 37.5333 -4.25593 35.4 -3.1559L15.7 7.64406M46 13.1441L37.3 8.14407M46 13.1441L54.7 8.14407M37.3 8.14407V60.1441M37.3 8.14407L15.7 20.6441M15.7 7.64406L7 12.6441M15.7 7.64406V20.6441M15.7 20.6441V104.644M7 12.6441V97.6441" stroke="#29B8FF" stroke-width="2" stroke-linejoin="round" filter="url(#blur-effect)"/>
</g>

<!-- O Letter - Position 6 -->
<g id="O" transform="translate(333.05, 1)">
  <path d="M46 13.1441L24.4 25.6441C22.8667 26.5107 21.4333 27.8107 20.1 29.5441C18.8333 31.2107 17.8 33.1107 17 35.2441C16.2 37.3774 15.8 39.4774 15.8 41.5441V71.6441M46 13.1441V83.1441M46 13.1441L54.7 8.14407C56.2333 7.27739 57.6667 6.01073 59 4.34406C60.3333 2.6107 61.4 0.7107 62.2 -1.35594C63 -3.4893 63.4 -5.52264 63.4 -7.45598V-37.556M15.8 71.6441V83.1441M15.8 71.6441C13.6667 72.8441 11.8 73.1441 10.2 72.5441C8.6 71.8774 7.13333 70.7441 5.8 69.1441C4.46667 67.4774 3.4 65.5774 2.6 63.4441C1.86667 61.2441 1.5 59.1441 1.5 57.1441V-37.556M15.8 83.1441L7.1 88.1441M46 83.1441L37.3 88.1441M46 83.1441L54.7 78.1441M37.3 88.1441V-21.856M37.3 88.1441L15.7 100.644V-9.3559L24.4 -4.3559M15.7 100.644L7.1 95.6441V-42.556M1.5 -37.556V12.6441C1.5 10.7107 2.1 8.94407 3.3 7.34406C4.5 5.77739 6.06667 4.61073 8 3.84406L24.4 -4.3559M1.5 -37.556L7.1 -42.556M24.4 -4.3559V25.6441" stroke="#29B8FF" stroke-linejoin="round"/>
  <path d="M46 13.1441L24.4 25.6441C22.8667 26.5107 21.4333 27.8107 20.1 29.5441C18.8333 31.2107 17.8 33.1107 17 35.2441C16.2 37.3774 15.8 39.4774 15.8 41.5441V71.6441M46 13.1441V83.1441M46 13.1441L54.7 8.14407C56.2333 7.27739 57.6667 6.01073 59 4.34406C60.3333 2.6107 61.4 0.7107 62.2 -1.35594C63 -3.4893 63.4 -5.52264 63.4 -7.45598V-37.556M15.8 71.6441V83.1441M15.8 71.6441C13.6667 72.8441 11.8 73.1441 10.2 72.5441C8.6 71.8774 7.13333 70.7441 5.8 69.1441C4.46667 67.4774 3.4 65.5774 2.6 63.4441C1.86667 61.2441 1.5 59.1441 1.5 57.1441V-37.556M15.8 83.1441L7.1 88.1441M46 83.1441L37.3 88.1441M46 83.1441L54.7 78.1441M37.3 88.1441V-21.856M37.3 88.1441L15.7 100.644V-9.3559L24.4 -4.3559M15.7 100.644L7.1 95.6441V-42.556M1.5 -37.556V12.6441C1.5 10.7107 2.1 8.94407 3.3 7.34406C4.5 5.77739 6.06667 4.61073 8 3.84406L24.4 -4.3559M1.5 -37.556L7.1 -42.556M24.4 -4.3559V25.6441" stroke="#29B8FF" stroke-width="2" stroke-linejoin="round" filter="url(#blur-effect)"/>
</g>

<!-- I Letter - Position 7 -->
<g id="I" transform="translate(389.4, 0)">
  <path d="M31.3 86V36M31.3 86L15.7 95M31.3 86L22.6 81M31.3 86L40 81M40 81V36M40 81L48.5 86M15.7 95V105M15.7 95L7 100V110M48.5 86V96M48.5 86L57 91V101M40 36L48.5 31M40 36L31.3 31M31.3 31L22.6 26V81M31.3 31V36M31.3 31L15.7 22M48.5 31V26M48.5 31L57 26V21M15.7 22V12M15.7 22L7 17V7" stroke="#29B8FF" stroke-linejoin="round"/>
  <path d="M31.3 86V36M31.3 86L15.7 95M31.3 86L22.6 81M31.3 86L40 81M40 81V36M40 81L48.5 86M15.7 95V105M15.7 95L7 100V110M48.5 86V96M48.5 86L57 91V101M40 36L48.5 31M40 36L31.3 31M31.3 31L22.6 26V81M31.3 31V36M31.3 31L15.7 22M48.5 31V26M48.5 31L57 26V21M15.7 22V12M15.7 22L7 17V7" stroke="#29B8FF" stroke-width="2" stroke-linejoin="round" filter="url(#blur-effect)"/>
</g>

<!-- D Letter - Position 8 -->
<g id="D" transform="translate(445.75, 0)">
  <path d="M52.9 12.6439C51.1667 11.6439 49.1667 11.8106 46.9 13.1439L24.4 25.6439C22.0667 26.9773 20.0333 28.8106 18.3 31.1439C16.5667 33.4773 15.3333 35.9773 14.6 38.6439C13.8 41.3106 13.4 43.9106 13.4 46.4439V71.6439M52.9 12.6439C54.6333 13.6439 55.5 15.4773 55.5 18.1439V72.1439C55.5 73.8773 54.9333 75.4773 53.8 76.9439C52.6667 78.4106 51.2 79.6106 49.4 80.5439L35.1 88.1439M52.9 12.6439L44.2 7.64391L35.5 12.6439M35.1 88.1439V12.6439M35.1 88.1439C33.3667 89.1439 31.3333 88.9773 29 87.6439L7.4 75.1439M35.5 12.6439L24.4 6.64391L13.3 12.6439M35.5 12.6439V25.6439M13.4 71.6439L22.1 66.6439M13.4 71.6439C11.4667 72.8106 9.83333 73.2439 8.5 72.9439C7.16667 72.5773 5.96667 71.8106 4.9 70.6439C3.83333 69.4106 2.96667 67.9773 2.3 66.3439C1.7 64.6439 1.4 62.9773 1.4 61.3439V46.4439C1.4 43.9106 1.8 41.3106 2.6 38.6439C3.46667 35.9773 4.7 33.4773 6.3 31.1439C8 28.8106 10.0333 26.9773 12.4 25.6439L24.4 19.1439M7.4 75.1439V25.6439M7.4 75.1439L1.4 78.6439M22.1 66.6439V25.6439M22.1 66.6439L24.4 68.1439V19.1439M24.4 19.1439L13.3 12.6439" stroke="#29B8FF" stroke-linejoin="round"/>
  <path d="M52.9 12.6439C51.1667 11.6439 49.1667 11.8106 46.9 13.1439L24.4 25.6439C22.0667 26.9773 20.0333 28.8106 18.3 31.1439C16.5667 33.4773 15.3333 35.9773 14.6 38.6439C13.8 41.3106 13.4 43.9106 13.4 46.4439V71.6439M52.9 12.6439C54.6333 13.6439 55.5 15.4773 55.5 18.1439V72.1439C55.5 73.8773 54.9333 75.4773 53.8 76.9439C52.6667 78.4106 51.2 79.6106 49.4 80.5439L35.1 88.1439M52.9 12.6439L44.2 7.64391L35.5 12.6439M35.1 88.1439V12.6439M35.1 88.1439C33.3667 89.1439 31.3333 88.9773 29 87.6439L7.4 75.1439M35.5 12.6439L24.4 6.64391L13.3 12.6439M35.5 12.6439V25.6439M13.4 71.6439L22.1 66.6439M13.4 71.6439C11.4667 72.8106 9.83333 73.2439 8.5 72.9439C7.16667 72.5773 5.96667 71.8106 4.9 70.6439C3.83333 69.4106 2.96667 67.9773 2.3 66.3439C1.7 64.6439 1.4 62.9773 1.4 61.3439V46.4439C1.4 43.9106 1.8 41.3106 2.6 38.6439C3.46667 35.9773 4.7 33.4773 6.3 31.1439C8 28.8106 10.0333 26.9773 12.4 25.6439L24.4 19.1439M7.4 75.1439V25.6439M7.4 75.1439L1.4 78.6439M22.1 66.6439V25.6439M22.1 66.6439L24.4 68.1439V19.1439M24.4 19.1439L13.3 12.6439" stroke="#29B8FF" stroke-width="2" stroke-linejoin="round" filter="url(#blur-effect)"/>
</g>

<!-- S Letter (second) - Position 9 -->
<g id="S2" transform="translate(503.8, 1)">
  <path d="M18.3 70.1441C20.0333 71.1441 22.0667 70.9774 24.4 69.6441L46 57.1441C48.3333 55.8107 50.3667 53.9774 52.1 51.6441C53.8333 49.3107 55.0667 46.8107 55.8 44.1441C56.6 41.4107 57 38.8107 57 36.3441V12.6441C57 10.7107 56.4 8.94407 55.2 7.34407C54 5.7774 52.4333 4.61073 50.5 3.84406L35.1 -3.6559C33.1667 -4.4226 31.1333 -4.25593 29 -3.1559L7.4 9.34407C5.06667 10.6774 3.03333 12.5107 1.3 14.8441C-0.433333 17.1774 -1.66667 19.6774 -2.4 22.3441C-3.2 25.0774 -3.6 27.6774 -3.6 30.1441V54.1441C-3.6 56.0774 -3 57.8441 -1.8 59.4441C-0.6 61.0107 0.966667 62.1774 2.9 62.9441L18.3 70.1441ZM18.3 70.1441C16.5667 69.1441 15.7 67.3107 15.7 64.6441V50.6441M46 57.1441V71.1441M46 57.1441L37.3 52.1441M37.3 52.1441V66.1441M37.3 52.1441L15.7 64.6441M15.7 64.6441L7 69.6441M15.7 50.6441L7 55.6441M15.7 50.6441V14.6441M15.7 14.6441L7 9.64407M15.7 14.6441L37.3 2.14407M37.3 2.14407L46 -2.8559M37.3 2.14407V16.1441" stroke="#29B8FF" stroke-linejoin="round"/>
  <path d="M18.3 70.1441C20.0333 71.1441 22.0667 70.9774 24.4 69.6441L46 57.1441C48.3333 55.8107 50.3667 53.9774 52.1 51.6441C53.8333 49.3107 55.0667 46.8107 55.8 44.1441C56.6 41.4107 57 38.8107 57 36.3441V12.6441C57 10.7107 56.4 8.94407 55.2 7.34407C54 5.7774 52.4333 4.61073 50.5 3.84406L35.1 -3.6559C33.1667 -4.4226 31.1333 -4.25593 29 -3.1559L7.4 9.34407C5.06667 10.6774 3.03333 12.5107 1.3 14.8441C-0.433333 17.1774 -1.66667 19.6774 -2.4 22.3441C-3.2 25.0774 -3.6 27.6774 -3.6 30.1441V54.1441C-3.6 56.0774 -3 57.8441 -1.8 59.4441C-0.6 61.0107 0.966667 62.1774 2.9 62.9441L18.3 70.1441ZM18.3 70.1441C16.5667 69.1441 15.7 67.3107 15.7 64.6441V50.6441M46 57.1441V71.1441M46 57.1441L37.3 52.1441M37.3 52.1441V66.1441M37.3 52.1441L15.7 64.6441M15.7 64.6441L7 69.6441M15.7 50.6441L7 55.6441M15.7 50.6441V14.6441M15.7 14.6441L7 9.64407M15.7 14.6441L37.3 2.14407M37.3 2.14407L46 -2.8559M37.3 2.14407V16.1441" stroke="#29B8FF" stroke-width="2" stroke-linejoin="round" filter="url(#blur-effect)"/>
</g>

</svg>
