<svg width="566" height="113" viewBox="0 0 566 113" fill="none" xmlns="http://www.w3.org/2000/svg">
<path d="M522.109 70.1441C523.842 71.1441 525.875 70.9774 528.209 69.6441L549.809 57.1441M522.109 70.1441C520.375 69.1441 519.509 67.3107 519.509 64.6441V40.6441C519.509 38.8441 519.909 36.9774 520.709 35.0441C521.509 33.0441 522.575 31.2107 523.909 29.5441C525.242 27.8107 526.675 26.5107 528.209 25.6441L549.809 13.1441M522.109 70.1441L513.409 65.1441C511.675 64.1441 510.809 62.3107 510.809 59.6441V35.6441C510.809 33.8441 511.209 31.9774 512.009 30.0441C512.809 28.0441 513.875 26.2107 515.209 24.5441C516.542 22.8107 517.975 21.5107 519.509 20.6441L541.109 8.14408C543.442 6.81074 545.475 6.64408 547.209 7.64408L555.909 12.6441C554.109 11.6441 552.075 11.8107 549.809 13.1441M549.809 13.1441C552.075 11.8107 554.075 11.6441 555.809 12.6441C557.609 13.6441 558.509 15.4774 558.509 18.1441V32.1441L549.809 37.1441M549.809 37.1441V23.1441M549.809 37.1441L541.109 32.1441V18.1441L549.809 23.1441M549.809 23.1441L528.209 35.6441V59.6441M528.209 59.6441L549.809 47.1441M528.209 59.6441L519.509 54.6441L541.109 42.1441C543.442 40.8107 545.475 40.6441 547.209 41.6441L555.909 46.6441C554.109 45.6441 552.075 45.8107 549.809 47.1441M549.809 47.1441C552.075 45.8107 554.075 45.6441 555.809 46.6441C557.609 47.6441 558.509 49.4774 558.509 52.1441V76.1441C558.509 77.8774 558.075 79.7441 557.209 81.7441C556.409 83.7441 555.342 85.6108 554.009 87.3441C552.742 89.0108 551.342 90.2774 549.809 91.1441L528.209 103.644C525.875 104.977 523.842 105.144 522.109 104.144M522.109 104.144C520.375 103.144 519.509 101.311 519.509 98.6441V88.6441M522.109 104.144L513.409 99.1441C511.675 98.1441 510.809 96.3107 510.809 93.6441V83.6441M519.509 88.6441L528.209 83.6441M519.509 88.6441L528.209 93.6441M519.509 88.6441L541.109 76.1441M519.509 88.6441L510.809 83.6441M528.209 83.6441V93.6441M528.209 83.6441L519.509 78.6441L510.809 83.6441M528.209 93.6441L549.809 81.1441M549.809 81.1441V57.1441M549.809 81.1441L541.109 76.1441M549.809 57.1441L541.109 52.1441V76.1441" stroke="#29B8FF" stroke-linejoin="round"/>
<g filter="url(#filter0_f_281_155)">
<path d="M522.109 70.1441C523.842 71.1441 525.875 70.9774 528.209 69.6441L549.809 57.1441M522.109 70.1441C520.375 69.1441 519.509 67.3107 519.509 64.6441V40.6441C519.509 38.8441 519.909 36.9774 520.709 35.0441C521.509 33.0441 522.575 31.2107 523.909 29.5441C525.242 27.8107 526.675 26.5107 528.209 25.6441L549.809 13.1441M522.109 70.1441L513.409 65.1441C511.675 64.1441 510.809 62.3107 510.809 59.6441V35.6441C510.809 33.8441 511.209 31.9774 512.009 30.0441C512.809 28.0441 513.875 26.2107 515.209 24.5441C516.542 22.8107 517.975 21.5107 519.509 20.6441L541.109 8.14408C543.442 6.81074 545.475 6.64408 547.209 7.64408L555.909 12.6441C554.109 11.6441 552.075 11.8107 549.809 13.1441M549.809 13.1441C552.075 11.8107 554.075 11.6441 555.809 12.6441C557.609 13.6441 558.509 15.4774 558.509 18.1441V32.1441L549.809 37.1441M549.809 37.1441V23.1441M549.809 37.1441L541.109 32.1441V18.1441L549.809 23.1441M549.809 23.1441L528.209 35.6441V59.6441M528.209 59.6441L549.809 47.1441M528.209 59.6441L519.509 54.6441L541.109 42.1441C543.442 40.8107 545.475 40.6441 547.209 41.6441L555.909 46.6441C554.109 45.6441 552.075 45.8107 549.809 47.1441M549.809 47.1441C552.075 45.8107 554.075 45.6441 555.809 46.6441C557.609 47.6441 558.509 49.4774 558.509 52.1441V76.1441C558.509 77.8774 558.075 79.7441 557.209 81.7441C556.409 83.7441 555.342 85.6108 554.009 87.3441C552.742 89.0108 551.342 90.2774 549.809 91.1441L528.209 103.644C525.875 104.977 523.842 105.144 522.109 104.144M522.109 104.144C520.375 103.144 519.509 101.311 519.509 98.6441V88.6441M522.109 104.144L513.409 99.1441C511.675 98.1441 510.809 96.3107 510.809 93.6441V83.6441M519.509 88.6441L528.209 83.6441M519.509 88.6441L528.209 93.6441M519.509 88.6441L541.109 76.1441M519.509 88.6441L510.809 83.6441M528.209 83.6441V93.6441M528.209 83.6441L519.509 78.6441L510.809 83.6441M528.209 93.6441L549.809 81.1441M549.809 81.1441V57.1441M549.809 81.1441L541.109 76.1441M549.809 57.1441L541.109 52.1441V76.1441" stroke="#29B8FF" stroke-width="2" stroke-linejoin="round"/>
</g>
<g filter="url(#filter1_g_281_155)">
<path d="M540.612 7.27563C543.134 5.83486 545.562 5.54149 547.706 6.77759L556.407 11.7766C556.509 11.8351 556.596 11.9099 556.668 11.9944C558.62 13.2618 559.509 15.4072 559.509 18.1438V32.1438C559.509 32.5018 559.317 32.8326 559.007 33.011L550.316 38.0051C550.314 38.0065 550.312 38.0086 550.31 38.01C550.155 38.0996 549.982 38.1428 549.809 38.1428C549.636 38.1428 549.462 38.0996 549.308 38.01C549.305 38.0085 549.302 38.0067 549.3 38.0051L540.61 33.011C540.3 32.8326 540.108 32.5018 540.108 32.1438V29.9133L529.209 36.2209V47.8743L540.607 41.2786L540.612 41.2756C543.133 39.835 545.562 39.5408 547.706 40.7766L556.407 45.7766C556.509 45.8351 556.596 45.9099 556.668 45.9944C558.62 47.2617 559.509 49.4072 559.509 52.1438V76.1438C559.509 78.0443 559.033 80.0476 558.126 82.1418C557.293 84.2167 556.185 86.1524 554.804 87.9485L554.805 87.9495C553.473 89.7013 551.977 91.0643 550.309 92.009L528.71 104.51L528.705 104.512C526.183 105.953 523.753 106.247 521.608 105.01C521.606 105.009 521.605 105.007 521.603 105.006L512.91 100.011L512.909 100.01C510.765 98.7728 509.809 96.5325 509.809 93.6438V83.6438C509.809 83.5855 509.815 83.5282 509.825 83.4719C509.861 83.2692 509.956 83.0825 510.101 82.9377C510.162 82.8759 510.233 82.8213 510.311 82.7766L519.011 77.7766L519.129 77.719C519.412 77.6026 519.737 77.6216 520.007 77.7766L528.177 82.4719L540.108 75.5667V63.9133L528.71 70.51L528.705 70.512C526.183 71.9532 523.753 72.2473 521.608 71.01C521.606 71.0088 521.605 71.0073 521.603 71.0061L512.91 66.011L512.909 66.01C510.765 64.7728 509.809 62.5325 509.809 59.6438V35.6438C509.809 33.6932 510.243 31.6964 511.085 29.6614C511.868 27.7061 512.896 25.9006 514.169 24.2483L514.428 23.9192C515.82 22.1119 517.347 20.7175 519.017 19.7737L540.607 7.27856L540.612 7.27563Z" stroke="#29B8FF" stroke-width="2" stroke-linejoin="round"/>
</g>
<path d="M499.482 12.6441C497.749 11.6441 495.749 11.8107 493.482 13.1441L462.282 31.1441M499.482 12.6441C501.215 13.6441 502.082 15.4774 502.082 18.1441V72.1441C502.082 73.9441 501.682 75.8441 500.882 77.8441C500.082 79.7774 499.015 81.6108 497.682 83.3441C496.415 85.0108 495.015 86.2774 493.482 87.1441L479.582 95.1441C477.315 96.4774 475.315 96.6441 473.582 95.6441M499.482 12.6441L490.882 7.64408C489.082 6.64408 487.049 6.81075 484.782 8.14408L453.582 26.1441M473.582 95.6441C471.849 94.6441 470.982 92.8107 470.982 90.1441M473.582 95.6441L464.882 90.6441C463.149 89.6441 462.282 87.8107 462.282 85.1441M470.982 90.1441L493.482 77.1441M470.982 90.1441L462.282 85.1441M493.482 77.1441V23.1441M493.482 77.1441L484.782 72.1441M493.482 23.1441L470.982 36.1441V100.144L462.282 105.144M493.482 23.1441L484.782 18.1441V72.1441M462.282 105.144V31.1441M462.282 105.144L453.582 100.144V26.1441M462.282 31.1441L453.582 26.1441M484.782 72.1441L462.282 85.1441" stroke="#29B8FF" stroke-linejoin="round"/>
<g filter="url(#filter2_f_281_155)">
<path d="M499.482 12.6441C497.749 11.6441 495.749 11.8107 493.482 13.1441L462.282 31.1441M499.482 12.6441C501.215 13.6441 502.082 15.4774 502.082 18.1441V72.1441C502.082 73.9441 501.682 75.8441 500.882 77.8441C500.082 79.7774 499.015 81.6108 497.682 83.3441C496.415 85.0108 495.015 86.2774 493.482 87.1441L479.582 95.1441C477.315 96.4774 475.315 96.6441 473.582 95.6441M499.482 12.6441L490.882 7.64408C489.082 6.64408 487.049 6.81075 484.782 8.14408L453.582 26.1441M473.582 95.6441C471.849 94.6441 470.982 92.8107 470.982 90.1441M473.582 95.6441L464.882 90.6441C463.149 89.6441 462.282 87.8107 462.282 85.1441M470.982 90.1441L493.482 77.1441M470.982 90.1441L462.282 85.1441M493.482 77.1441V23.1441M493.482 77.1441L484.782 72.1441M493.482 23.1441L470.982 36.1441V100.144L462.282 105.144M493.482 23.1441L484.782 18.1441V72.1441M462.282 105.144V31.1441M462.282 105.144L453.582 100.144V26.1441M462.282 31.1441L453.582 26.1441M484.782 72.1441L462.282 85.1441" stroke="#29B8FF" stroke-width="2" stroke-linejoin="round"/>
</g>
<g filter="url(#filter3_g_281_155)">
<path d="M484.282 7.27759C486.677 5.87117 489.021 5.56845 491.161 6.65942L491.367 6.76978L491.385 6.77954L499.981 11.7776C502.126 13.0148 503.082 15.2553 503.082 18.1438V72.1438C503.082 74.0933 502.649 76.1198 501.811 78.2151L501.806 78.2268C500.971 80.243 499.86 82.1501 498.478 83.9485C497.145 85.7012 495.649 87.0652 493.979 88.01L493.98 88.011L480.081 96.011L480.08 96.01C477.618 97.4558 475.223 97.7452 473.082 96.51C473.08 96.5088 473.078 96.5073 473.076 96.5061L471.982 95.8772V100.144C471.982 100.502 471.791 100.833 471.48 101.011L462.789 106.005C462.787 106.006 462.785 106.009 462.783 106.01C462.628 106.1 462.454 106.143 462.281 106.143C462.109 106.143 461.936 106.099 461.781 106.01C461.779 106.009 461.776 106.007 461.773 106.005L453.084 101.011C452.774 100.833 452.582 100.502 452.582 100.144V26.1438C452.582 25.9655 452.63 25.7941 452.716 25.6448C452.802 25.4953 452.927 25.368 453.081 25.2786H453.08L453.082 25.2776L484.282 7.27759ZM471.982 36.7209V78.385L483.782 71.5667V29.9026L471.982 36.7209Z" stroke="#29B8FF" stroke-width="2" stroke-linejoin="round"/>
</g>
<path d="M420.655 86.0012V36.0012M420.655 86.0012L405.055 95.0012M420.655 86.0012L411.955 81.0012M420.655 36.0012L405.055 45.0012M420.655 36.0012L411.955 31.0012V81.0012M405.055 45.0012V35.0012M405.055 45.0012L396.355 40.0012V30.0012M405.055 35.0012L444.855 12.0012M405.055 35.0012L396.355 30.0012M444.855 12.0012V22.0012L429.255 31.0012V81.0012M444.855 12.0012L436.255 7.00122L396.355 30.0012M429.255 81.0012L444.855 72.0012M429.255 81.0012L420.655 76.0012L436.255 67.0012L444.855 72.0012M444.855 72.0012V82.0012L405.055 105.001M405.055 105.001V95.0012M405.055 105.001L396.355 100.001V90.0012M405.055 95.0012L396.355 90.0012M396.355 90.0012L411.955 81.0012" stroke="#29B8FF" stroke-linejoin="round"/>
<g filter="url(#filter4_f_281_155)">
<path d="M420.655 86.0012V36.0012M420.655 86.0012L405.055 95.0012M420.655 86.0012L411.955 81.0012M420.655 36.0012L405.055 45.0012M420.655 36.0012L411.955 31.0012V81.0012M405.055 45.0012V35.0012M405.055 45.0012L396.355 40.0012V30.0012M405.055 35.0012L444.855 12.0012M405.055 35.0012L396.355 30.0012M444.855 12.0012V22.0012L429.255 31.0012V81.0012M444.855 12.0012L436.255 7.00122L396.355 30.0012M429.255 81.0012L444.855 72.0012M429.255 81.0012L420.655 76.0012L436.255 67.0012L444.855 72.0012M444.855 72.0012V82.0012L405.055 105.001M405.055 105.001V95.0012M405.055 105.001L396.355 100.001V90.0012M405.055 95.0012L396.355 90.0012M396.355 90.0012L411.955 81.0012" stroke="#29B8FF" stroke-width="2" stroke-linejoin="round"/>
</g>
<g filter="url(#filter5_g_281_155)">
<path d="M435.756 6.13501C436.066 5.95619 436.448 5.95703 436.758 6.13696L445.353 11.1331C445.354 11.1336 445.354 11.1344 445.355 11.135C445.395 11.158 445.433 11.1835 445.469 11.2112C445.56 11.2824 445.636 11.3698 445.697 11.4661C445.798 11.6238 445.855 11.8079 445.855 12.0012V22.0012C445.855 22.3585 445.665 22.6888 445.355 22.8674L430.256 31.5784V69.3079L435.756 66.135L435.875 66.0764C436.16 65.959 436.487 65.9794 436.758 66.137L445.353 71.1331C445.354 71.1336 445.354 71.1344 445.355 71.135C445.395 71.1579 445.433 71.1835 445.469 71.2112C445.56 71.2824 445.636 71.3698 445.697 71.4661C445.798 71.6238 445.855 71.8079 445.855 72.0012V82.0012C445.855 82.3583 445.665 82.6887 445.355 82.8674L405.556 105.867C405.452 105.927 405.341 105.964 405.227 105.984C405.17 105.994 405.113 106 405.056 106C405.053 106 405.05 106 405.048 106C404.978 106 404.909 105.991 404.841 105.976C404.799 105.967 404.758 105.954 404.717 105.94C404.662 105.92 404.609 105.898 404.558 105.868L395.857 100.868C395.547 100.69 395.355 100.359 395.355 100.001V90.0012C395.355 89.8226 395.403 89.6507 395.489 89.5012C395.522 89.4437 395.563 89.3911 395.607 89.3411C395.636 89.3086 395.666 89.2779 395.699 89.2493C395.747 89.2074 395.798 89.1685 395.854 89.136H395.854L395.855 89.135L410.955 80.4231V42.7522L405.556 45.8674C405.455 45.9254 405.346 45.9624 405.235 45.9827C405.176 45.9936 405.116 46.0002 405.056 46.0002C405.053 46.0002 405.05 46.0003 405.047 46.0002C404.981 45.9997 404.915 45.9915 404.85 45.9778C404.805 45.9683 404.76 45.9555 404.717 45.9397C404.662 45.9201 404.609 45.8977 404.558 45.8684L395.857 40.8684C395.547 40.69 395.355 40.3592 395.355 40.0012V30.0012C395.355 29.9568 395.358 29.9128 395.364 29.8694C395.382 29.7385 395.424 29.6135 395.489 29.5012C395.554 29.3893 395.64 29.2896 395.744 29.2092C395.779 29.1821 395.817 29.1576 395.856 29.135L395.858 29.134L435.756 6.13501Z" stroke="#29B8FF" stroke-width="2" stroke-linejoin="round"/>
</g>
<path d="M379.008 13.1441L357.408 25.6441C355.874 26.5107 354.441 27.8107 353.108 29.5441C351.774 31.2107 350.708 33.0441 349.908 35.0441C349.108 36.9774 348.708 38.8441 348.708 40.6441V98.6441C348.708 101.311 349.574 103.144 351.308 104.144M379.008 13.1441C381.274 11.8107 383.274 11.6441 385.008 12.6441C386.808 13.6441 387.708 15.4774 387.708 18.1441V76.1441C387.708 77.8774 387.274 79.7441 386.408 81.7441C385.608 83.7441 384.541 85.6108 383.208 87.3441C381.941 89.0108 380.541 90.2774 379.008 91.1441L357.408 103.644C355.074 104.977 353.041 105.144 351.308 104.144M379.008 13.1441C381.274 11.8107 383.308 11.6441 385.108 12.6441L376.408 7.64408C374.674 6.64408 372.641 6.81074 370.308 8.14408L348.708 20.6441C347.174 21.5107 345.741 22.8107 344.408 24.5441C343.074 26.2107 342.008 28.0441 341.208 30.0441C340.408 31.9774 340.008 33.8441 340.008 35.6441V93.6441C340.008 96.3107 340.874 98.1441 342.608 99.1441L351.308 104.144M357.408 93.6441L379.008 81.1441M357.408 93.6441V35.6441L379.008 23.1441M357.408 93.6441L348.708 88.6441L370.308 76.1441M379.008 81.1441V23.1441M379.008 81.1441L370.308 76.1441M379.008 23.1441L370.308 18.1441V76.1441" stroke="#29B8FF" stroke-linejoin="round"/>
<g filter="url(#filter6_f_281_155)">
<path d="M379.008 13.1441L357.408 25.6441C355.874 26.5107 354.441 27.8107 353.108 29.5441C351.774 31.2107 350.708 33.0441 349.908 35.0441C349.108 36.9774 348.708 38.8441 348.708 40.6441V98.6441C348.708 101.311 349.574 103.144 351.308 104.144M379.008 13.1441C381.274 11.8107 383.274 11.6441 385.008 12.6441C386.808 13.6441 387.708 15.4774 387.708 18.1441V76.1441C387.708 77.8774 387.274 79.7441 386.408 81.7441C385.608 83.7441 384.541 85.6108 383.208 87.3441C381.941 89.0108 380.541 90.2774 379.008 91.1441L357.408 103.644C355.074 104.977 353.041 105.144 351.308 104.144M379.008 13.1441C381.274 11.8107 383.308 11.6441 385.108 12.6441L376.408 7.64408C374.674 6.64408 372.641 6.81074 370.308 8.14408L348.708 20.6441C347.174 21.5107 345.741 22.8107 344.408 24.5441C343.074 26.2107 342.008 28.0441 341.208 30.0441C340.408 31.9774 340.008 33.8441 340.008 35.6441V93.6441C340.008 96.3107 340.874 98.1441 342.608 99.1441L351.308 104.144M357.408 93.6441L379.008 81.1441M357.408 93.6441V35.6441L379.008 23.1441M357.408 93.6441L348.708 88.6441L370.308 76.1441M379.008 81.1441V23.1441M379.008 81.1441L370.308 76.1441M379.008 23.1441L370.308 18.1441V76.1441" stroke="#29B8FF" stroke-width="2" stroke-linejoin="round"/>
</g>
<g filter="url(#filter7_g_281_155)">
<path d="M369.812 7.27563C372.333 5.83485 374.761 5.54148 376.905 6.77759L385.606 11.7766C385.708 11.8351 385.795 11.9099 385.867 11.9944C387.819 13.2618 388.708 15.4072 388.708 18.1438V76.1438C388.708 78.0443 388.233 80.0476 387.325 82.1418C386.492 84.2167 385.384 86.1524 384.003 87.9485L384.004 87.9495C382.673 89.7013 381.176 91.0643 379.508 92.009L357.908 104.51L357.904 104.512C355.382 105.953 352.952 106.247 350.808 105.01C350.806 105.009 350.804 105.007 350.802 105.006L342.109 100.011L342.108 100.01C339.964 98.7728 339.008 96.5325 339.008 93.6438V35.6438C339.008 33.6932 339.442 31.6964 340.284 29.6614C341.067 27.7061 342.095 25.9006 343.368 24.2483L343.627 23.9192C345.02 22.1119 346.546 20.7175 348.216 19.7737L369.807 7.27856L369.812 7.27563ZM358.408 36.22V81.8743L369.308 75.5667V29.9124L358.408 36.22Z" stroke="#29B8FF" stroke-width="2" stroke-linejoin="round"/>
</g>
<path d="M322.66 67.1441L301.06 79.6441V99.6441L292.36 104.644M322.66 67.1441V87.1441M322.66 67.1441L313.96 62.1441V82.1441L322.66 87.1441M292.36 104.644V30.6441M292.36 104.644L283.66 99.6441V25.6441M292.36 30.6441L322.66 13.1441M292.36 30.6441L283.66 25.6441M322.66 13.1441C324.927 11.8107 326.927 11.6441 328.66 12.6441C330.46 13.6441 331.36 15.4774 331.36 18.1441V42.1441C331.36 43.8774 330.927 45.7441 330.06 47.7441C329.26 49.7441 328.194 51.6107 326.86 53.3441C325.594 55.0107 324.193 56.2774 322.66 57.1441M322.66 13.1441C324.927 11.8107 326.96 11.6441 328.76 12.6441L320.06 7.64408C318.327 6.64408 316.293 6.81074 313.96 8.14408L283.66 25.6441M322.66 57.1441C324.927 55.8107 326.927 55.6441 328.66 56.6441C330.46 57.6441 331.36 59.4774 331.36 62.1441V82.1441L322.66 87.1441M322.66 57.1441V23.1441M322.66 57.1441L301.06 69.6441M322.66 57.1441C324.927 55.8107 326.96 55.6441 328.76 56.6441L320.06 51.6441C318.327 50.6441 316.293 50.8107 313.96 52.1441M322.66 57.1441L313.96 52.1441M322.66 23.1441L301.06 35.6441V69.6441M322.66 23.1441L313.96 18.1441V52.1441M301.06 69.6441L292.36 64.6441L313.96 52.1441" stroke="#29B8FF" stroke-linejoin="round"/>
<g filter="url(#filter8_f_281_155)">
<path d="M322.66 67.1441L301.06 79.6441V99.6441L292.36 104.644M322.66 67.1441V87.1441M322.66 67.1441L313.96 62.1441V82.1441L322.66 87.1441M292.36 104.644V30.6441M292.36 104.644L283.66 99.6441V25.6441M292.36 30.6441L322.66 13.1441M292.36 30.6441L283.66 25.6441M322.66 13.1441C324.927 11.8107 326.927 11.6441 328.66 12.6441C330.46 13.6441 331.36 15.4774 331.36 18.1441V42.1441C331.36 43.8774 330.927 45.7441 330.06 47.7441C329.26 49.7441 328.194 51.6107 326.86 53.3441C325.594 55.0107 324.193 56.2774 322.66 57.1441M322.66 13.1441C324.927 11.8107 326.96 11.6441 328.76 12.6441L320.06 7.64408C318.327 6.64408 316.293 6.81074 313.96 8.14408L283.66 25.6441M322.66 57.1441C324.927 55.8107 326.927 55.6441 328.66 56.6441C330.46 57.6441 331.36 59.4774 331.36 62.1441V82.1441L322.66 87.1441M322.66 57.1441V23.1441M322.66 57.1441L301.06 69.6441M322.66 57.1441C324.927 55.8107 326.96 55.6441 328.76 56.6441L320.06 51.6441C318.327 50.6441 316.293 50.8107 313.96 52.1441M322.66 57.1441L313.96 52.1441M322.66 23.1441L301.06 35.6441V69.6441M322.66 23.1441L313.96 18.1441V52.1441M301.06 69.6441L292.36 64.6441L313.96 52.1441" stroke="#29B8FF" stroke-width="2" stroke-linejoin="round"/>
</g>
<g filter="url(#filter9_g_281_155)">
<path d="M313.464 7.27563C315.985 5.83485 318.413 5.54148 320.558 6.77759L329.259 11.7766C329.361 11.8351 329.447 11.9099 329.52 11.9944C331.472 13.2618 332.36 15.4072 332.36 18.1438V42.1438C332.36 44.0443 331.885 46.0476 330.978 48.1418C330.145 50.2167 329.036 52.1524 327.655 53.9485L327.656 53.9495C327.494 54.1627 327.329 54.3698 327.162 54.5715L329.259 55.7766C329.361 55.8351 329.447 55.9099 329.52 55.9944C331.472 57.2617 332.36 59.4072 332.36 62.1438V82.1438C332.36 82.5018 332.169 82.8326 331.858 83.011L323.168 88.0051C323.166 88.0065 323.164 88.0086 323.161 88.01C323.006 88.0996 322.833 88.1428 322.66 88.1428C322.487 88.1428 322.314 88.0996 322.159 88.01C322.157 88.0085 322.154 88.0067 322.151 88.0051L313.462 83.011C313.152 82.8326 312.96 82.5018 312.96 82.1438V73.9124L302.061 80.22V99.6438C302.061 100.002 301.869 100.333 301.559 100.511L292.867 105.505C292.865 105.506 292.863 105.509 292.861 105.51C292.706 105.6 292.533 105.643 292.359 105.643C292.187 105.643 292.014 105.599 291.859 105.51C291.857 105.509 291.854 105.507 291.852 105.505L283.162 100.511C282.852 100.333 282.66 100.002 282.66 99.6438V25.6438C282.66 25.287 282.85 24.9573 283.159 24.7786C283.161 24.7773 283.164 24.7759 283.166 24.7747L313.46 7.27856L313.464 7.27563ZM302.061 36.22V57.8743L312.96 51.5667V29.9124L302.061 36.22Z" stroke="#29B8FF" stroke-width="2" stroke-linejoin="round"/>
</g>
<path d="M275.013 12.0012L244.712 29.5012C243.179 30.3679 241.746 31.6679 240.413 33.4012C239.079 35.0679 238.012 36.9012 237.212 38.9012C236.412 40.8346 236.012 42.7012 236.012 44.5012V98.5012C236.012 101.168 236.879 103.001 238.613 104.001M275.013 12.0012V22.0012L244.712 39.5012V61.5012M275.013 12.0012L266.312 7.00122L236.012 24.5012C234.479 25.3679 233.046 26.6679 231.712 28.4012C230.379 30.0679 229.312 31.9012 228.512 33.9012C227.712 35.8346 227.312 37.7012 227.312 39.5012V93.5012C227.312 96.1679 228.179 98.0012 229.913 99.0012L238.613 104.001M244.712 61.5012L275.013 44.0012M244.712 61.5012L236.012 56.5012L266.312 39.0012L275.013 44.0012M275.013 44.0012V54.0012L244.712 71.5012V93.5012M244.712 93.5012L275.013 76.0012M244.712 93.5012L236.012 88.5012L266.312 71.0012L275.013 76.0012M275.013 76.0012V86.0012L244.712 103.501C242.379 104.835 240.346 105.001 238.613 104.001" stroke="#29B8FF" stroke-linejoin="round"/>
<g filter="url(#filter10_f_281_155)">
<path d="M275.013 12.0012L244.712 29.5012C243.179 30.3679 241.746 31.6679 240.413 33.4012C239.079 35.0679 238.012 36.9012 237.212 38.9012C236.412 40.8346 236.012 42.7012 236.012 44.5012V98.5012C236.012 101.168 236.879 103.001 238.613 104.001M275.013 12.0012V22.0012L244.712 39.5012V61.5012M275.013 12.0012L266.312 7.00122L236.012 24.5012C234.479 25.3679 233.046 26.6679 231.712 28.4012C230.379 30.0679 229.312 31.9012 228.512 33.9012C227.712 35.8346 227.312 37.7012 227.312 39.5012V93.5012C227.312 96.1679 228.179 98.0012 229.913 99.0012L238.613 104.001M244.712 61.5012L275.013 44.0012M244.712 61.5012L236.012 56.5012L266.312 39.0012L275.013 44.0012M275.013 44.0012V54.0012L244.712 71.5012V93.5012M244.712 93.5012L275.013 76.0012M244.712 93.5012L236.012 88.5012L266.312 71.0012L275.013 76.0012M275.013 76.0012V86.0012L244.712 103.501C242.379 104.835 240.346 105.001 238.613 104.001" stroke="#29B8FF" stroke-width="2" stroke-linejoin="round"/>
</g>
<g filter="url(#filter11_g_281_155)">
<path d="M265.932 6.07642C266.215 5.95953 266.54 5.97877 266.811 6.13403L275.511 11.134L275.513 11.135C275.584 11.1762 275.648 11.2266 275.706 11.2825C275.742 11.3174 275.776 11.3541 275.807 11.3938C275.846 11.4454 275.879 11.5016 275.907 11.5598C275.974 11.6949 276.013 11.8445 276.013 12.0002V22.0012C276.013 22.3584 275.822 22.6888 275.513 22.8674L245.713 40.0784V49.7434L265.812 38.135L265.932 38.0764C266.215 37.9595 266.54 37.9788 266.811 38.134L275.511 43.134L275.513 43.135C275.568 43.1671 275.618 43.2061 275.666 43.2473C275.734 43.3064 275.793 43.3734 275.843 43.4475C275.867 43.4835 275.888 43.521 275.907 43.5598C275.974 43.6949 276.013 43.8445 276.013 44.0002V54.0012C276.013 54.3584 275.822 54.6888 275.513 54.8674L245.713 72.0784V81.7434L265.812 70.135L265.932 70.0764C266.215 69.9595 266.54 69.9788 266.811 70.134L275.511 75.134L275.513 75.135C275.584 75.1762 275.648 75.2266 275.706 75.2825C275.742 75.3174 275.776 75.3541 275.807 75.3938C275.846 75.4454 275.879 75.5016 275.907 75.5598C275.974 75.6949 276.013 75.8445 276.013 76.0002V86.0012C276.013 86.3584 275.822 86.6888 275.513 86.8674L245.213 104.367L245.209 104.369C242.766 105.766 240.409 106.085 238.314 104.979L238.112 104.867C238.11 104.866 238.108 104.865 238.106 104.864L229.414 99.8684L229.413 99.8674C227.269 98.6302 226.312 96.3899 226.312 93.5012V39.5012C226.313 37.5539 226.745 35.561 227.584 33.5295C228.42 31.4393 229.536 29.5206 230.932 27.7766C232.322 25.972 233.846 24.5788 235.513 23.635L265.812 6.13501L265.932 6.07642Z" stroke="#29B8FF" stroke-width="2" stroke-linejoin="round"/>
</g>
<path d="M200.343 36.0012L184.743 45.0012M200.343 36.0012V105.001M200.343 36.0012L191.643 31.0012V100.001L200.343 105.001M184.743 45.0012V35.0012M184.743 45.0012L176.043 40.0012V30.0012M184.743 35.0012L224.543 12.0012M184.743 35.0012L176.043 30.0012M224.543 12.0012V22.0012L208.943 31.0012V100.001L200.343 105.001M224.543 12.0012L215.943 7.00122L176.043 30.0012" stroke="#29B8FF" stroke-linejoin="round"/>
<g filter="url(#filter12_f_281_155)">
<path d="M200.343 36.0012L184.743 45.0012M200.343 36.0012V105.001M200.343 36.0012L191.643 31.0012V100.001L200.343 105.001M184.743 45.0012V35.0012M184.743 45.0012L176.043 40.0012V30.0012M184.743 35.0012L224.543 12.0012M184.743 35.0012L176.043 30.0012M224.543 12.0012V22.0012L208.943 31.0012V100.001L200.343 105.001M224.543 12.0012L215.943 7.00122L176.043 30.0012" stroke="#29B8FF" stroke-width="2" stroke-linejoin="round"/>
</g>
<g filter="url(#filter13_g_281_155)">
<path d="M215.443 6.13501C215.754 5.95619 216.136 5.95703 216.445 6.13696L225.04 11.1331C225.041 11.1336 225.042 11.1344 225.043 11.135C225.083 11.158 225.121 11.1835 225.156 11.2112C225.248 11.2824 225.324 11.3698 225.385 11.4661C225.485 11.6238 225.543 11.8079 225.543 12.0012V22.0012C225.543 22.3585 225.352 22.6888 225.043 22.8674L209.943 31.5784V100.001C209.943 100.357 209.753 100.686 209.445 100.865L200.846 105.865L200.727 105.925C200.604 105.976 200.475 106 200.345 106C200.258 106 200.172 105.99 200.088 105.968C200.004 105.946 199.922 105.913 199.845 105.868L191.145 100.868C190.834 100.69 190.643 100.359 190.643 100.001V42.7522L185.243 45.8674C185.137 45.9288 185.021 45.9665 184.903 45.9856C184.85 45.9942 184.797 46.0002 184.743 46.0002C184.74 46.0002 184.737 46.0003 184.734 46.0002C184.668 45.9997 184.602 45.9915 184.537 45.9778C184.492 45.9683 184.448 45.9555 184.404 45.9397C184.35 45.9201 184.296 45.8977 184.245 45.8684L175.545 40.8684C175.235 40.69 175.043 40.3592 175.043 40.0012V30.0012C175.043 29.9568 175.046 29.9128 175.052 29.8694C175.069 29.7385 175.112 29.6135 175.177 29.5012C175.241 29.3893 175.327 29.2896 175.432 29.2092C175.467 29.1821 175.505 29.1576 175.544 29.135L175.546 29.134L215.443 6.13501Z" stroke="#29B8FF" stroke-width="2" stroke-linejoin="round"/>
</g>
<path d="M130.995 71.1441C132.729 72.1441 134.762 71.9774 137.095 70.6441L158.695 58.1441M130.995 71.1441C129.262 70.1441 128.395 68.3107 128.395 65.6441V41.6441C128.395 39.8441 128.795 37.9774 129.595 36.0441C130.395 34.0441 131.462 32.2107 132.795 30.5441C134.129 28.8107 135.562 27.5107 137.095 26.6441L158.695 14.1441M130.995 71.1441L122.295 66.1441C120.562 65.1441 119.695 63.3107 119.695 60.6441V36.6441C119.695 34.8441 120.095 32.9774 120.895 31.0441C121.695 29.0441 122.762 27.2107 124.095 25.5441C125.429 23.8107 126.862 22.5107 128.395 21.6441L149.995 9.14408C152.329 7.81074 154.362 7.64408 156.095 8.64408L164.795 13.6441C162.995 12.6441 160.962 12.8107 158.695 14.1441M158.695 14.1441C160.962 12.8107 162.962 12.6441 164.695 13.6441C166.495 14.6441 167.395 16.4774 167.395 19.1441V33.1441L158.695 38.1441M158.695 38.1441V24.1441M158.695 38.1441L149.995 33.1441V19.1441L158.695 24.1441M158.695 24.1441L137.095 36.6441V60.6441M137.095 60.6441L158.695 48.1441M137.095 60.6441L128.395 55.6441L149.995 43.1441C152.329 41.8107 154.362 41.6441 156.095 42.6441L164.795 47.6441C162.995 46.6441 160.962 46.8107 158.695 48.1441M158.695 48.1441C160.962 46.8107 162.962 46.6441 164.695 47.6441C166.495 48.6441 167.395 50.4774 167.395 53.1441V77.1441C167.395 78.8774 166.962 80.7441 166.095 82.7441C165.295 84.7441 164.229 86.6108 162.895 88.3441C161.629 90.0108 160.229 91.2774 158.695 92.1441L137.095 104.644C134.762 105.977 132.729 106.144 130.995 105.144M130.995 105.144C129.262 104.144 128.395 102.311 128.395 99.6441V89.6441M130.995 105.144L122.295 100.144C120.562 99.1441 119.695 97.3107 119.695 94.6441V84.6441M128.395 89.6441L137.095 84.6441M128.395 89.6441L137.095 94.6441M128.395 89.6441L149.995 77.1441M128.395 89.6441L119.695 84.6441M137.095 84.6441V94.6441M137.095 84.6441L128.395 79.6441L119.695 84.6441M137.095 94.6441L158.695 82.1441M158.695 82.1441V58.1441M158.695 82.1441L149.995 77.1441M158.695 58.1441L149.995 53.1441V77.1441" stroke="#29B8FF" stroke-linejoin="round"/>
<g filter="url(#filter14_f_281_155)">
<path d="M130.995 71.1441C132.729 72.1441 134.762 71.9774 137.095 70.6441L158.695 58.1441M130.995 71.1441C129.262 70.1441 128.395 68.3107 128.395 65.6441V41.6441C128.395 39.8441 128.795 37.9774 129.595 36.0441C130.395 34.0441 131.462 32.2107 132.795 30.5441C134.129 28.8107 135.562 27.5107 137.095 26.6441L158.695 14.1441M130.995 71.1441L122.295 66.1441C120.562 65.1441 119.695 63.3107 119.695 60.6441V36.6441C119.695 34.8441 120.095 32.9774 120.895 31.0441C121.695 29.0441 122.762 27.2107 124.095 25.5441C125.429 23.8107 126.862 22.5107 128.395 21.6441L149.995 9.14408C152.329 7.81074 154.362 7.64408 156.095 8.64408L164.795 13.6441C162.995 12.6441 160.962 12.8107 158.695 14.1441M158.695 14.1441C160.962 12.8107 162.962 12.6441 164.695 13.6441C166.495 14.6441 167.395 16.4774 167.395 19.1441V33.1441L158.695 38.1441M158.695 38.1441V24.1441M158.695 38.1441L149.995 33.1441V19.1441L158.695 24.1441M158.695 24.1441L137.095 36.6441V60.6441M137.095 60.6441L158.695 48.1441M137.095 60.6441L128.395 55.6441L149.995 43.1441C152.329 41.8107 154.362 41.6441 156.095 42.6441L164.795 47.6441C162.995 46.6441 160.962 46.8107 158.695 48.1441M158.695 48.1441C160.962 46.8107 162.962 46.6441 164.695 47.6441C166.495 48.6441 167.395 50.4774 167.395 53.1441V77.1441C167.395 78.8774 166.962 80.7441 166.095 82.7441C165.295 84.7441 164.229 86.6108 162.895 88.3441C161.629 90.0108 160.229 91.2774 158.695 92.1441L137.095 104.644C134.762 105.977 132.729 106.144 130.995 105.144M130.995 105.144C129.262 104.144 128.395 102.311 128.395 99.6441V89.6441M130.995 105.144L122.295 100.144C120.562 99.1441 119.695 97.3107 119.695 94.6441V84.6441M128.395 89.6441L137.095 84.6441M128.395 89.6441L137.095 94.6441M128.395 89.6441L149.995 77.1441M128.395 89.6441L119.695 84.6441M137.095 84.6441V94.6441M137.095 84.6441L128.395 79.6441L119.695 84.6441M137.095 94.6441L158.695 82.1441M158.695 82.1441V58.1441M158.695 82.1441L149.995 77.1441M158.695 58.1441L149.995 53.1441V77.1441" stroke="#29B8FF" stroke-width="2" stroke-linejoin="round"/>
</g>
<g filter="url(#filter15_g_281_155)">
<path d="M149.499 8.27563C152.02 6.83485 154.449 6.54148 156.593 7.77759L165.294 12.7766C165.396 12.8351 165.482 12.9099 165.555 12.9944C167.507 14.2618 168.395 16.4072 168.396 19.1438V33.1438C168.396 33.5018 168.204 33.8326 167.894 34.011L159.203 39.0051C159.201 39.0065 159.199 39.0086 159.196 39.01C159.041 39.0996 158.868 39.1428 158.695 39.1428C158.522 39.1428 158.349 39.0996 158.194 39.01C158.192 39.0085 158.189 39.0067 158.187 39.0051L149.497 34.011C149.187 33.8326 148.995 33.5018 148.995 33.1438V30.9124L138.096 37.22V48.8743L149.494 42.2786L149.499 42.2756C152.02 40.835 154.449 40.5408 156.593 41.7766L165.294 46.7766C165.396 46.8351 165.482 46.9099 165.555 46.9944C167.507 48.2617 168.395 50.4072 168.396 53.1438V77.1438C168.396 79.0443 167.92 81.0476 167.013 83.1418C166.18 85.2167 165.071 87.1524 163.69 88.9485L163.691 88.9495C162.36 90.7013 160.864 92.0643 159.195 93.009L137.596 105.51L137.592 105.512C135.07 106.953 132.64 107.247 130.495 106.01C130.493 106.009 130.491 106.007 130.489 106.006L121.797 101.011L121.796 101.01C119.651 99.7728 118.695 97.5325 118.695 94.6438V84.6438C118.695 84.5855 118.702 84.5282 118.712 84.4719C118.747 84.2692 118.843 84.0825 118.987 83.9377C119.049 83.8759 119.12 83.8213 119.197 83.7766L127.897 78.7766L128.016 78.719C128.299 78.6026 128.624 78.6216 128.894 78.7766L137.063 83.4719L148.995 76.5667V64.9124L137.596 71.51L137.592 71.512C135.07 72.9532 132.64 73.2473 130.495 72.01C130.493 72.0088 130.491 72.0073 130.489 72.0061L121.797 67.011L121.796 67.01C119.651 65.7728 118.695 63.5325 118.695 60.6438V36.6438C118.695 34.6932 119.13 32.6964 119.972 30.6614C120.755 28.7061 121.783 26.9006 123.056 25.2483L123.314 24.9192C124.707 23.1119 126.234 21.7175 127.903 20.7737L149.494 8.27856L149.499 8.27563Z" stroke="#29B8FF" stroke-width="2" stroke-linejoin="round"/>
</g>
<path d="M102.348 14.1441L80.7477 26.6441C79.2143 27.5107 77.781 28.8107 76.4477 30.5441C75.1143 32.2107 74.0477 34.0441 73.2477 36.0441C72.4477 37.9774 72.0477 39.8441 72.0477 41.6441V105.644M102.348 14.1441C104.614 12.8107 106.614 12.6441 108.348 13.6441C110.148 14.6441 111.048 16.4774 111.048 19.1441V83.1441L102.348 88.1441M102.348 14.1441C104.614 12.8107 106.648 12.6441 108.448 13.6441L99.7477 8.64408C98.0143 7.64408 95.981 7.81074 93.6477 9.14408L72.0477 21.6441C70.5143 22.5107 69.081 23.8107 67.7477 25.5441C66.4143 27.2107 65.3477 29.0441 64.5477 31.0441C63.7477 32.9774 63.3477 34.8441 63.3477 36.6441V100.644L72.0477 105.644M102.348 88.1441V68.1441M102.348 88.1441L93.6477 83.1441V63.1441L102.348 68.1441M102.348 68.1441L80.7477 80.6441V100.644L72.0477 105.644M102.348 58.1441V24.1441M102.348 58.1441L80.7477 70.6441M102.348 58.1441L93.6477 53.1441M102.348 24.1441L80.7477 36.6441V70.6441M102.348 24.1441L93.6477 19.1441V53.1441M80.7477 70.6441L72.0477 65.6441L93.6477 53.1441" stroke="#29B8FF" stroke-linejoin="round"/>
<g filter="url(#filter16_f_281_155)">
<path d="M102.348 14.1441L80.7477 26.6441C79.2143 27.5107 77.781 28.8107 76.4477 30.5441C75.1143 32.2107 74.0477 34.0441 73.2477 36.0441C72.4477 37.9774 72.0477 39.8441 72.0477 41.6441V105.644M102.348 14.1441C104.614 12.8107 106.614 12.6441 108.348 13.6441C110.148 14.6441 111.048 16.4774 111.048 19.1441V83.1441L102.348 88.1441M102.348 14.1441C104.614 12.8107 106.648 12.6441 108.448 13.6441L99.7477 8.64408C98.0143 7.64408 95.981 7.81074 93.6477 9.14408L72.0477 21.6441C70.5143 22.5107 69.081 23.8107 67.7477 25.5441C66.4143 27.2107 65.3477 29.0441 64.5477 31.0441C63.7477 32.9774 63.3477 34.8441 63.3477 36.6441V100.644L72.0477 105.644M102.348 88.1441V68.1441M102.348 88.1441L93.6477 83.1441V63.1441L102.348 68.1441M102.348 68.1441L80.7477 80.6441V100.644L72.0477 105.644M102.348 58.1441V24.1441M102.348 58.1441L80.7477 70.6441M102.348 58.1441L93.6477 53.1441M102.348 24.1441L80.7477 36.6441V70.6441M102.348 24.1441L93.6477 19.1441V53.1441M80.7477 70.6441L72.0477 65.6441L93.6477 53.1441" stroke="#29B8FF" stroke-width="2" stroke-linejoin="round"/>
</g>
<g filter="url(#filter17_g_281_155)">
<path d="M93.1514 8.27563C95.6727 6.83486 98.1009 6.54148 100.245 7.77759L108.946 12.7766C109.048 12.8351 109.135 12.9099 109.207 12.9944C111.159 14.2618 112.048 16.4072 112.048 19.1438V83.1438C112.048 83.5018 111.856 83.8326 111.546 84.011L102.855 89.0051C102.853 89.0065 102.851 89.0086 102.849 89.01C102.694 89.0996 102.521 89.1428 102.348 89.1428C102.175 89.1428 102.002 89.0996 101.847 89.01C101.844 89.0085 101.841 89.0067 101.839 89.0051L93.1494 84.011C92.8391 83.8326 92.6475 83.5018 92.6475 83.1438V74.9133L81.748 81.2209V100.644C81.748 101.002 81.5564 101.333 81.2461 101.511L72.5547 106.505C72.5525 106.506 72.551 106.509 72.5488 106.51C72.3937 106.6 72.2201 106.643 72.0469 106.643C71.8742 106.643 71.7015 106.599 71.5469 106.51C71.5443 106.509 71.5416 106.507 71.5391 106.505L62.8496 101.511C62.5392 101.333 62.3477 101.002 62.3477 100.644V36.6438C62.3477 34.6932 62.7819 32.6964 63.624 30.6614C64.4073 28.7061 65.4352 26.9006 66.708 25.2483L66.9668 24.9192C68.3595 23.1119 69.8859 21.7175 71.5557 20.7737L93.1465 8.27856L93.1514 8.27563ZM81.748 37.2209V58.8743L92.6475 52.5667V30.9133L81.748 37.2209Z" stroke="#29B8FF" stroke-width="2" stroke-linejoin="round"/>
</g>
<path d="M27 104.001C28.7333 105.001 30.7333 104.835 33 103.501L37.3 101.001C38.8333 100.135 40.2667 98.8679 41.6 97.2012C42.9333 95.4679 44 93.6012 44.8 91.6012C45.6 89.6012 46 87.7346 46 86.0012M27 104.001C25.2667 103.001 24.4 101.168 24.4 98.5012M27 104.001L18.3 99.0012M24.4 98.5012L46 86.0012M24.4 98.5012C22.0667 99.8346 20.0333 100.001 18.3 99.0012M24.4 98.5012V30.5012M24.4 98.5012L15.7 93.5012M46 86.0012V18.0012M46 86.0012C47.5333 85.1346 48.9333 83.8679 50.2 82.2012C51.5333 80.4679 52.6 78.6012 53.4 76.6012C54.2667 74.6012 54.7 72.7346 54.7 71.0012V13.0012M46 86.0012L37.3 81.0012M46 18.0012L54.7 13.0012M46 18.0012L37.3 13.0012M54.7 13.0012L46 8.00122L37.3 13.0012M18.3 99.0012C16.5667 98.0012 15.7 96.1679 15.7 93.5012M18.3 99.0012L9.6 94.0012C7.86667 93.0012 7 91.1679 7 88.5012V30.5012M15.7 93.5012V35.5012M15.7 93.5012L37.3 81.0012M15.7 35.5012L24.4 30.5012M15.7 35.5012L7 30.5012M24.4 30.5012L15.7 25.5012L7 30.5012M37.3 13.0012V81.0012" stroke="#29B8FF" stroke-linejoin="round"/>
<g filter="url(#filter18_f_281_155)">
<path d="M27 104.001C28.7333 105.001 30.7333 104.835 33 103.501L37.3 101.001C38.8333 100.135 40.2667 98.8679 41.6 97.2012C42.9333 95.4679 44 93.6012 44.8 91.6012C45.6 89.6012 46 87.7346 46 86.0012M27 104.001C25.2667 103.001 24.4 101.168 24.4 98.5012M27 104.001L18.3 99.0012M24.4 98.5012L46 86.0012M24.4 98.5012C22.0667 99.8346 20.0333 100.001 18.3 99.0012M24.4 98.5012V30.5012M24.4 98.5012L15.7 93.5012M46 86.0012V18.0012M46 86.0012C47.5333 85.1346 48.9333 83.8679 50.2 82.2012C51.5333 80.4679 52.6 78.6012 53.4 76.6012C54.2667 74.6012 54.7 72.7346 54.7 71.0012V13.0012M46 86.0012L37.3 81.0012M46 18.0012L54.7 13.0012M46 18.0012L37.3 13.0012M54.7 13.0012L46 8.00122L37.3 13.0012M18.3 99.0012C16.5667 98.0012 15.7 96.1679 15.7 93.5012M18.3 99.0012L9.6 94.0012C7.86667 93.0012 7 91.1679 7 88.5012V30.5012M15.7 93.5012V35.5012M15.7 93.5012L37.3 81.0012M15.7 35.5012L24.4 30.5012M15.7 35.5012L7 30.5012M24.4 30.5012L15.7 25.5012L7 30.5012M37.3 13.0012V81.0012" stroke="#29B8FF" stroke-width="2" stroke-linejoin="round"/>
</g>
<g filter="url(#filter19_g_281_155)">
<path d="M45.6201 7.07642C45.9037 6.95989 46.228 6.97894 46.498 7.13403L55.1982 12.134L55.2002 12.135C55.374 12.2356 55.5088 12.3857 55.5947 12.5598C55.6424 12.6564 55.6769 12.7598 55.6914 12.8684C55.6973 12.9121 55.7002 12.9565 55.7002 13.0012V71.0012C55.7002 72.9017 55.2249 74.905 54.3174 76.9993C53.4847 79.0738 52.3759 81.009 50.9951 82.8049L50.9961 82.8059C49.7952 84.386 48.4597 85.6494 46.9854 86.5754C46.9067 88.2916 46.4804 90.0933 45.7285 91.9729C44.8939 94.0594 43.781 96.0058 42.3926 97.8108C42.3887 97.8158 42.3848 97.8215 42.3809 97.8264C40.9873 99.5684 39.4628 100.924 37.8018 101.865L37.8027 101.865L33.5059 104.363L33.5068 104.364C31.119 105.768 28.7937 106.084 26.7021 104.979L26.5 104.867C26.498 104.866 26.4962 104.865 26.4941 104.864L17.8018 99.8684L17.7998 99.8674C17.7942 99.8642 17.7888 99.8609 17.7832 99.8577L9.10156 94.8684L9.10059 94.8674C6.95602 93.6302 6 91.3899 6 88.5012V30.5012C6 30.4564 6.00294 30.4121 6.00879 30.3684C6.03567 30.1676 6.12404 29.9819 6.25781 29.8333C6.28657 29.8013 6.31766 29.7716 6.35059 29.7434C6.36351 29.7323 6.37514 29.7197 6.38867 29.7092L6.49902 29.636C6.49995 29.6354 6.50102 29.6346 6.50195 29.634L15.2021 24.634L15.3203 24.5764C15.6039 24.4599 15.9282 24.4789 16.1982 24.634L24.8984 29.634C24.9244 29.649 24.9484 29.6668 24.9727 29.6838C25.1119 29.7813 25.2214 29.9108 25.2949 30.0598C25.3425 30.1564 25.3771 30.2598 25.3916 30.3684C25.3974 30.4121 25.4004 30.4565 25.4004 30.5012V86.7317L36.2998 80.4241V13.0012C36.2998 12.8452 36.3376 12.6951 36.4043 12.5598C36.4901 12.3856 36.6251 12.2366 36.7988 12.136C36.7997 12.1355 36.8009 12.1345 36.8018 12.134L45.502 7.13403L45.6201 7.07642Z" stroke="#29B8FF" stroke-width="2" stroke-linejoin="round"/>
</g>
<defs>
<filter id="filter0_f_281_155" x="505.809" y="2.00073" width="57.7002" height="107.787" filterUnits="userSpaceOnUse" color-interpolation-filters="sRGB">
<feFlood flood-opacity="0" result="BackgroundImageFix"/>
<feBlend mode="normal" in="SourceGraphic" in2="BackgroundImageFix" result="shape"/>
<feGaussianBlur stdDeviation="2" result="effect1_foregroundBlur_281_155"/>
</filter>
<filter id="filter1_g_281_155" x="503.809" y="0" width="61.7002" height="111.788" filterUnits="userSpaceOnUse" color-interpolation-filters="sRGB">
<feFlood flood-opacity="0" result="BackgroundImageFix"/>
<feBlend mode="normal" in="SourceGraphic" in2="BackgroundImageFix" result="shape"/>
<feTurbulence type="fractalNoise" baseFrequency="10 10" numOctaves="3" seed="3429" />
<feDisplacementMap in="shape" scale="10" xChannelSelector="R" yChannelSelector="G" result="displacedImage" width="100%" height="100%" />
<feMerge result="effect1_texture_281_155">
<feMergeNode in="displacedImage"/>
</feMerge>
</filter>
<filter id="filter2_f_281_155" x="448.582" y="2.00073" width="58.5" height="108.143" filterUnits="userSpaceOnUse" color-interpolation-filters="sRGB">
<feFlood flood-opacity="0" result="BackgroundImageFix"/>
<feBlend mode="normal" in="SourceGraphic" in2="BackgroundImageFix" result="shape"/>
<feGaussianBlur stdDeviation="2" result="effect1_foregroundBlur_281_155"/>
</filter>
<filter id="filter3_g_281_155" x="446.582" y="0.000244141" width="62.5" height="112.144" filterUnits="userSpaceOnUse" color-interpolation-filters="sRGB">
<feFlood flood-opacity="0" result="BackgroundImageFix"/>
<feBlend mode="normal" in="SourceGraphic" in2="BackgroundImageFix" result="shape"/>
<feTurbulence type="fractalNoise" baseFrequency="10 10" numOctaves="3" seed="3429" />
<feDisplacementMap in="shape" scale="10" xChannelSelector="R" yChannelSelector="G" result="displacedImage" width="100%" height="100%" />
<feMerge result="effect1_texture_281_155">
<feMergeNode in="displacedImage"/>
</feMerge>
</filter>
<filter id="filter4_f_281_155" x="391.355" y="2.00122" width="58.5" height="108" filterUnits="userSpaceOnUse" color-interpolation-filters="sRGB">
<feFlood flood-opacity="0" result="BackgroundImageFix"/>
<feBlend mode="normal" in="SourceGraphic" in2="BackgroundImageFix" result="shape"/>
<feGaussianBlur stdDeviation="2" result="effect1_foregroundBlur_281_155"/>
</filter>
<filter id="filter5_g_281_155" x="389.355" y="0.0012207" width="62.5" height="112" filterUnits="userSpaceOnUse" color-interpolation-filters="sRGB">
<feFlood flood-opacity="0" result="BackgroundImageFix"/>
<feBlend mode="normal" in="SourceGraphic" in2="BackgroundImageFix" result="shape"/>
<feTurbulence type="fractalNoise" baseFrequency="10 10" numOctaves="3" seed="3429" />
<feDisplacementMap in="shape" scale="10" xChannelSelector="R" yChannelSelector="G" result="displacedImage" width="100%" height="100%" />
<feMerge result="effect1_texture_281_155">
<feMergeNode in="displacedImage"/>
</feMerge>
</filter>
<filter id="filter6_f_281_155" x="335.008" y="2.00073" width="57.7" height="107.787" filterUnits="userSpaceOnUse" color-interpolation-filters="sRGB">
<feFlood flood-opacity="0" result="BackgroundImageFix"/>
<feBlend mode="normal" in="SourceGraphic" in2="BackgroundImageFix" result="shape"/>
<feGaussianBlur stdDeviation="2" result="effect1_foregroundBlur_281_155"/>
</filter>
<filter id="filter7_g_281_155" x="333.008" y="0" width="61.7" height="111.788" filterUnits="userSpaceOnUse" color-interpolation-filters="sRGB">
<feFlood flood-opacity="0" result="BackgroundImageFix"/>
<feBlend mode="normal" in="SourceGraphic" in2="BackgroundImageFix" result="shape"/>
<feTurbulence type="fractalNoise" baseFrequency="10 10" numOctaves="3" seed="3429" />
<feDisplacementMap in="shape" scale="10" xChannelSelector="R" yChannelSelector="G" result="displacedImage" width="100%" height="100%" />
<feMerge result="effect1_texture_281_155">
<feMergeNode in="displacedImage"/>
</feMerge>
</filter>
<filter id="filter8_f_281_155" x="278.66" y="2.00073" width="57.7" height="107.643" filterUnits="userSpaceOnUse" color-interpolation-filters="sRGB">
<feFlood flood-opacity="0" result="BackgroundImageFix"/>
<feBlend mode="normal" in="SourceGraphic" in2="BackgroundImageFix" result="shape"/>
<feGaussianBlur stdDeviation="2" result="effect1_foregroundBlur_281_155"/>
</filter>
<filter id="filter9_g_281_155" x="276.66" y="0" width="61.7" height="111.644" filterUnits="userSpaceOnUse" color-interpolation-filters="sRGB">
<feFlood flood-opacity="0" result="BackgroundImageFix"/>
<feBlend mode="normal" in="SourceGraphic" in2="BackgroundImageFix" result="shape"/>
<feTurbulence type="fractalNoise" baseFrequency="10 10" numOctaves="3" seed="3429" />
<feDisplacementMap in="shape" scale="10" xChannelSelector="R" yChannelSelector="G" result="displacedImage" width="100%" height="100%" />
<feMerge result="effect1_texture_281_155">
<feMergeNode in="displacedImage"/>
</feMerge>
</filter>
<filter id="filter10_f_281_155" x="222.312" y="2.00122" width="57.7" height="107.644" filterUnits="userSpaceOnUse" color-interpolation-filters="sRGB">
<feFlood flood-opacity="0" result="BackgroundImageFix"/>
<feBlend mode="normal" in="SourceGraphic" in2="BackgroundImageFix" result="shape"/>
<feGaussianBlur stdDeviation="2" result="effect1_foregroundBlur_281_155"/>
</filter>
<filter id="filter11_g_281_155" x="220.312" y="0.0012207" width="61.7" height="111.644" filterUnits="userSpaceOnUse" color-interpolation-filters="sRGB">
<feFlood flood-opacity="0" result="BackgroundImageFix"/>
<feBlend mode="normal" in="SourceGraphic" in2="BackgroundImageFix" result="shape"/>
<feTurbulence type="fractalNoise" baseFrequency="10 10" numOctaves="3" seed="3429" />
<feDisplacementMap in="shape" scale="10" xChannelSelector="R" yChannelSelector="G" result="displacedImage" width="100%" height="100%" />
<feMerge result="effect1_texture_281_155">
<feMergeNode in="displacedImage"/>
</feMerge>
</filter>
<filter id="filter12_f_281_155" x="171.043" y="2.00122" width="58.5" height="108" filterUnits="userSpaceOnUse" color-interpolation-filters="sRGB">
<feFlood flood-opacity="0" result="BackgroundImageFix"/>
<feBlend mode="normal" in="SourceGraphic" in2="BackgroundImageFix" result="shape"/>
<feGaussianBlur stdDeviation="2" result="effect1_foregroundBlur_281_155"/>
</filter>
<filter id="filter13_g_281_155" x="169.043" y="0.0012207" width="62.5" height="112" filterUnits="userSpaceOnUse" color-interpolation-filters="sRGB">
<feFlood flood-opacity="0" result="BackgroundImageFix"/>
<feBlend mode="normal" in="SourceGraphic" in2="BackgroundImageFix" result="shape"/>
<feTurbulence type="fractalNoise" baseFrequency="10 10" numOctaves="3" seed="3429" />
<feDisplacementMap in="shape" scale="10" xChannelSelector="R" yChannelSelector="G" result="displacedImage" width="100%" height="100%" />
<feMerge result="effect1_texture_281_155">
<feMergeNode in="displacedImage"/>
</feMerge>
</filter>
<filter id="filter14_f_281_155" x="114.695" y="3.00073" width="57.7" height="107.787" filterUnits="userSpaceOnUse" color-interpolation-filters="sRGB">
<feFlood flood-opacity="0" result="BackgroundImageFix"/>
<feBlend mode="normal" in="SourceGraphic" in2="BackgroundImageFix" result="shape"/>
<feGaussianBlur stdDeviation="2" result="effect1_foregroundBlur_281_155"/>
</filter>
<filter id="filter15_g_281_155" x="112.695" y="1" width="61.7" height="111.788" filterUnits="userSpaceOnUse" color-interpolation-filters="sRGB">
<feFlood flood-opacity="0" result="BackgroundImageFix"/>
<feBlend mode="normal" in="SourceGraphic" in2="BackgroundImageFix" result="shape"/>
<feTurbulence type="fractalNoise" baseFrequency="10 10" numOctaves="3" seed="3429" />
<feDisplacementMap in="shape" scale="10" xChannelSelector="R" yChannelSelector="G" result="displacedImage" width="100%" height="100%" />
<feMerge result="effect1_texture_281_155">
<feMergeNode in="displacedImage"/>
</feMerge>
</filter>
<filter id="filter16_f_281_155" x="58.3477" y="3.00073" width="57.7" height="107.643" filterUnits="userSpaceOnUse" color-interpolation-filters="sRGB">
<feFlood flood-opacity="0" result="BackgroundImageFix"/>
<feBlend mode="normal" in="SourceGraphic" in2="BackgroundImageFix" result="shape"/>
<feGaussianBlur stdDeviation="2" result="effect1_foregroundBlur_281_155"/>
</filter>
<filter id="filter17_g_281_155" x="56.3477" y="1" width="61.7" height="111.644" filterUnits="userSpaceOnUse" color-interpolation-filters="sRGB">
<feFlood flood-opacity="0" result="BackgroundImageFix"/>
<feBlend mode="normal" in="SourceGraphic" in2="BackgroundImageFix" result="shape"/>
<feTurbulence type="fractalNoise" baseFrequency="10 10" numOctaves="3" seed="3429" />
<feDisplacementMap in="shape" scale="10" xChannelSelector="R" yChannelSelector="G" result="displacedImage" width="100%" height="100%" />
<feMerge result="effect1_texture_281_155">
<feMergeNode in="displacedImage"/>
</feMerge>
</filter>
<filter id="filter18_f_281_155" x="2" y="3.00122" width="57.7" height="106.644" filterUnits="userSpaceOnUse" color-interpolation-filters="sRGB">
<feFlood flood-opacity="0" result="BackgroundImageFix"/>
<feBlend mode="normal" in="SourceGraphic" in2="BackgroundImageFix" result="shape"/>
<feGaussianBlur stdDeviation="2" result="effect1_foregroundBlur_281_155"/>
</filter>
<filter id="filter19_g_281_155" x="0" y="1.00122" width="61.7" height="110.644" filterUnits="userSpaceOnUse" color-interpolation-filters="sRGB">
<feFlood flood-opacity="0" result="BackgroundImageFix"/>
<feBlend mode="normal" in="SourceGraphic" in2="BackgroundImageFix" result="shape"/>
<feTurbulence type="fractalNoise" baseFrequency="10 10" numOctaves="3" seed="3429" />
<feDisplacementMap in="shape" scale="10" xChannelSelector="R" yChannelSelector="G" result="displacedImage" width="100%" height="100%" />
<feMerge result="effect1_texture_281_155">
<feMergeNode in="displacedImage"/>
</feMerge>
</filter>
</defs>
</svg>
