<svg viewBox="0 0 563.51 110.31" fill="none" xmlns="http://www.w3.org/2000/svg" preserveAspectRatio="xMidYMid meet" width="563.51" height="110.31">
  <!-- Basado directamente en el screenshot de Figma node 281-155 -->
  <defs>
    <filter id="glow">
      <feGaussianBlur stdDeviation="3" result="coloredBlur"/>
      <feMerge>
        <feMergeNode in="coloredBlur"/>
        <feMergeNode in="SourceGraphic"/>
      </feMerge>
    </filter>
  </defs>
  <g filter="url(#glow)" stroke="#29B8FF" fill="none" stroke-width="1" stroke-linejoin="round">
    <!-- V -->
    <path d="M7.55 8.64l8.7 5v68l-8.7 5v-78zm21.7-5l-8.7 5v68l8.7 5v-78zm0 0l8.7-5v68l-8.7 5v-78z"/>
    <path d="M38.95 3.64v68m-21.7-10l21.7-12.5m-21.7-10l21.7-12.5"/>
    <path d="M7.55 31.64l8.7-5 21.7 12.5-21.7 12.5-8.7-5v-15z"/>
    <!-- A -->
    <path d="M62.59 15.79l21.6-12.5 8.7 5-8.7 5-21.6 12.5v68m0-68l-8.7 5v68l8.7 5v-78z"/>
    <path d="M84.19 8.29l8.7-5v64l-8.7 5v-64zm0 0l-21.6 12.5v34m21.6-46.5l-21.6 12.5m0 0l-8.7-5 8.7 5z"/>
    <path d="M62.59 49.29l21.6-12.5 8.7 5-21.6 12.5m-8.7 5l21.6-12.5"/>
    <!-- S -->
    <path d="M117.12 15.79l21.6-12.5 8.7 5-21.6 12.5-8.7-5zm30.3-7.5v14l-8.7 5-21.6-12.5v-6l8.7-5 21.6 12.5z"/>
    <path d="M108.42 25.79l21.6-12.5v24l-21.6 12.5-8.7-5v-14l8.7-5zm8.7 5v14"/>
    <path d="M117.12 49.79l21.6-12.5 8.7 5-21.6 12.5-8.7-5zm30.3-7.5v14l-8.7 5-21.6-12.5v-6l8.7-5 21.6 12.5z"/>
    <path d="M108.42 59.79l21.6-12.5v24l-21.6 12.5-8.7-5v-14l8.7-5z"/>
    <!-- T -->
    <path d="M172.06 15.79l21.6-12.5 8.7 5-8.7 5-21.6 12.5v68m0-68l-8.7 5v68l8.7 5v-78z"/>
    <path d="M193.66 8.29l8.7-5v64l-8.7 5v-64zm0 0l-21.6 12.5m21.6-12.5l-21.6 12.5"/>
    <path d="M172.06 49.29l21.6-12.5 8.7 5-21.6 12.5m-8.7 5l21.6-12.5"/>
    <!-- E -->
    <path d="M226.59 15.79l38.3-22.15v10l-38.3 22.15v22l38.3-22.15v10l-38.3 22.15v22l38.3-22.15v10l-38.3 22.15-8.7-5v-54l8.7-5z"/>
    <path d="M217.89 20.79l38.3-22.15m-38.3 22.15l38.3-22.15m-38.3 44.3l38.3-22.15"/>
    <!-- R -->
    <path d="M281.11 15.79l21.6-12.5 8.7 5-21.6 12.5-8.7-5zm30.3-7.5v24l-8.7 5-21.6-12.5v-14l8.7-5 21.6 12.5z"/>
    <path d="M272.41 8.29l8.7-5v74l-8.7 5v-74zm8.7 57.5l21.6-12.5 8.7 5-21.6 12.5m-8.7 5v-10l21.6-12.5"/>
    <!-- O -->
    <path d="M336.07 27.94l21.6-12.5 8.7 5v42l-8.7 5-21.6-12.5v-27zm30.3 34.5v-42m-30.3 7.5v27"/>
    <path d="M327.37 32.94l8.7-5v47l-8.7 5v-47zm0-5l21.6-12.5 8.7 5-21.6 12.5-8.7-5z"/>
    <path d="M336.07 74.94l21.6 12.5 8.7-5-21.6-12.5-8.7 5z"/>
    <!-- I -->
    <path d="M390.62 15.79l21.6-12.5 8.7 5-8.7 5-21.6 12.5v68m0-68l-8.7 5v68l8.7 5v-78z"/>
    <path d="M412.22 8.29l8.7-5v64l-8.7 5v-64zm0 0l-21.6 12.5m21.6-12.5l-21.6 12.5"/>
    <path d="M390.62 49.29l21.6-12.5 8.7 5-21.6 12.5m-8.7 5l21.6-12.5"/>
    <!-- D -->
    <path d="M445.16 5.79l21.6-12.5 8.7 5v87l-8.7 5-21.6-12.5v-72zm30.3 79.5v-87"/>
    <path d="M436.46 10.79l8.7-5v92l-8.7 5v-92zm0-5l21.6-12.5m-21.6 107l21.6 12.5"/>
    <!-- S -->
    <path d="M499.89 15.79l21.6-12.5 8.7 5-21.6 12.5-8.7-5zm30.3-7.5v14l-8.7 5-21.6-12.5v-6l8.7-5 21.6 12.5z"/>
    <path d="M491.19 25.79l21.6-12.5v24l-21.6 12.5-8.7-5v-14l8.7-5zm8.7 5v14"/>
    <path d="M499.89 49.79l21.6-12.5 8.7 5-21.6 12.5-8.7-5zm30.3-7.5v14l-8.7 5-21.6-12.5v-6l8.7-5 21.6 12.5z"/>
    <path d="M491.19 59.79l21.6-12.5v24l-21.6 12.5-8.7-5v-14l8.7-5z"/>
  </g>
</svg>