<svg preserveAspectRatio="none" width="100%" height="100%" overflow="visible" style="display: block;" viewBox="0 0 242.201 60" fill="none" xmlns="http://www.w3.org/2000/svg">
<g id="VAST_Logo">
<path id="Logo_T" d="M216.923 15.0859C215.829 15.0275 214.741 15.8656 214.613 16.9667C214.548 17.7959 214.566 18.6274 214.591 19.4588C214.584 20.3397 215.18 21.1487 215.957 21.5262C216.548 21.7711 217.2 21.7644 217.831 21.7666C220.209 21.7509 222.588 21.7599 224.968 21.7554C224.977 28.4022 224.973 35.0467 224.968 41.6935V41.6943C224.984 42.6112 224.881 43.5707 225.215 44.4471C225.561 45.119 226.242 45.6965 227.038 45.6628C228.051 45.6695 229.078 45.7504 230.085 45.5931C230.93 45.2673 231.685 44.4493 231.674 43.501C231.728 36.2517 231.597 28.9957 231.737 21.7487C234.217 21.7689 236.701 21.7509 239.181 21.7644C239.975 21.7756 240.869 21.6633 241.424 21.0251C242.393 20.0071 242.211 18.4813 242.141 17.196C242.051 16.0477 241.026 15.0612 239.862 15.0904C232.215 15.0791 224.568 15.0881 216.923 15.0859Z" fill="var(--fill-0, white)"/>
<path id="Logo_S" d="M185.248 15.0858C183.933 15.0948 182.599 14.9937 181.316 15.3375C178.444 16.0207 175.686 17.9622 174.736 20.8543C173.925 23.3351 174.221 26.1957 175.61 28.4226C177.064 30.7192 179.511 32.2922 182.136 32.9102C184.392 33.4136 186.623 34.0203 188.888 34.4899C189.693 34.6517 190.569 34.9551 191.005 35.7079C191.529 36.6292 191.468 38.0157 190.549 38.6696C189.929 39.1235 189.122 39.0853 188.394 39.0876C184.198 39.0741 180.004 39.0786 175.81 39.0831L175.806 39.0831C174.824 39.0067 173.878 39.7011 173.621 40.6404C173.41 41.501 173.464 42.3976 173.455 43.2763C173.376 44.5324 174.507 45.7818 175.797 45.6695C180.145 45.6875 184.493 45.6672 188.841 45.6807C192.729 45.9594 196.679 43.283 197.673 39.4808C198.311 37.0247 198.057 34.2517 196.648 32.1012C195.304 30.0001 193.025 28.6137 190.623 28.0676C188.556 27.589 186.491 27.1148 184.432 26.6092C183.477 26.3845 182.435 26.1822 181.731 25.4384C181.048 24.825 180.844 23.807 181.113 22.9486C181.518 22.0879 182.536 21.7194 183.439 21.7576C187.187 21.7554 190.936 21.7576 194.686 21.7576C195.718 21.7351 196.769 21.8497 197.785 21.616C198.751 21.3913 199.383 20.4183 199.394 19.4543C199.45 18.2835 199.747 16.8858 198.884 15.924C198.367 15.2746 197.513 15.0409 196.713 15.0836C192.893 15.0858 189.075 15.0858 185.254 15.0858H185.248Z" fill="var(--fill-0, white)"/>
<path id="Logo_A" d="M146.523 17.0477C145.781 15.3601 143.554 14.5556 141.927 15.45C140.658 16.0117 140.21 17.4095 139.644 18.5577C135.968 26.3935 132.316 34.2428 128.579 42.0472C128.343 42.7887 128.415 43.6853 128.948 44.2898C129.444 44.8875 130.199 45.1572 130.874 45.5033C131.597 45.8313 132.393 46.3257 133.213 46.0246C134.199 45.7235 134.682 44.7415 135.098 43.8831C137.9 37.9866 140.676 32.0811 143.451 26.1733C146.181 32.0541 148.974 37.9034 151.729 43.7707C152.206 44.8246 152.92 46.092 154.235 46.119C155.314 45.9909 156.26 45.3549 157.224 44.8898C158.237 44.3774 158.707 43.1078 158.32 42.0494C154.325 33.7462 150.469 25.3733 146.523 17.0477Z" fill="var(--fill-0, white)"/>
<path id="Logo_V" d="M86.8657 15.196C86.0702 15.4949 85.3107 15.8814 84.5601 16.2791C83.5849 16.7623 83.0006 18.0274 83.4388 19.0566C87.405 27.4429 91.333 35.8495 95.3015 44.2358C96.0655 45.7751 98.1284 46.6088 99.6969 45.7909C100.989 45.283 101.495 43.9078 102.036 42.7482C105.766 34.8765 109.445 26.9778 113.171 19.106C113.438 18.36 113.328 17.4521 112.789 16.8499C112.285 16.2499 111.521 15.9892 110.84 15.6499C110.099 15.3128 109.261 14.8589 108.438 15.2072C107.382 15.5466 106.98 16.6746 106.517 17.569C104.58 21.6341 102.688 25.7216 100.764 29.7912C99.9373 31.4855 99.234 33.2428 98.3014 34.881C95.852 29.8968 93.5757 24.825 91.178 19.8139C90.5667 18.56 90.0611 17.2454 89.3016 16.0724C88.796 15.2949 87.7556 14.8634 86.8657 15.196Z" fill="var(--fill-0, white)"/>
<g id="Vast_Icon">
<path d="M0.00227384 4.39386C-0.0673876 2.36918 1.47191 0.375966 3.47187 0.0119289C9.15939 -0.0127897 14.8492 0.00968326 20.5367 0.00294183C21.9434 -0.0464954 23.231 1.18494 23.2917 2.58266C23.3366 3.71298 23.3231 4.84554 23.3029 5.97585C23.3119 7.31964 22.1389 8.614 20.7614 8.56007C17.7997 8.58928 14.8334 8.50614 11.8694 8.59827C12.2919 9.54432 12.8717 10.4005 13.4222 11.2746C16.939 17.1194 20.4445 22.9755 23.9703 28.8158C24.5051 29.5821 24.7119 30.5574 24.4557 31.4652C24.1209 32.5573 22.9861 33.0315 22.1187 33.6202C21.2041 34.1573 20.3367 35.0224 19.1906 34.8876C18.2019 34.9191 17.4154 34.1775 16.9592 33.3685C11.6739 24.7125 6.44933 16.0206 1.13259 7.38481C0.555071 6.48371 -0.00222045 5.49721 0.00227384 4.39386ZM46.8552 27.3507C47.4058 26.4339 47.9316 25.2878 49.0777 25.0249C50.2934 24.6631 51.3585 25.4811 52.3473 26.0608C53.2416 26.6159 54.3337 27.0878 54.7517 28.1327C55.0775 29.2787 54.7989 30.5192 54.1764 31.5147C49.1361 39.8875 44.116 48.2761 39.0756 56.649C38.4082 57.7276 37.8509 59.0107 36.6554 59.6107C34.9072 60.5545 32.6083 59.6804 31.5679 58.0826C28.777 53.3839 25.9927 48.6761 23.1906 43.9818C22.7456 43.2874 22.7187 42.3886 22.9591 41.6201C23.2962 40.7931 24.1209 40.3504 24.8624 39.9459C25.6939 39.501 26.4871 38.9842 27.3523 38.6044C28.4534 38.119 29.8264 38.6269 30.4398 39.6403C31.9589 42.0964 33.3566 44.629 34.9251 47.0581C35.2667 46.5818 35.5993 46.1009 35.8914 45.593C39.5138 39.4943 43.2014 33.4315 46.8552 27.3507Z" fill="white"/>
<path d="M30.3144 2.41428C30.6155 0.85701 32.3503 0.146913 33.7885 0.19635C44.4961 0.18062 55.2038 0.176125 65.9114 0.178373C68.8102 0.106464 70.817 3.79403 69.3698 6.24117C66.6575 10.7332 63.9362 15.2163 61.2531 19.724C60.8441 20.4971 60.2441 21.2476 59.3385 21.4274C58.4756 21.7465 57.6172 21.2431 56.8869 20.8251C56.0869 20.3465 55.2555 19.9195 54.4667 19.4229C53.4465 18.7712 52.9611 17.3331 53.5297 16.2342C54.9409 13.632 56.6622 11.2006 58.0397 8.58045C49.5792 8.55348 41.1187 8.5782 32.6604 8.56022C31.3234 8.58494 30.1841 7.29733 30.2605 5.98275C30.2807 4.79401 30.1863 3.59628 30.3144 2.41428Z" fill="var(--fill-0, #29B8FF)"/>
</g>
</g>
</svg>
