<svg preserveAspectRatio="none" width="100%" height="100%" overflow="visible" style="display: block;" viewBox="0 0 91.9271 89.1644" fill="none" xmlns="http://www.w3.org/2000/svg">
<g id="Blur" filter="url(#filter0_f_2008_85)">
<path id="E" d="M10 44.0711V27.8657H21.6265V30.737H13.3498V34.4893H21.0066V37.2844H13.3498V41.1998H21.6265V44.0711H10Z" fill="var(--fill-0, #1FD9FE)"/>
<path id="4" d="M26.4735 33.619V31.0305L33.6082 20.9049H35.7073V24.1024H34.5436L29.7037 30.9978V31.0196H39.8293V33.619H26.4735ZM34.5653 37.1102V20.9049H37.7085V37.1102H34.5653Z" fill="var(--fill-0, #1FD9FE)"/>
<path id="Q" d="M31.7514 73.8275H33.8982L35.0377 75.3068L36.0533 76.5102L38.1506 79.1428H35.8386L34.4597 77.371L33.667 76.3849L31.7514 73.8275ZM32.734 78.3071C31.633 78.3071 30.6449 78.048 29.7697 77.5298C28.8944 77.0061 28.2036 76.2651 27.6972 75.3068C27.1907 74.3429 26.9375 73.2035 26.9375 71.8886C26.9375 70.5626 27.1907 69.4204 27.6972 68.4621C28.2036 67.4982 28.8944 66.7572 29.7697 66.239C30.6449 65.7153 31.633 65.4535 32.734 65.4535C33.8404 65.4535 34.8312 65.7153 35.7065 66.239C36.5817 66.7572 37.2726 67.4982 37.779 68.4621C38.2854 69.4204 38.5387 70.5626 38.5387 71.8886C38.5387 73.2091 38.2854 74.3485 37.779 75.3068C37.2726 76.2651 36.5817 77.0061 35.7065 77.5298C34.8312 78.048 33.8404 78.3071 32.734 78.3071ZM32.734 76.0339C33.367 76.0339 33.9285 75.8723 34.4184 75.5491C34.9083 75.226 35.2909 74.7552 35.5661 74.1367C35.8414 73.5183 35.979 72.7689 35.979 71.8886C35.979 71.0027 35.8414 70.2506 35.5661 69.6321C35.2909 69.0081 34.9083 68.5345 34.4184 68.2114C33.9285 67.8882 33.367 67.7267 32.734 67.7267C32.1064 67.7267 31.5477 67.8882 31.0578 68.2114C30.5734 68.5345 30.1908 69.0081 29.9101 69.6321C29.6348 70.2506 29.4972 71.0027 29.4972 71.8886C29.4972 72.7689 29.6348 73.5183 29.9101 74.1367C30.1908 74.7552 30.5734 75.226 31.0578 75.5491C31.5477 75.8723 32.1064 76.0339 32.734 76.0339Z" fill="var(--fill-0, #1FD9FE)"/>
<path id="8" d="M42.8138 67.0775C40.8166 67.0775 39.0571 66.763 37.5355 66.134C36.0257 65.4932 34.8488 64.6031 34.0047 63.4638C33.1607 62.3245 32.7386 61.0131 32.7386 59.5297C32.7386 58.3192 33.0061 57.2451 33.5411 56.3076C34.076 55.3701 34.825 54.5987 35.7879 53.9934C36.7627 53.3882 37.8862 53.0084 39.1582 52.8541V52.8719C37.482 52.6108 36.1386 51.9581 35.1281 50.9138C34.1295 49.8575 33.6302 48.5165 33.6302 46.8906C33.6302 45.4902 34.0166 44.2501 34.7893 43.1701C35.5739 42.0783 36.6558 41.2298 38.0348 40.6245C39.4257 40.0074 41.0187 39.6988 42.8138 39.6988C44.6445 39.6988 46.2494 40.0015 47.6284 40.6067C49.0075 41.212 50.0833 42.0546 50.8561 43.1345C51.6288 44.2145 52.0151 45.4665 52.0151 46.8906C52.0151 48.5046 51.5158 49.8397 50.5173 50.896C49.5187 51.9403 48.1812 52.599 46.505 52.8719V52.8541C47.777 53.0084 48.8945 53.3882 49.8575 53.9934C50.8204 54.5987 51.5693 55.376 52.1043 56.3254C52.6512 57.263 52.9246 58.331 52.9246 59.5297C52.9246 61.0131 52.4966 62.3245 51.6407 63.4638C50.7966 64.6031 49.6138 65.4932 48.0921 66.134C46.5823 66.763 44.8229 67.0775 42.8138 67.0775ZM42.8138 63.09C43.7292 63.09 44.5316 62.9298 45.2211 62.6093C45.9106 62.277 46.4456 61.8142 46.826 61.2208C47.2183 60.6156 47.4145 59.9272 47.4145 59.1558C47.4145 58.3488 47.2183 57.6427 46.826 57.0375C46.4337 56.4203 45.8928 55.9397 45.2033 55.5955C44.5138 55.2395 43.7173 55.0615 42.8138 55.0615C41.9222 55.0615 41.1316 55.2395 40.4421 55.5955C39.7526 55.9397 39.2117 56.4203 38.8194 57.0375C38.4271 57.6427 38.2309 58.3488 38.2309 59.1558C38.2309 59.9391 38.4211 60.6274 38.8015 61.2208C39.1939 61.8142 39.7348 62.277 40.4243 62.6093C41.1138 62.9298 41.9103 63.09 42.8138 63.09ZM42.8138 51.0028C43.6103 51.0028 44.3057 50.8544 44.9001 50.5577C45.4945 50.261 45.9522 49.8397 46.2732 49.2938C46.6061 48.736 46.7725 48.0952 46.7725 47.3713C46.7725 46.6473 46.6061 46.0184 46.2732 45.4843C45.9522 44.9384 45.4945 44.5171 44.9001 44.2204C44.3176 43.9237 43.6222 43.7754 42.8138 43.7754C42.0292 43.7754 41.3397 43.9237 40.7452 44.2204C40.1508 44.5171 39.6872 44.9384 39.3543 45.4843C39.0334 46.0184 38.8729 46.6473 38.8729 47.3713C38.8729 48.0952 39.0334 48.7301 39.3543 49.276C39.6872 49.8219 40.1508 50.2492 40.7452 50.5577C41.3397 50.8544 42.0292 51.0028 42.8138 51.0028Z" fill="var(--fill-0, #1FD9FE)"/>
<path id="5" d="M50.7356 41.3231C49.9143 41.3231 49.1886 41.1666 48.5584 40.8535C47.9283 40.5405 47.4272 40.1022 47.0553 39.5388C46.6834 38.9753 46.4742 38.3179 46.4277 37.5666H48.6824C48.7031 37.9266 48.8038 38.25 48.9846 38.537C49.1654 38.8187 49.4081 39.0431 49.7129 39.2101C50.0176 39.3718 50.3637 39.4527 50.7511 39.4527C51.1489 39.4527 51.4975 39.3614 51.7971 39.1787C52.1019 38.9909 52.3369 38.7353 52.5022 38.4118C52.6726 38.0831 52.7579 37.7074 52.7579 37.2848C52.7579 36.8518 52.6752 36.4709 52.5099 36.1422C52.3446 35.8135 52.1148 35.5552 51.8204 35.3674C51.5259 35.1796 51.185 35.0857 50.7976 35.0857C50.2914 35.0857 49.8575 35.1952 49.4959 35.4144C49.1395 35.6283 48.8942 35.9283 48.7599 36.3144H46.5904L46.9468 29.49H54.3385V31.4387H49.0466L48.8374 34.1935H48.8529C49.1524 33.8857 49.4985 33.6561 49.8911 33.5048C50.2888 33.3483 50.7279 33.27 51.2083 33.27C51.73 33.27 52.2207 33.3691 52.6804 33.5674C53.1401 33.7604 53.543 34.037 53.8891 34.397C54.2403 34.7518 54.5141 35.1718 54.7104 35.657C54.9118 36.137 55.0125 36.6587 55.0125 37.2222C55.0125 38.0205 54.8343 38.73 54.4779 39.3509C54.1267 39.9666 53.6282 40.4492 52.9826 40.7988C52.3421 41.1483 51.5931 41.3231 50.7356 41.3231Z" fill="var(--fill-0, #1FD9FE)"/>
<path id="11" d="M17.3183 53.8522C16.8078 53.8522 16.3567 53.751 15.9649 53.5484C15.5732 53.3458 15.2617 53.0623 15.0306 52.6976C14.7994 52.333 14.6693 51.9077 14.6404 51.4215H16.042C16.0548 51.6545 16.1175 51.8638 16.2298 52.0495C16.3422 52.2318 16.4931 52.3769 16.6826 52.485C16.872 52.5896 17.0871 52.6419 17.328 52.6419C17.5752 52.6419 17.7919 52.5829 17.9782 52.4647C18.1676 52.3432 18.3137 52.1777 18.4165 51.9684C18.5224 51.7557 18.5754 51.5127 18.5754 51.2392C18.5754 50.959 18.524 50.7126 18.4213 50.4999C18.3185 50.2872 18.1756 50.1201 17.9926 49.9985C17.8096 49.877 17.5977 49.8162 17.3569 49.8162C17.0422 49.8162 16.7725 49.8871 16.5477 50.0289C16.3262 50.1673 16.1736 50.3615 16.0902 50.6113H14.7416L14.9631 46.1955H19.5579V47.4564H16.2684L16.1383 49.2389H16.148C16.3342 49.0398 16.5493 48.8912 16.7933 48.7933C17.0406 48.692 17.3135 48.6414 17.6121 48.6414C17.9364 48.6414 18.2415 48.7055 18.5272 48.8338C18.813 48.9587 19.0635 49.1377 19.2786 49.3706C19.4969 49.6002 19.6671 49.8719 19.7891 50.1859C19.9143 50.4965 19.977 50.8341 19.977 51.1987C19.977 51.7152 19.8662 52.1744 19.6446 52.5761C19.4263 52.9745 19.1164 53.2868 18.7151 53.5129C18.3169 53.7391 17.8513 53.8522 17.3183 53.8522Z" fill="var(--fill-0, #1FD9FE)"/>
<path id="9" d="M58.2549 68.2378C57.3094 68.2378 56.4725 68.0576 55.7443 67.6971C55.0224 67.3367 54.4442 66.8443 54.0098 66.2199C53.5754 65.5891 53.3167 64.8811 53.2336 64.0958H55.9838C56.0924 64.6558 56.3448 65.1031 56.7409 65.4379C57.1433 65.7726 57.6576 65.9399 58.2837 65.9399C58.9608 65.9399 59.5198 65.7532 59.9606 65.3799C60.4078 65.0066 60.74 64.482 60.9572 63.8061C61.1744 63.1303 61.283 62.345 61.283 61.4503H61.2639C61.0275 61.8172 60.74 62.123 60.4014 62.3675C60.0628 62.6121 59.6827 62.7988 59.2611 62.9275C58.8395 63.0498 58.3795 63.111 57.8812 63.111C56.9676 63.111 56.1499 62.905 55.428 62.4931C54.7061 62.0747 54.1376 61.505 53.7223 60.7841C53.3135 60.0568 53.109 59.2329 53.109 58.3124C53.109 57.3341 53.3326 56.4748 53.7798 55.7345C54.2334 54.9943 54.8563 54.4182 55.6484 54.0063C56.447 53.5943 57.3605 53.3884 58.3891 53.3884C59.2835 53.3884 60.0756 53.5461 60.7656 53.8615C61.4619 54.1769 62.0496 54.6371 62.5288 55.2421C63.0143 55.8472 63.3816 56.5874 63.6308 57.4628C63.8863 58.3317 64.0141 59.3262 64.0141 60.4462C64.0141 61.6305 63.8895 62.7023 63.6404 63.6613C63.3912 64.614 63.0239 65.4346 62.5384 66.1234C62.0528 66.8056 61.4491 67.3302 60.7272 67.6971C60.0117 68.0576 59.1876 68.2378 58.2549 68.2378ZM58.3795 60.871C58.7372 60.871 59.0662 60.8067 59.3665 60.6779C59.6731 60.5492 59.9383 60.369 60.1619 60.1372C60.3918 59.9055 60.5707 59.6352 60.6985 59.3262C60.8263 59.0108 60.8901 58.6697 60.8901 58.3028C60.8901 57.8136 60.7815 57.3759 60.5643 56.9897C60.3471 56.5971 60.0501 56.2881 59.6731 56.0628C59.2962 55.8375 58.8746 55.7249 58.4082 55.7249C57.9355 55.7249 57.5107 55.8375 57.1337 56.0628C56.7568 56.2881 56.4566 56.5971 56.233 56.9897C56.0158 57.3759 55.9072 57.8168 55.9072 58.3124C55.9072 58.8016 56.0158 59.2393 56.233 59.6255C56.4502 60.0117 56.7441 60.3175 57.1146 60.5427C57.4915 60.7616 57.9131 60.871 58.3795 60.871Z" fill="var(--fill-0, #1FD9FE)"/>
<path id="F" d="M22.5293 64.9892V51.5319H32.0422V53.9163H25.3575V57.2219H31.5831V59.5341H25.3575V64.9892H22.5293Z" fill="var(--fill-0, #1FD9FE)"/>
<path id="B" d="M21.6013 46.1957V35.0586H26.1665C26.9822 35.0586 27.6755 35.1782 28.2465 35.4174C28.8225 35.6566 29.2584 35.9905 29.5541 36.419C29.8498 36.8475 29.9976 37.3483 29.9976 37.9214C29.9976 38.3499 29.9135 38.7311 29.7452 39.065C29.5821 39.3939 29.3476 39.6679 29.0417 39.8872C28.7359 40.1064 28.3739 40.2684 27.9559 40.373V40.388C28.4198 40.4278 28.8378 40.5599 29.21 40.7841C29.5821 41.0034 29.8752 41.3049 30.0894 41.6886C30.3086 42.0722 30.4182 42.5282 30.4182 43.0564C30.4182 43.6743 30.2652 44.2199 29.9594 44.6933C29.6586 45.1667 29.21 45.5355 28.6135 45.7996C28.017 46.0637 27.288 46.1957 26.4265 46.1957H21.6013ZM23.903 44.3869H26.0977C26.7043 44.3869 27.1759 44.2598 27.5124 44.0057C27.8488 43.7515 28.017 43.3927 28.017 42.9293C28.017 42.6204 27.9431 42.3538 27.7953 42.1295C27.6474 41.9003 27.4333 41.7259 27.153 41.6063C26.8726 41.4818 26.5336 41.4195 26.1359 41.4195H23.903V44.3869ZM23.903 39.6854H25.9906C26.3373 39.6854 26.633 39.6281 26.8777 39.5135C27.1275 39.3988 27.3186 39.2369 27.4512 39.0276C27.5888 38.8133 27.6576 38.5642 27.6576 38.2802C27.6576 37.8466 27.5098 37.5028 27.2141 37.2487C26.9184 36.9945 26.5106 36.8675 25.9906 36.8675H23.903V39.6854Z" fill="var(--fill-0, #1FD9FE)"/>
<path id="1" d="M22.4824 19.7449V29.4898H20.5746V21.5958H20.5618L18.306 23.0477V21.2818L20.6842 19.7449H22.4824Z" fill="var(--fill-0, #1FD9FE)"/>
<path id="10" d="M81.9271 26.7055V50.3718H77.2637V31.2005H77.2322L71.7181 34.7267V30.4381L77.5316 26.7055H81.9271Z" fill="var(--fill-0, #1FD9FE)"/>
<path id="U" d="M45.2171 25.3134C44.4199 25.3134 43.7255 25.164 43.134 24.8653C42.5468 24.5622 42.0903 24.1426 41.7646 23.6066C41.4388 23.0663 41.2759 22.4424 41.2759 21.7351V15.3364H43.2112V21.5704C43.2112 21.957 43.2926 22.2997 43.4555 22.5984C43.6226 22.8971 43.8562 23.1322 44.1563 23.3035C44.4606 23.4748 44.8142 23.5605 45.2171 23.5605C45.6243 23.5605 45.9779 23.4748 46.2779 23.3035C46.578 23.1322 46.8116 22.8971 46.9787 22.5984C47.1459 22.2997 47.2295 21.957 47.2295 21.5704V15.3364H49.1647V21.7351C49.1647 22.4424 49.0018 23.0663 48.6761 23.6066C48.3503 24.1426 47.8917 24.5622 47.3002 24.8653C46.7087 25.164 46.0143 25.3134 45.2171 25.3134Z" fill="var(--fill-0, #1FD9FE)"/>
<path id="7" d="M67.4908 76.3223L74.2884 62.923V62.9013H66.3815V60.117H77.6599V62.8687L70.8841 76.3223H67.4908Z" fill="var(--fill-0, #1FD9FE)"/>
<path id="V" d="M62.1947 55.2442L55.4768 36.2184H59.7799L62.8755 45.4759C63.2437 46.6252 63.6248 47.8765 64.0187 49.23C64.4212 50.575 64.8579 52.0435 65.3289 53.6353H64.1857C64.6396 52.0435 65.0592 50.575 65.4445 49.23C65.8384 47.8765 66.2109 46.6252 66.562 45.4759L69.5549 36.2184H73.8066L67.23 55.2442H62.1947Z" fill="var(--fill-0, #1FD9FE)"/>
<path id="S" d="M62.0141 37.1466C61.273 37.1466 60.6406 37.0319 60.1168 36.8026C59.593 36.5695 59.1914 36.2332 58.9121 35.7937C58.6327 35.3542 58.493 34.8249 58.493 34.2057H60.2216C60.2293 34.5191 60.305 34.7867 60.4485 35.0083C60.596 35.23 60.8036 35.4 61.0713 35.5185C61.339 35.637 61.6571 35.6962 62.0257 35.6962C62.3594 35.6962 62.6485 35.6523 62.8929 35.5644C63.1412 35.4727 63.3333 35.3446 63.4691 35.1803C63.6088 35.016 63.6786 34.823 63.6786 34.6013C63.6786 34.4178 63.6243 34.2592 63.5157 34.1255C63.4109 33.9879 63.2441 33.8675 63.0151 33.7643C62.7901 33.6611 62.4933 33.5713 62.1247 33.4949L61.2109 33.3C60.3496 33.1165 59.7094 32.828 59.2904 32.4343C58.8713 32.0407 58.6618 31.5381 58.6618 30.9266C58.6618 30.4069 58.7995 29.954 59.075 29.568C59.3505 29.1782 59.7346 28.8744 60.2274 28.6565C60.724 28.4387 61.3002 28.3297 61.9559 28.3297C62.6194 28.3297 63.1936 28.4406 63.6786 28.6622C64.1636 28.8839 64.54 29.2011 64.8077 29.6139C65.0793 30.0228 65.2248 30.5139 65.2442 31.0872H63.568C63.537 30.6821 63.3779 30.3629 63.0908 30.1298C62.8037 29.8967 62.4273 29.7801 61.9617 29.7801C61.6707 29.7801 61.4108 29.826 61.1818 29.9177C60.9568 30.0056 60.7783 30.1298 60.6464 30.2903C60.5184 30.4508 60.4544 30.6343 60.4544 30.8407C60.4544 31.0165 60.5048 31.1693 60.6057 31.2993C60.7066 31.4254 60.8676 31.5362 61.0887 31.6318C61.3099 31.7273 61.597 31.8133 61.9501 31.8897L62.7823 32.0675C63.2441 32.1668 63.6437 32.2891 63.9813 32.4343C64.3188 32.5757 64.5962 32.7458 64.8135 32.9446C65.0308 33.1395 65.1918 33.3649 65.2966 33.621C65.4013 33.8771 65.4537 34.1656 65.4537 34.4866C65.4537 35.0332 65.314 35.5071 65.0347 35.9083C64.7592 36.3058 64.3634 36.6116 63.8474 36.8256C63.3352 37.0396 62.7241 37.1466 62.0141 37.1466Z" fill="var(--fill-0, #1FD9FE)"/>
<path id="C" d="M48.5595 79.1644C47.0804 79.1644 45.7571 78.8272 44.5898 78.1529C43.4297 77.4714 42.5161 76.507 41.849 75.2599C41.1892 74.0055 40.8593 72.5227 40.8593 70.8116C40.8593 69.0859 41.1892 67.5959 41.849 66.3415C42.5161 65.0872 43.4297 64.1228 44.5898 63.4485C45.7571 62.7742 47.0804 62.437 48.5595 62.437C49.5094 62.437 50.3903 62.5784 51.2024 62.8612C52.0145 63.144 52.7323 63.5464 53.3559 64.0684C53.9867 64.5905 54.5015 65.2177 54.9003 65.95C55.2991 66.6823 55.5637 67.5016 55.6942 68.408H52.3118C52.2175 67.9294 52.0616 67.5053 51.8441 67.1355C51.6266 66.7584 51.3583 66.443 51.0393 66.1893C50.7202 65.9282 50.3541 65.7325 49.9408 65.602C49.5347 65.4642 49.0888 65.3953 48.603 65.3953C47.6822 65.3953 46.8955 65.6165 46.2429 66.0587C45.5976 66.501 45.1009 67.1282 44.7529 67.9403C44.4049 68.7451 44.2309 69.7022 44.2309 70.8116C44.2309 71.9137 44.4013 72.8672 44.742 73.672C45.0901 74.4768 45.5904 75.1004 46.2429 75.5427C46.8955 75.985 47.6822 76.2061 48.603 76.2061C49.0888 76.2061 49.5347 76.1408 49.9408 76.0103C50.3468 75.8798 50.7094 75.6841 51.0284 75.423C51.3474 75.162 51.6157 74.8466 51.8332 74.4768C52.0507 74.107 52.2139 73.6865 52.3226 73.2152H55.6942C55.5637 74.1143 55.2991 74.93 54.9003 75.6623C54.5015 76.3946 53.9867 77.0218 53.3559 77.5439C52.7251 78.0659 52.0036 78.4683 51.1915 78.7511C50.3867 79.0266 49.5094 79.1644 48.5595 79.1644Z" fill="var(--fill-0, #1FD9FE)"/>
<path id="0" d="M33.0318 26.7274C31.6759 26.7274 30.5049 26.3902 29.5188 25.7159C28.54 25.0343 27.7859 24.07 27.2566 22.8229C26.7346 21.5757 26.4735 20.093 26.4735 18.3746C26.4735 16.6489 26.7346 15.1625 27.2566 13.9154C27.7859 12.6683 28.54 11.7039 29.5188 11.0223C30.4977 10.3408 31.6687 10 33.0318 10C34.3877 10 35.555 10.3408 36.5339 11.0223C37.52 11.6967 38.274 12.661 38.7961 13.9154C39.3254 15.1625 39.59 16.6489 39.59 18.3746C39.59 20.093 39.3254 21.5757 38.7961 22.8229C38.274 24.07 37.52 25.0343 36.5339 25.7159C35.555 26.3902 34.3877 26.7274 33.0318 26.7274ZM33.0318 24.0519C33.7351 24.0519 34.3405 23.8235 34.8481 23.3667C35.3556 22.9099 35.7472 22.2573 36.0227 21.409C36.2982 20.5606 36.436 19.5492 36.436 18.3746C36.436 17.1927 36.2982 16.1776 36.0227 15.3293C35.7472 14.4809 35.3556 13.8284 34.8481 13.3716C34.3405 12.9075 33.7351 12.6755 33.0318 12.6755C32.3285 12.6755 31.7194 12.9075 31.2046 13.3716C30.6971 13.8284 30.3055 14.4809 30.03 15.3293C29.7617 16.1776 29.6276 17.1927 29.6276 18.3746C29.6276 19.5492 29.7617 20.5606 30.03 21.409C30.3055 22.2573 30.6971 22.9099 31.2046 23.3667C31.7194 23.8235 32.3285 24.0519 33.0318 24.0519Z" fill="var(--fill-0, #1FD9FE)"/>
<path id="6" d="M60.9331 31.1358C59.918 31.1358 59.0152 30.9582 58.2249 30.6029C57.4418 30.2476 56.7748 29.7292 56.2237 29.0476C55.6799 28.366 55.263 27.5358 54.973 26.557C54.6902 25.5709 54.5488 24.447 54.5488 23.1854C54.5488 21.8513 54.6866 20.6477 54.9621 19.5746C55.2449 18.4942 55.6618 17.5697 56.2128 16.8012C56.7639 16.0253 57.4455 15.4344 58.2575 15.0284C59.0696 14.6151 60.005 14.4084 61.0636 14.4084C62.1439 14.4084 63.0901 14.6115 63.9022 15.0175C64.7216 15.4235 65.3777 15.9782 65.8708 16.6815C66.3638 17.3849 66.6575 18.1824 66.7517 19.0743H63.6194C63.5034 18.4362 63.2207 17.9323 62.7711 17.5625C62.3216 17.1855 61.7415 16.9969 61.0309 16.9969C60.2624 16.9969 59.6243 17.2072 59.1168 17.6277C58.6165 18.0483 58.243 18.6392 57.9965 19.4005C57.75 20.1546 57.6267 21.0392 57.6267 22.0543H57.6485C57.9168 21.641 58.243 21.293 58.6273 21.0102C59.0189 20.7274 59.4575 20.5135 59.9433 20.3685C60.4291 20.2235 60.9512 20.151 61.5095 20.151C62.5536 20.151 63.4817 20.3866 64.2938 20.8579C65.1131 21.322 65.7548 21.9637 66.2188 22.783C66.6901 23.5951 66.9258 24.5232 66.9258 25.5673C66.9258 26.6694 66.6684 27.641 66.1536 28.4821C65.646 29.3159 64.9427 29.9684 64.0436 30.4397C63.1445 30.9038 62.1077 31.1358 60.9331 31.1358ZM60.9113 28.5038C61.4479 28.5038 61.93 28.3769 62.3578 28.1231C62.7856 27.8621 63.1228 27.5105 63.3693 27.0682C63.6231 26.6186 63.75 26.1183 63.75 25.5673C63.75 25.0162 63.6267 24.5232 63.3802 24.0881C63.1409 23.6458 62.8074 23.2978 62.3796 23.044C61.959 22.7902 61.4805 22.6634 60.9439 22.6634C60.5379 22.6634 60.1609 22.7395 59.8128 22.8918C59.472 23.0368 59.1711 23.2398 58.9101 23.5008C58.6563 23.7618 58.4569 24.07 58.3119 24.4253C58.1669 24.7806 58.0944 25.1649 58.0944 25.5781C58.0944 26.1292 58.2177 26.6259 58.4642 27.0682C58.7107 27.5105 59.0479 27.8621 59.4757 28.1231C59.9035 28.3769 60.382 28.5038 60.9113 28.5038Z" fill="var(--fill-0, #1FD9FE)"/>
</g>
<defs>
<filter id="filter0_f_2008_85" x="0" y="4.70311e-07" width="91.9271" height="89.1644" filterUnits="userSpaceOnUse" color-interpolation-filters="sRGB">
<feFlood flood-opacity="0" result="BackgroundImageFix"/>
<feBlend mode="normal" in="SourceGraphic" in2="BackgroundImageFix" result="shape"/>
<feGaussianBlur stdDeviation="5" result="effect1_foregroundBlur_2008_85"/>
</filter>
</defs>
</svg>
