<svg preserveAspectRatio="none" width="100%" height="100%" overflow="visible" style="display: block;" viewBox="0 0 122.318 118.389" fill="none" xmlns="http://www.w3.org/2000/svg">
<g id="Blur" filter="url(#filter0_f_2008_45)">
<path id="E" d="M10 58.467V35.4143H26.5391V39.4988H14.7652V44.8365H25.6572V48.8127H14.7652V54.3825H26.5391V58.467H10Z" fill="var(--fill-0, #1FD9FE)"/>
<path id="4" d="M33.4344 43.599V39.9167L43.5838 25.5127H46.5698V30.0613H44.9143L38.0295 39.8703V39.9013H52.4335V43.599H33.4344ZM44.9453 48.5653V25.5127H49.4165V48.5653H44.9453Z" fill="var(--fill-0, #1FD9FE)"/>
<path id="Q" d="M40.9419 100.797H43.9958L45.6167 102.901L47.0615 104.613L50.045 108.358H46.7561L44.7945 105.838L43.6669 104.435L40.9419 100.797ZM42.3396 107.169C40.7735 107.169 39.3679 106.801 38.1229 106.064C36.8778 105.319 35.895 104.264 35.1746 102.901C34.4542 101.53 34.094 99.9092 34.094 98.0387C34.094 96.1524 34.4542 94.5276 35.1746 93.1644C35.895 91.7933 36.8778 90.7391 38.1229 90.002C39.3679 89.257 40.7735 88.8845 42.3396 88.8845C43.9136 88.8845 45.3231 89.257 46.5682 90.002C47.8132 90.7391 48.796 91.7933 49.5164 93.1644C50.2368 94.5276 50.597 96.1524 50.597 98.0387C50.597 99.9171 50.2368 101.538 49.5164 102.901C48.796 104.264 47.8132 105.319 46.5682 106.064C45.3231 106.801 43.9136 107.169 42.3396 107.169ZM42.3396 103.936C43.2402 103.936 44.0389 103.706 44.7358 103.246C45.4327 102.786 45.977 102.117 46.3685 101.237C46.76 100.357 46.9558 99.291 46.9558 98.0387C46.9558 96.7786 46.76 95.7086 46.3685 94.8288C45.977 93.9411 45.4327 93.2674 44.7358 92.8078C44.0389 92.3481 43.2402 92.1182 42.3396 92.1182C41.4469 92.1182 40.6521 92.3481 39.9552 92.8078C39.2661 93.2674 38.7219 93.9411 38.3225 94.8288C37.931 95.7086 37.7352 96.7786 37.7352 98.0387C37.7352 99.291 37.931 100.357 38.3225 101.237C38.7219 102.117 39.2661 102.786 39.9552 103.246C40.6521 103.706 41.4469 103.936 42.3396 103.936Z" fill="var(--fill-0, #1FD9FE)"/>
<path id="8" d="M56.6782 91.1947C53.8371 91.1947 51.3343 90.7473 49.1696 89.8525C47.0219 88.9409 45.3477 87.6747 44.147 86.0541C42.9463 84.4334 42.346 82.5679 42.346 80.4576C42.346 78.7357 42.7265 77.2078 43.4875 75.8741C44.2485 74.5404 45.3139 73.4431 46.6837 72.5821C48.0704 71.7211 49.6685 71.1809 51.478 70.9614V70.9868C49.0935 70.6153 47.1826 69.6868 45.7451 68.2012C44.3246 66.6987 43.6143 64.791 43.6143 62.4782C43.6143 60.4861 44.1639 58.7219 45.2631 57.1856C46.3793 55.6324 47.9182 54.4254 49.8799 53.5644C51.8585 52.6865 54.1246 52.2476 56.6782 52.2476C59.2825 52.2476 61.5655 52.6781 63.5272 53.5391C65.4889 54.4 67.0194 55.5987 68.1186 57.135C69.2179 58.6712 69.7675 60.4523 69.7675 62.4782C69.7675 64.7741 69.0572 66.6734 67.6367 68.1759C66.2161 69.6615 64.3136 70.5985 61.9291 70.9868V70.9614C63.7386 71.1809 65.3283 71.7211 66.6981 72.5821C68.0679 73.4431 69.1333 74.5489 69.8943 75.8995C70.6722 77.2331 71.0612 78.7525 71.0612 80.4576C71.0612 82.5679 70.4524 84.4334 69.2348 86.0541C68.0341 87.6747 66.3514 88.9409 64.1868 89.8525C62.0391 90.7473 59.5362 91.1947 56.6782 91.1947ZM56.6782 85.5223C57.9804 85.5223 59.1219 85.2944 60.1027 84.8385C61.0836 84.3658 61.8446 83.7074 62.3857 82.8633C62.9438 82.0023 63.2228 81.0232 63.2228 79.9258C63.2228 78.7779 62.9438 77.7734 62.3857 76.9124C61.8277 76.0345 61.0582 75.3508 60.0774 74.8612C59.0965 74.3547 57.9635 74.1015 56.6782 74.1015C55.4099 74.1015 54.2853 74.3547 53.3044 74.8612C52.3236 75.3508 51.5541 76.0345 50.996 76.9124C50.438 77.7734 50.1589 78.7779 50.1589 79.9258C50.1589 81.0401 50.4295 82.0192 50.9707 82.8633C51.5287 83.7074 52.2982 84.3658 53.2791 84.8385C54.2599 85.2944 55.393 85.5223 56.6782 85.5223ZM56.6782 68.3278C57.8113 68.3278 58.8006 68.1168 59.6461 67.6947C60.4917 67.2727 61.1428 66.6734 61.5994 65.8968C62.0729 65.1033 62.3096 64.1917 62.3096 63.1619C62.3096 62.1321 62.0729 61.2373 61.5994 60.4776C61.1428 59.701 60.4917 59.1017 59.6461 58.6797C58.8175 58.2576 57.8282 58.0466 56.6782 58.0466C55.5621 58.0466 54.5812 58.2576 53.7357 58.6797C52.8901 59.1017 52.2306 59.701 51.757 60.4776C51.3004 61.2373 51.0721 62.1321 51.0721 63.1619C51.0721 64.1917 51.3004 65.0949 51.757 65.8715C52.2306 66.648 52.8901 67.2558 53.7357 67.6947C54.5812 68.1168 55.5621 68.3278 56.6782 68.3278Z" fill="var(--fill-0, #1FD9FE)"/>
<path id="5" d="M67.9478 54.5582C66.7795 54.5582 65.7471 54.3356 64.8506 53.8903C63.9542 53.4449 63.2414 52.8215 62.7124 52.0199C62.1833 51.2183 61.8858 50.2832 61.8196 49.2144H65.027C65.0564 49.7265 65.1997 50.1867 65.4568 50.5949C65.714 50.9957 66.0594 51.3148 66.4929 51.5523C66.9264 51.7824 67.4187 51.8975 67.9698 51.8975C68.5356 51.8975 69.0316 51.7676 69.4578 51.5078C69.8913 51.2406 70.2256 50.8769 70.4608 50.4168C70.7032 49.9492 70.8245 49.4148 70.8245 48.8136C70.8245 48.1976 70.7069 47.6558 70.4718 47.1882C70.2367 46.7206 69.9097 46.3532 69.4908 46.086C69.072 45.8188 68.587 45.6852 68.036 45.6852C67.3159 45.6852 66.6986 45.8411 66.1843 46.1528C65.6773 46.4571 65.3282 46.8839 65.1372 47.4331H62.0511L62.5581 37.7252H73.0729V40.4973H65.545L65.2474 44.4161H65.2695C65.6956 43.9782 66.188 43.6516 66.7464 43.4364C67.3122 43.2137 67.9368 43.1024 68.6201 43.1024C69.3623 43.1024 70.0603 43.2434 70.7143 43.5255C71.3682 43.8001 71.9414 44.1934 72.4337 44.7055C72.9333 45.2102 73.3228 45.8077 73.602 46.498C73.8886 47.1808 74.0318 47.923 74.0318 48.7246C74.0318 49.8601 73.7783 50.8695 73.2713 51.7527C72.7717 52.6285 72.0626 53.3151 71.1441 53.8123C70.233 54.3096 69.1675 54.5582 67.9478 54.5582Z" fill="var(--fill-0, #1FD9FE)"/>
<path id="11" d="M20.4103 72.3814C19.6841 72.3814 19.0423 72.2373 18.4851 71.9491C17.9278 71.661 17.4848 71.2576 17.1559 70.7389C16.827 70.2203 16.642 69.6151 16.6009 68.9236H18.5947C18.613 69.255 18.702 69.5527 18.8619 69.8168C19.0218 70.0762 19.2364 70.2827 19.5059 70.4364C19.7754 70.5852 20.0815 70.6597 20.424 70.6597C20.7757 70.6597 21.0841 70.5756 21.349 70.4075C21.6185 70.2347 21.8263 69.9993 21.9725 69.7016C22.1232 69.399 22.1986 69.0533 22.1986 68.6643C22.1986 68.2656 22.1255 67.9151 21.9793 67.6125C21.8331 67.31 21.6299 67.0722 21.3695 66.8993C21.1092 66.7265 20.8077 66.64 20.4651 66.64C20.0175 66.64 19.6338 66.7409 19.3141 66.9426C18.9989 67.1395 18.782 67.4156 18.6632 67.771H16.7448L17.06 61.4894H23.5962V63.2831H18.9167L18.7317 65.8188H18.7454C19.0104 65.5354 19.3164 65.3241 19.6635 65.1849C20.0152 65.0408 20.4035 64.9688 20.8283 64.9688C21.2896 64.9688 21.7235 65.06 22.13 65.2425C22.5366 65.4202 22.8928 65.6747 23.1989 66.0061C23.5095 66.3327 23.7515 66.7193 23.9251 67.1659C24.1032 67.6077 24.1923 68.088 24.1923 68.6066C24.1923 69.3414 24.0347 69.9945 23.7196 70.566C23.409 71.1327 22.9682 71.5769 22.3972 71.8987C21.8309 72.2205 21.1686 72.3814 20.4103 72.3814Z" fill="var(--fill-0, #1FD9FE)"/>
<path id="9" d="M78.644 92.8451C77.299 92.8451 76.1085 92.5887 75.0725 92.076C74.0456 91.5632 73.2231 90.8627 72.6052 89.9746C71.9872 89.0772 71.6191 88.07 71.501 86.9529H75.4133C75.5678 87.7495 75.9267 88.3859 76.4902 88.8621C77.0627 89.3382 77.7943 89.5763 78.6849 89.5763C79.6482 89.5763 80.4434 89.3107 81.0704 88.7796C81.7066 88.2486 82.1791 87.5023 82.4881 86.5409C82.7971 85.5795 82.9516 84.4624 82.9516 83.1897H82.9243C82.5881 83.7116 82.1791 84.1465 81.6975 84.4944C81.2158 84.8424 80.6751 85.1079 80.0753 85.291C79.4755 85.465 78.8212 85.552 78.1123 85.552C76.8128 85.552 75.6496 85.259 74.6226 84.673C73.5957 84.0778 72.7869 83.2675 72.1962 82.242C71.6146 81.2073 71.3238 80.0353 71.3238 78.7259C71.3238 77.3341 71.6419 76.1117 72.278 75.0588C72.9232 74.0058 73.8093 73.1863 74.9362 72.6003C76.0721 72.0142 77.3717 71.7212 78.8348 71.7212C80.1071 71.7212 81.234 71.9456 82.2155 72.3942C83.206 72.8429 84.0421 73.4976 84.7237 74.3583C85.4144 75.219 85.9369 76.272 86.2913 77.5173C86.6549 78.7534 86.8366 80.168 86.8366 81.7613C86.8366 83.446 86.6594 84.9706 86.305 86.3349C85.9506 87.69 85.428 88.8575 84.7373 89.8372C84.0467 90.8078 83.1879 91.554 82.161 92.076C81.1431 92.5887 79.9708 92.8451 78.644 92.8451ZM78.8212 82.3656C79.3301 82.3656 79.7981 82.274 80.2253 82.0909C80.6615 81.9078 81.0386 81.6514 81.3567 81.3217C81.6838 80.9921 81.9383 80.6075 82.1201 80.168C82.3018 79.7194 82.3927 79.2341 82.3927 78.7122C82.3927 78.0163 82.2382 77.3936 81.9292 76.8443C81.6202 76.2857 81.1976 75.8462 80.6615 75.5257C80.1253 75.2053 79.5255 75.045 78.8621 75.045C78.1896 75.045 77.5853 75.2053 77.0491 75.5257C76.5129 75.8462 76.0858 76.2857 75.7677 76.8443C75.4587 77.3936 75.3042 78.0209 75.3042 78.7259C75.3042 79.4218 75.4587 80.0444 75.7677 80.5938C76.0767 81.1432 76.4947 81.5781 77.0218 81.8986C77.558 82.2099 78.1578 82.3656 78.8212 82.3656Z" fill="var(--fill-0, #1FD9FE)"/>
<path id="F" d="M27.8235 88.2239V69.0804H41.356V72.4722H31.8467V77.1746H40.7029V80.4637H31.8467V88.2239H27.8235Z" fill="var(--fill-0, #1FD9FE)"/>
<path id="B" d="M26.503 61.4895V45.6466H32.9971C34.1575 45.6466 35.1437 45.8168 35.9559 46.157C36.7754 46.4973 37.3955 46.9722 37.8161 47.5818C38.2367 48.1914 38.447 48.9038 38.447 49.719C38.447 50.3286 38.3273 50.8709 38.088 51.3458C37.856 51.8137 37.5224 52.2035 37.0873 52.5154C36.6521 52.8273 36.1372 53.0577 35.5426 53.2066V53.2278C36.2025 53.2845 36.7972 53.4724 37.3266 53.7914C37.856 54.1033 38.273 54.5321 38.5775 55.0779C38.8894 55.6238 39.0453 56.2724 39.0453 57.0238C39.0453 57.9027 38.8277 58.6789 38.3926 59.3523C37.9647 60.0258 37.3266 60.5503 36.4781 60.926C35.6296 61.3017 34.5926 61.4895 33.367 61.4895H26.503ZM29.7773 58.9164H32.8992C33.7622 58.9164 34.433 58.7356 34.9117 58.3741C35.3903 58.0126 35.6296 57.5022 35.6296 56.843C35.6296 56.4035 35.5245 56.0243 35.3141 55.7053C35.1038 55.3792 34.7993 55.1311 34.4004 54.961C34.0015 54.7838 33.5193 54.6952 32.9536 54.6952H29.7773V58.9164ZM29.7773 52.2284H32.7469C33.2401 52.2284 33.6607 52.1468 34.0088 51.9838C34.3641 51.8208 34.6361 51.5904 34.8246 51.2927C35.0204 50.9879 35.1183 50.6334 35.1183 50.2294C35.1183 49.6127 34.908 49.1236 34.4874 48.7621C34.0668 48.4005 33.4867 48.2198 32.7469 48.2198H29.7773V52.2284Z" fill="var(--fill-0, #1FD9FE)"/>
<path id="1" d="M27.7563 23.8626V37.7251H25.0425V26.4955H25.0241L21.8152 28.561V26.049L25.1983 23.8626H27.7563Z" fill="var(--fill-0, #1FD9FE)"/>
<path id="10" d="M112.318 33.7642V67.4303H105.685V40.1585H105.64L97.7958 45.1745V39.074L106.066 33.7642H112.318Z" fill="var(--fill-0, #1FD9FE)"/>
<path id="U" d="M60.0972 31.7836C58.9631 31.7836 57.9754 31.5711 57.1339 31.1461C56.2986 30.7149 55.6492 30.1181 55.1858 29.3557C54.7225 28.587 54.4908 27.6996 54.4908 26.6934V17.591H57.2437V26.459C57.2437 27.009 57.3595 27.4964 57.5912 27.9214C57.829 28.3464 58.1613 28.6807 58.5881 28.9245C59.021 29.1682 59.5241 29.29 60.0972 29.29C60.6765 29.29 61.1795 29.1682 61.6063 28.9245C62.0331 28.6807 62.3654 28.3464 62.6032 27.9214C62.841 27.4964 62.9599 27.009 62.9599 26.459V17.591H65.7128V26.6934C65.7128 27.6996 65.4811 28.587 65.0177 29.3557C64.5543 30.1181 63.9019 30.7149 63.0605 31.1461C62.2191 31.5711 61.2313 31.7836 60.0972 31.7836Z" fill="var(--fill-0, #1FD9FE)"/>
<path id="7" d="M91.7825 104.346L101.452 85.2847V85.2538H90.2044V81.2931H106.248V85.2074L96.6096 104.346H91.7825Z" fill="var(--fill-0, #1FD9FE)"/>
<path id="V" d="M84.2484 74.3617L74.6919 47.2968H80.8132L85.2168 60.4659C85.7406 62.1007 86.2827 63.8808 86.8431 65.8063C87.4156 67.7196 88.0369 69.8085 88.7069 72.073H87.0806C87.7262 69.8085 88.3231 67.7196 88.8713 65.8063C89.4317 63.8808 89.9616 62.1007 90.461 60.4659L94.7185 47.2968H100.767L91.4112 74.3617H84.2484Z" fill="var(--fill-0, #1FD9FE)"/>
<path id="S" d="M83.9915 48.6171C82.9373 48.6171 82.0377 48.454 81.2925 48.1278C80.5474 47.7962 79.9762 47.3178 79.5788 46.6925C79.1814 46.0673 78.9827 45.3144 78.9827 44.4336H81.4416C81.4526 44.8794 81.5602 45.26 81.7645 45.5753C81.9742 45.8906 82.2695 46.1326 82.6503 46.3011C83.0312 46.4696 83.4837 46.5539 84.0081 46.5539C84.4828 46.5539 84.894 46.4914 85.2417 46.3663C85.5949 46.2359 85.8681 46.0537 86.0613 45.82C86.26 45.5862 86.3594 45.3116 86.3594 44.9963C86.3594 44.7354 86.2821 44.5097 86.1275 44.3195C85.9785 44.1237 85.7412 43.9525 85.4155 43.8057C85.0954 43.6589 84.6732 43.5311 84.1488 43.4224L82.849 43.1451C81.6237 42.8842 80.713 42.4737 80.1169 41.9138C79.5208 41.3538 79.2228 40.6389 79.2228 39.769C79.2228 39.0296 79.4187 38.3854 79.8106 37.8363C80.2025 37.2818 80.7489 36.8495 81.4498 36.5397C82.1563 36.2298 82.976 36.0748 83.9087 36.0748C84.8526 36.0748 85.6694 36.2325 86.3594 36.5478C87.0493 36.8631 87.5847 37.3144 87.9655 37.9015C88.3519 38.4832 88.5588 39.1819 88.5864 39.9973H86.202C86.1579 39.4211 85.9316 38.9671 85.5232 38.6355C85.1147 38.3038 84.5793 38.138 83.917 38.138C83.5031 38.138 83.1333 38.2033 82.8076 38.3337C82.4875 38.4588 82.2336 38.6355 82.0459 38.8638C81.8638 39.0921 81.7727 39.3531 81.7727 39.6467C81.7727 39.8968 81.8445 40.1142 81.988 40.2991C82.1315 40.4785 82.3605 40.6361 82.6752 40.7721C82.9898 40.908 83.3982 41.0303 83.9005 41.139L85.0844 41.3918C85.7412 41.5332 86.3097 41.7072 86.7899 41.9138C87.2701 42.1149 87.6647 42.3568 87.9738 42.6395C88.2829 42.9168 88.5119 43.2376 88.6609 43.6018C88.81 43.9661 88.8845 44.3765 88.8845 44.8332C88.8845 45.6107 88.6858 46.2848 88.2884 46.8556C87.8965 47.4211 87.3335 47.856 86.5994 48.1604C85.8709 48.4649 85.0016 48.6171 83.9915 48.6171Z" fill="var(--fill-0, #1FD9FE)"/>
<path id="C" d="M64.8516 108.389C62.7474 108.389 60.8651 107.909 59.2044 106.95C57.5541 105.98 56.2545 104.608 55.3056 102.834C54.367 101.05 53.8977 98.9406 53.8977 96.5064C53.8977 94.0516 54.367 91.932 55.3056 90.1476C56.2545 88.3632 57.5541 86.9914 59.2044 86.0322C60.8651 85.0729 62.7474 84.5933 64.8516 84.5933C66.2028 84.5933 67.4559 84.7944 68.6112 85.1967C69.7664 85.599 70.7875 86.1714 71.6745 86.914C72.5719 87.6567 73.3042 88.5489 73.8715 89.5906C74.4388 90.6324 74.8153 91.7979 75.0009 93.0872H70.1893C70.0552 92.4065 69.8334 91.8031 69.524 91.277C69.2146 90.7407 68.8329 90.292 68.3791 89.931C67.9253 89.5597 67.4044 89.2812 66.8165 89.0955C66.2389 88.8996 65.6045 88.8016 64.9135 88.8016C63.6035 88.8016 62.4844 89.1162 61.5561 89.7453C60.6381 90.3745 59.9316 91.2667 59.4365 92.4219C58.9414 93.5668 58.6939 94.9283 58.6939 96.5064C58.6939 98.0742 58.9363 99.4305 59.421 100.575C59.9161 101.72 60.6278 102.607 61.5561 103.237C62.4844 103.866 63.6035 104.18 64.9135 104.18C65.6045 104.18 66.2389 104.087 66.8165 103.902C67.3941 103.716 67.9098 103.438 68.3636 103.066C68.8174 102.695 69.1991 102.246 69.5085 101.72C69.8179 101.194 70.05 100.596 70.2047 99.9256H75.0009C74.8153 101.205 74.4388 102.365 73.8715 103.407C73.3042 104.448 72.5719 105.341 71.6745 106.083C70.7772 106.826 69.7509 107.398 68.5957 107.801C67.4508 108.193 66.2028 108.389 64.8516 108.389Z" fill="var(--fill-0, #1FD9FE)"/>
<path id="0" d="M42.7638 33.7953C40.835 33.7953 39.1692 33.3157 37.7664 32.3564C36.374 31.3869 35.3013 30.0151 34.5484 28.241C33.8057 26.4669 33.4344 24.3576 33.4344 21.9131C33.4344 19.4583 33.8057 17.3438 34.5484 15.5698C35.3013 13.7957 36.374 12.4239 37.7664 11.4543C39.1589 10.4848 40.8247 10 42.7638 10C44.6926 10 46.3532 10.4848 47.7456 11.4543C49.1484 12.4136 50.2211 13.7854 50.9637 15.5698C51.7166 17.3438 52.0931 19.4583 52.0931 21.9131C52.0931 24.3576 51.7166 26.4669 50.9637 28.241C50.2211 30.0151 49.1484 31.3869 47.7456 32.3564C46.3532 33.3157 44.6926 33.7953 42.7638 33.7953ZM42.7638 29.9893C43.7643 29.9893 44.6255 29.6644 45.3475 29.0146C46.0695 28.3648 46.6265 27.4365 47.0184 26.2297C47.4104 25.0229 47.6064 23.584 47.6064 21.9131C47.6064 20.2319 47.4104 18.7879 47.0184 17.5811C46.6265 16.3743 46.0695 15.446 45.3475 14.7962C44.6255 14.1361 43.7643 13.806 42.7638 13.806C41.7633 13.806 40.8969 14.1361 40.1645 14.7962C39.4425 15.446 38.8856 16.3743 38.4936 17.5811C38.112 18.7879 37.9212 20.2319 37.9212 21.9131C37.9212 23.584 38.112 25.0229 38.4936 26.2297C38.8856 27.4365 39.4425 28.3648 40.1645 29.0146C40.8969 29.6644 41.7633 29.9893 42.7638 29.9893Z" fill="var(--fill-0, #1FD9FE)"/>
<path id="6" d="M82.4536 40.0664C81.0096 40.0664 79.7255 39.8137 78.6012 39.3083C77.4872 38.8029 76.5383 38.0654 75.7544 37.0959C74.9809 36.1263 74.3878 34.9453 73.9752 33.5529C73.5729 32.1501 73.3718 30.5514 73.3718 28.7567C73.3718 26.8588 73.5678 25.1467 73.9597 23.6201C74.362 22.0833 74.9551 20.7682 75.739 19.6749C76.5229 18.5712 77.4924 17.7306 78.6476 17.153C79.8028 16.5651 81.1334 16.2711 82.6393 16.2711C84.1761 16.2711 85.5222 16.5599 86.6774 17.1375C87.8429 17.7151 88.7763 18.5042 89.4777 19.5047C90.1791 20.5052 90.5968 21.6398 90.7309 22.9084H86.2751C86.1101 22.0008 85.7078 21.2839 85.0683 20.7579C84.4288 20.2215 83.6037 19.9534 82.5929 19.9534C81.4995 19.9534 80.5919 20.2525 79.8699 20.8507C79.1582 21.449 78.627 22.2896 78.2763 23.3726C77.9256 24.4453 77.7503 25.7036 77.7503 27.1476H77.7812C78.1628 26.5597 78.627 26.0646 79.1736 25.6624C79.7306 25.2601 80.3546 24.9558 81.0457 24.7496C81.7368 24.5433 82.4794 24.4401 83.2736 24.4401C84.7589 24.4401 86.0791 24.7753 87.2343 25.4458C88.3999 26.1059 89.3127 27.0187 89.9728 28.1842C90.6432 29.3395 90.9785 30.6597 90.9785 32.145C90.9785 33.7127 90.6123 35.0949 89.88 36.2913C89.158 37.4775 88.1575 38.4058 86.8785 39.0762C85.5995 39.7363 84.1246 40.0664 82.4536 40.0664ZM82.4227 36.3223C83.1859 36.3223 83.8719 36.1418 84.4804 35.7808C85.0889 35.4095 85.5686 34.9092 85.9193 34.28C86.2803 33.6405 86.4608 32.9289 86.4608 32.145C86.4608 31.3611 86.2854 30.6597 85.9347 30.0408C85.5944 29.4117 85.1199 28.9166 84.5113 28.5556C83.9131 28.1946 83.2324 28.0141 82.4691 28.0141C81.8915 28.0141 81.3551 28.1224 80.8601 28.339C80.3753 28.5452 79.9472 28.834 79.5759 29.2054C79.2149 29.5767 78.9313 30.015 78.725 30.5204C78.5187 31.0259 78.4155 31.5725 78.4155 32.1604C78.4155 32.9443 78.5909 33.6509 78.9416 34.28C79.2923 34.9092 79.7719 35.4095 80.3804 35.7808C80.989 36.1418 81.6697 36.3223 82.4227 36.3223Z" fill="var(--fill-0, #1FD9FE)"/>
</g>
<defs>
<filter id="filter0_f_2008_45" x="1.7925e-07" y="1.70869e-07" width="122.318" height="118.389" filterUnits="userSpaceOnUse" color-interpolation-filters="sRGB">
<feFlood flood-opacity="0" result="BackgroundImageFix"/>
<feBlend mode="normal" in="SourceGraphic" in2="BackgroundImageFix" result="shape"/>
<feGaussianBlur stdDeviation="5" result="effect1_foregroundBlur_2008_45"/>
</filter>
</defs>
</svg>
