<svg preserveAspectRatio="none" width="100%" height="100%" overflow="visible" style="display: block;" viewBox="0 0 71.9271 69.1644" fill="none" xmlns="http://www.w3.org/2000/svg">
<g id="Numbers">
<path id="E" d="M1.52588e-05 34.0711V17.8657H11.6265V20.737H3.34984V24.4893H11.0066V27.2844H3.34984V31.1998H11.6265V34.0711H1.52588e-05Z" fill="var(--fill-0, #1FD9FE)"/>
<path id="4" d="M16.4735 23.619V21.0305L23.6082 10.9049H25.7073V14.1024H24.5436L19.7037 20.9978V21.0196H29.8293V23.619H16.4735ZM24.5653 27.1102V10.9049H27.7085V27.1102H24.5653Z" fill="var(--fill-0, #1FD9FE)"/>
<path id="Q" d="M21.7514 63.8275H23.8982L25.0377 65.3068L26.0533 66.5102L28.1506 69.1428H25.8386L24.4597 67.371L23.667 66.3849L21.7514 63.8275ZM22.734 68.3071C21.633 68.3071 20.6449 68.048 19.7697 67.5298C18.8945 67.0061 18.2036 66.2651 17.6972 65.3068C17.1908 64.3429 16.9375 63.2035 16.9375 61.8886C16.9375 60.5626 17.1908 59.4204 17.6972 58.4621C18.2036 57.4982 18.8945 56.7572 19.7697 56.239C20.6449 55.7153 21.633 55.4535 22.734 55.4535C23.8404 55.4535 24.8313 55.7153 25.7065 56.239C26.5818 56.7572 27.2726 57.4982 27.779 58.4621C28.2855 59.4204 28.5387 60.5626 28.5387 61.8886C28.5387 63.2091 28.2855 64.3485 27.779 65.3068C27.2726 66.2651 26.5818 67.0061 25.7065 67.5298C24.8313 68.048 23.8404 68.3071 22.734 68.3071ZM22.734 66.0339C23.367 66.0339 23.9285 65.8723 24.4184 65.5491C24.9083 65.226 25.2909 64.7552 25.5661 64.1367C25.8414 63.5183 25.979 62.7689 25.979 61.8886C25.979 61.0027 25.8414 60.2506 25.5661 59.6321C25.2909 59.0081 24.9083 58.5345 24.4184 58.2114C23.9285 57.8882 23.367 57.7267 22.734 57.7267C22.1064 57.7267 21.5477 57.8882 21.0578 58.2114C20.5734 58.5345 20.1908 59.0081 19.9101 59.6321C19.6348 60.2506 19.4972 61.0027 19.4972 61.8886C19.4972 62.7689 19.6348 63.5183 19.9101 64.1367C20.1908 64.7552 20.5734 65.226 21.0578 65.5491C21.5477 65.8723 22.1064 66.0339 22.734 66.0339Z" fill="var(--fill-0, #1FD9FE)"/>
<path id="8" d="M32.8138 57.0775C30.8166 57.0775 29.0572 56.763 27.5355 56.134C26.0257 55.4932 24.8488 54.6031 24.0047 53.4638C23.1607 52.3245 22.7386 51.0131 22.7386 49.5297C22.7386 48.3192 23.0061 47.2451 23.5411 46.3076C24.0761 45.3701 24.825 44.5987 25.7879 43.9934C26.7628 43.3882 27.8862 43.0084 29.1582 42.8541V42.8719C27.482 42.6108 26.1386 41.9581 25.1281 40.9138C24.1295 39.8575 23.6302 38.5165 23.6302 36.8906C23.6302 35.4902 24.0166 34.2501 24.7893 33.1701C25.574 32.0783 26.6558 31.2298 28.0348 30.6245C29.4257 30.0074 31.0187 29.6988 32.8138 29.6988C34.6446 29.6988 36.2494 30.0015 37.6285 30.6067C39.0075 31.212 40.0834 32.0546 40.8561 33.1345C41.6288 34.2145 42.0152 35.4665 42.0152 36.8906C42.0152 38.5046 41.5159 39.8397 40.5173 40.896C39.5187 41.9403 38.1813 42.599 36.505 42.8719V42.8541C37.7771 43.0084 38.8945 43.3882 39.8575 43.9934C40.8204 44.5987 41.5694 45.376 42.1043 46.3254C42.6512 47.263 42.9246 48.331 42.9246 49.5297C42.9246 51.0131 42.4966 52.3245 41.6407 53.4638C40.7966 54.6031 39.6138 55.4932 38.0921 56.134C36.5823 56.763 34.8229 57.0775 32.8138 57.0775ZM32.8138 53.09C33.7292 53.09 34.5316 52.9298 35.2211 52.6093C35.9106 52.277 36.4456 51.8142 36.826 51.2208C37.2183 50.6156 37.4145 49.9272 37.4145 49.1558C37.4145 48.3488 37.2183 47.6427 36.826 47.0375C36.4337 46.4203 35.8928 45.9397 35.2033 45.5955C34.5138 45.2395 33.7173 45.0615 32.8138 45.0615C31.9222 45.0615 31.1316 45.2395 30.4421 45.5955C29.7526 45.9397 29.2117 46.4203 28.8194 47.0375C28.4271 47.6427 28.2309 48.3488 28.2309 49.1558C28.2309 49.9391 28.4211 50.6274 28.8016 51.2208C29.1939 51.8142 29.7348 52.277 30.4243 52.6093C31.1138 52.9298 31.9103 53.09 32.8138 53.09ZM32.8138 41.0028C33.6103 41.0028 34.3057 40.8544 34.9001 40.5577C35.4946 40.261 35.9522 39.8397 36.2732 39.2938C36.6061 38.736 36.7725 38.0952 36.7725 37.3713C36.7725 36.6473 36.6061 36.0184 36.2732 35.4843C35.9522 34.9384 35.4946 34.5171 34.9001 34.2204C34.3176 33.9237 33.6222 33.7754 32.8138 33.7754C32.0292 33.7754 31.3397 33.9237 30.7453 34.2204C30.1509 34.5171 29.6872 34.9384 29.3544 35.4843C29.0334 36.0184 28.8729 36.6473 28.8729 37.3713C28.8729 38.0952 29.0334 38.7301 29.3544 39.276C29.6872 39.8219 30.1509 40.2492 30.7453 40.5577C31.3397 40.8544 32.0292 41.0028 32.8138 41.0028Z" fill="var(--fill-0, #1FD9FE)"/>
<path id="5" d="M40.7356 31.3231C39.9144 31.3231 39.1886 31.1666 38.5584 30.8535C37.9283 30.5405 37.4272 30.1022 37.0553 29.5388C36.6834 28.9753 36.4742 28.3179 36.4277 27.5666H38.6824C38.7031 27.9266 38.8038 28.25 38.9846 28.537C39.1654 28.8187 39.4081 29.0431 39.7129 29.2101C40.0177 29.3718 40.3637 29.4527 40.7511 29.4527C41.1489 29.4527 41.4975 29.3614 41.7971 29.1787C42.1019 28.9909 42.3369 28.7353 42.5022 28.4118C42.6727 28.0831 42.7579 27.7074 42.7579 27.2848C42.7579 26.8518 42.6752 26.4709 42.5099 26.1422C42.3447 25.8135 42.1148 25.5552 41.8204 25.3674C41.5259 25.1796 41.185 25.0857 40.7976 25.0857C40.2914 25.0857 39.8575 25.1952 39.496 25.4144C39.1395 25.6283 38.8942 25.9283 38.7599 26.3144H36.5904L36.9468 19.49H44.3385V21.4387H39.0466L38.8374 24.1935H38.8529C39.1525 23.8857 39.4985 23.6561 39.8911 23.5048C40.2888 23.3483 40.7279 23.27 41.2083 23.27C41.73 23.27 42.2207 23.3691 42.6804 23.5674C43.1401 23.7604 43.543 24.037 43.8891 24.397C44.2403 24.7518 44.5141 25.1718 44.7104 25.657C44.9118 26.137 45.0126 26.6587 45.0126 27.2222C45.0126 28.0205 44.8344 28.73 44.4779 29.3509C44.1267 29.9666 43.6282 30.4492 42.9826 30.7988C42.3421 31.1483 41.5931 31.3231 40.7356 31.3231Z" fill="var(--fill-0, #1FD9FE)"/>
<path id="11" d="M7.31834 43.8522C6.80781 43.8522 6.35668 43.751 5.96495 43.5484C5.57322 43.3458 5.26176 43.0623 5.03058 42.6976C4.79939 42.333 4.66935 41.9077 4.64045 41.4215H6.04201C6.05485 41.6545 6.11747 41.8638 6.22985 42.0495C6.34223 42.2318 6.49314 42.3769 6.68258 42.485C6.87203 42.5896 7.08716 42.6419 7.32798 42.6419C7.57522 42.6419 7.79195 42.5829 7.97818 42.4647C8.16763 42.3432 8.31372 42.1777 8.41647 41.9684C8.52243 41.7557 8.57541 41.5127 8.57541 41.2392C8.57541 40.959 8.52404 40.7126 8.42129 40.4999C8.31854 40.2872 8.17565 40.1201 7.99263 39.9985C7.80961 39.877 7.59769 39.8162 7.35687 39.8162C7.04221 39.8162 6.77249 39.8871 6.54773 40.0289C6.32617 40.1673 6.17366 40.3615 6.09017 40.6113H4.74159L4.96315 36.1955H9.55795V37.4564H6.26838L6.13834 39.2389H6.14797C6.3342 39.0398 6.54933 38.8912 6.79336 38.7933C7.0406 38.692 7.31353 38.6414 7.61214 38.6414C7.93644 38.6414 8.24148 38.7055 8.52725 38.8338C8.81302 38.9587 9.06347 39.1377 9.2786 39.3706C9.49694 39.6002 9.66712 39.8719 9.78913 40.1859C9.91436 40.4965 9.97697 40.8341 9.97697 41.1987C9.97697 41.7152 9.86619 42.1744 9.64464 42.5761C9.4263 42.9745 9.11645 43.2868 8.71509 43.5129C8.31693 43.7391 7.85135 43.8522 7.31834 43.8522Z" fill="var(--fill-0, #1FD9FE)"/>
<path id="9" d="M48.2549 58.2378C47.3094 58.2378 46.4726 58.0576 45.7443 57.6971C45.0224 57.3367 44.4442 56.8443 44.0098 56.2199C43.5754 55.5891 43.3167 54.8811 43.2336 54.0958H45.9838C46.0924 54.6558 46.3448 55.1031 46.7409 55.4378C47.1433 55.7726 47.6576 55.9399 48.2837 55.9399C48.9609 55.9399 49.5198 55.7532 49.9606 55.3799C50.4078 55.0066 50.74 54.482 50.9572 53.8061C51.1744 53.1303 51.283 52.345 51.283 51.4503H51.2639C51.0275 51.8172 50.74 52.123 50.4014 52.3675C50.0629 52.6121 49.6827 52.7988 49.2611 52.9275C48.8395 53.0498 48.3795 53.111 47.8812 53.111C46.9677 53.111 46.1499 52.905 45.428 52.4931C44.7062 52.0747 44.1376 51.505 43.7223 50.7841C43.3135 50.0568 43.109 49.2329 43.109 48.3124C43.109 47.3341 43.3326 46.4748 43.7798 45.7345C44.2334 44.9943 44.8563 44.4182 45.6484 44.0063C46.447 43.5943 47.3606 43.3884 48.3891 43.3884C49.2835 43.3884 50.0756 43.5461 50.7656 43.8615C51.4619 44.1769 52.0497 44.6371 52.5288 45.2421C53.0143 45.8472 53.3816 46.5874 53.6308 47.4628C53.8863 48.3317 54.0141 49.3262 54.0141 50.4462C54.0141 51.6305 53.8895 52.7023 53.6404 53.6613C53.3912 54.614 53.0239 55.4346 52.5384 56.1234C52.0529 56.8056 51.4491 57.3302 50.7273 57.6971C50.0118 58.0576 49.1876 58.2378 48.2549 58.2378ZM48.3795 50.871C48.7373 50.871 49.0663 50.8067 49.3665 50.6779C49.6732 50.5492 49.9383 50.369 50.1619 50.1372C50.3919 49.9055 50.5707 49.6352 50.6985 49.3262C50.8263 49.0108 50.8902 48.6697 50.8902 48.3028C50.8902 47.8136 50.7816 47.3759 50.5644 46.9897C50.3471 46.5971 50.0501 46.2881 49.6732 46.0628C49.2962 45.8375 48.8746 45.7249 48.4083 45.7249C47.9355 45.7249 47.5107 45.8375 47.1338 46.0628C46.7568 46.2881 46.4566 46.5971 46.233 46.9897C46.0158 47.3759 45.9072 47.8168 45.9072 48.3124C45.9072 48.8016 46.0158 49.2393 46.233 49.6255C46.4502 50.0117 46.7441 50.3175 47.1146 50.5427C47.4915 50.7616 47.9131 50.871 48.3795 50.871Z" fill="var(--fill-0, #1FD9FE)"/>
<path id="F" d="M12.5293 54.9892V41.5319H22.0423V43.9163H15.3575V47.2219H21.5831V49.5341H15.3575V54.9892H12.5293Z" fill="var(--fill-0, #1FD9FE)"/>
<path id="B" d="M11.6013 36.1957V25.0586H16.1665C16.9822 25.0586 17.6755 25.1782 18.2465 25.4174C18.8225 25.6566 19.2584 25.9905 19.5541 26.419C19.8498 26.8475 19.9976 27.3483 19.9976 27.9214C19.9976 28.3499 19.9135 28.7311 19.7453 29.065C19.5821 29.3939 19.3476 29.6679 19.0417 29.8872C18.7359 30.1064 18.3739 30.2684 17.9559 30.373V30.388C18.4198 30.4278 18.8378 30.5599 19.21 30.7841C19.5821 31.0034 19.8753 31.3049 20.0894 31.6886C20.3086 32.0722 20.4182 32.5282 20.4182 33.0564C20.4182 33.6743 20.2652 34.2199 19.9594 34.6933C19.6586 35.1667 19.21 35.5355 18.6135 35.7996C18.0171 36.0637 17.2881 36.1957 16.4265 36.1957H11.6013ZM13.903 34.3869H16.0977C16.7043 34.3869 17.1759 34.2598 17.5124 34.0057C17.8488 33.7515 18.0171 33.3927 18.0171 32.9293C18.0171 32.6204 17.9431 32.3538 17.7953 32.1295C17.6475 31.9003 17.4334 31.7259 17.153 31.6063C16.8726 31.4818 16.5336 31.4195 16.1359 31.4195H13.903V34.3869ZM13.903 29.6854H15.9906C16.3373 29.6854 16.633 29.6281 16.8777 29.5135C17.1275 29.3988 17.3186 29.2369 17.4512 29.0276C17.5888 28.8133 17.6577 28.5642 17.6577 28.2802C17.6577 27.8466 17.5098 27.5028 17.2141 27.2487C16.9185 26.9945 16.5106 26.8675 15.9906 26.8675H13.903V29.6854Z" fill="var(--fill-0, #1FD9FE)"/>
<path id="1" d="M12.4824 9.74487V19.4898H10.5747V11.5958H10.5618L8.306 13.0477V11.2818L10.6842 9.74487H12.4824Z" fill="var(--fill-0, #1FD9FE)"/>
<path id="10" d="M71.9271 16.7055V40.3718H67.2638V21.2005H67.2322L61.7181 24.7267V20.4381L67.5316 16.7055H71.9271Z" fill="var(--fill-0, #1FD9FE)"/>
<path id="U" d="M35.2171 15.3134C34.4199 15.3134 33.7255 15.164 33.134 14.8653C32.5468 14.5622 32.0903 14.1426 31.7646 13.6066C31.4388 13.0663 31.276 12.4424 31.276 11.7351V5.33643H33.2112V11.5704C33.2112 11.957 33.2926 12.2997 33.4555 12.5984C33.6227 12.8971 33.8563 13.1322 34.1563 13.3035C34.4606 13.4748 34.8142 13.5605 35.2171 13.5605C35.6243 13.5605 35.9779 13.4748 36.278 13.3035C36.578 13.1322 36.8116 12.8971 36.9788 12.5984C37.1459 12.2997 37.2295 11.957 37.2295 11.5704V5.33643H39.1647V11.7351C39.1647 12.4424 39.0018 13.0663 38.6761 13.6066C38.3503 14.1426 37.8917 14.5622 37.3002 14.8653C36.7087 15.164 36.0144 15.3134 35.2171 15.3134Z" fill="var(--fill-0, #1FD9FE)"/>
<path id="7" d="M57.4908 66.3223L64.2884 52.923V52.9013H56.3815V50.117H67.6599V52.8687L60.8842 66.3223H57.4908Z" fill="var(--fill-0, #1FD9FE)"/>
<path id="V" d="M52.1947 45.2442L45.4768 26.2184H49.7799L52.8755 35.4759C53.2438 36.6252 53.6248 37.8765 54.0187 39.23C54.4212 40.575 54.8579 42.0435 55.3289 43.6353H54.1857C54.6396 42.0435 55.0592 40.575 55.4445 39.23C55.8384 37.8765 56.2109 36.6252 56.562 35.4759L59.5549 26.2184H63.8066L57.23 45.2442H52.1947Z" fill="var(--fill-0, #1FD9FE)"/>
<path id="S" d="M52.0141 27.1466C51.273 27.1466 50.6406 27.0319 50.1168 26.8026C49.593 26.5695 49.1914 26.2332 48.9121 25.7937C48.6327 25.3542 48.493 24.8249 48.493 24.2057H50.2216C50.2293 24.5191 50.305 24.7867 50.4485 25.0083C50.596 25.23 50.8036 25.4 51.0713 25.5185C51.339 25.637 51.6572 25.6962 52.0258 25.6962C52.3594 25.6962 52.6485 25.6523 52.8929 25.5644C53.1413 25.4727 53.3333 25.3446 53.4691 25.1803C53.6088 25.016 53.6786 24.823 53.6786 24.6013C53.6786 24.4178 53.6243 24.2592 53.5157 24.1255C53.4109 23.9879 53.2441 23.8675 53.0152 23.7643C52.7901 23.6611 52.4933 23.5713 52.1247 23.4949L51.211 23.3C50.3496 23.1165 49.7094 22.828 49.2904 22.4343C48.8713 22.0407 48.6618 21.5381 48.6618 20.9266C48.6618 20.4069 48.7996 19.954 49.075 19.568C49.3505 19.1782 49.7346 18.8744 50.2274 18.6565C50.724 18.4387 51.3002 18.3297 51.9559 18.3297C52.6194 18.3297 53.1936 18.4406 53.6786 18.6622C54.1636 18.8839 54.54 19.2011 54.8077 19.6139C55.0793 20.0228 55.2248 20.5139 55.2442 21.0872H53.568C53.537 20.6821 53.3779 20.3629 53.0908 20.1298C52.8037 19.8967 52.4273 19.7801 51.9617 19.7801C51.6707 19.7801 51.4108 19.826 51.1819 19.9177C50.9568 20.0056 50.7783 20.1298 50.6464 20.2903C50.5184 20.4508 50.4544 20.6343 50.4544 20.8407C50.4544 21.0165 50.5048 21.1693 50.6057 21.2993C50.7066 21.4254 50.8676 21.5362 51.0887 21.6318C51.3099 21.7273 51.597 21.8133 51.9501 21.8897L52.7824 22.0675C53.2441 22.1668 53.6437 22.2891 53.9813 22.4343C54.3188 22.5757 54.5962 22.7458 54.8135 22.9446C55.0308 23.1395 55.1918 23.3649 55.2966 23.621C55.4013 23.8771 55.4537 24.1656 55.4537 24.4866C55.4537 25.0332 55.314 25.5071 55.0347 25.9083C54.7592 26.3058 54.3634 26.6116 53.8474 26.8256C53.3353 27.0396 52.7242 27.1466 52.0141 27.1466Z" fill="var(--fill-0, #1FD9FE)"/>
<path id="C" d="M38.5595 69.1644C37.0804 69.1644 35.7571 68.8272 34.5898 68.1529C33.4297 67.4714 32.5161 66.507 31.849 65.2599C31.1892 64.0055 30.8593 62.5227 30.8593 60.8116C30.8593 59.0859 31.1892 57.5959 31.849 56.3415C32.5161 55.0872 33.4297 54.1228 34.5898 53.4485C35.7571 52.7742 37.0804 52.437 38.5595 52.437C39.5094 52.437 40.3903 52.5784 41.2024 52.8612C42.0145 53.144 42.7323 53.5464 43.3559 54.0684C43.9867 54.5905 44.5015 55.2177 44.9003 55.95C45.2991 56.6823 45.5637 57.5016 45.6942 58.408H42.3118C42.2175 57.9294 42.0616 57.5053 41.8441 57.1355C41.6266 56.7584 41.3583 56.443 41.0393 56.1893C40.7203 55.9282 40.3541 55.7325 39.9408 55.602C39.5348 55.4642 39.0888 55.3953 38.603 55.3953C37.6822 55.3953 36.8955 55.6165 36.2429 56.0587C35.5976 56.501 35.101 57.1282 34.7529 57.9403C34.4049 58.7451 34.2309 59.7022 34.2309 60.8116C34.2309 61.9137 34.4013 62.8672 34.742 63.672C35.0901 64.4768 35.5904 65.1004 36.2429 65.5427C36.8955 65.985 37.6822 66.2061 38.603 66.2061C39.0888 66.2061 39.5348 66.1408 39.9408 66.0103C40.3468 65.8798 40.7094 65.6841 41.0284 65.423C41.3474 65.162 41.6157 64.8466 41.8332 64.4768C42.0508 64.107 42.2139 63.6865 42.3227 63.2152H45.6942C45.5637 64.1143 45.2991 64.93 44.9003 65.6623C44.5015 66.3946 43.9867 67.0218 43.3559 67.5439C42.7251 68.0659 42.0036 68.4683 41.1915 68.7511C40.3867 69.0266 39.5094 69.1644 38.5595 69.1644Z" fill="var(--fill-0, #1FD9FE)"/>
<path id="0" d="M23.0318 16.7274C21.6759 16.7274 20.5049 16.3902 19.5188 15.7159C18.54 15.0343 17.7859 14.07 17.2566 12.8229C16.7346 11.5757 16.4735 10.093 16.4735 8.37456C16.4735 6.64889 16.7346 5.1625 17.2566 3.91538C17.7859 2.66826 18.54 1.70392 19.5188 1.02235C20.4977 0.340783 21.6687 0 23.0318 0C24.3877 0 25.555 0.340783 26.5339 1.02235C27.52 1.69666 28.2741 2.66101 28.7961 3.91538C29.3254 5.1625 29.5901 6.64889 29.5901 8.37456C29.5901 10.093 29.3254 11.5757 28.7961 12.8229C28.2741 14.07 27.52 15.0343 26.5339 15.7159C25.555 16.3902 24.3877 16.7274 23.0318 16.7274ZM23.0318 14.0519C23.7351 14.0519 24.3406 13.8235 24.8481 13.3667C25.3557 12.9099 25.7472 12.2573 26.0227 11.409C26.2982 10.5606 26.436 9.54918 26.436 8.37456C26.436 7.1927 26.2982 6.1776 26.0227 5.32927C25.7472 4.48093 25.3557 3.82837 24.8481 3.37158C24.3406 2.90753 23.7351 2.67551 23.0318 2.67551C22.3285 2.67551 21.7194 2.90753 21.2046 3.37158C20.6971 3.82837 20.3055 4.48093 20.03 5.32927C19.7617 6.1776 19.6276 7.1927 19.6276 8.37456C19.6276 9.54918 19.7617 10.5606 20.03 11.409C20.3055 12.2573 20.6971 12.9099 21.2046 13.3667C21.7194 13.8235 22.3285 14.0519 23.0318 14.0519Z" fill="var(--fill-0, #1FD9FE)"/>
<path id="6" d="M50.9331 21.1358C49.918 21.1358 49.0153 20.9582 48.2249 20.6029C47.4419 20.2476 46.7748 19.7292 46.2237 19.0476C45.6799 18.366 45.263 17.5358 44.973 16.557C44.6902 15.5709 44.5488 14.447 44.5488 13.1854C44.5488 11.8513 44.6866 10.6477 44.9621 9.57456C45.2449 8.49421 45.6618 7.56974 46.2129 6.80117C46.7639 6.02534 47.4455 5.43441 48.2576 5.02837C49.0696 4.61508 50.005 4.40844 51.0636 4.40844C52.1439 4.40844 53.0902 4.61146 53.9022 5.0175C54.7216 5.42354 55.3778 5.97821 55.8708 6.68153C56.3639 7.38485 56.6575 8.18243 56.7518 9.07426H53.6195C53.5034 8.4362 53.2207 7.93228 52.7711 7.56249C52.3216 7.18546 51.7415 6.99694 51.031 6.99694C50.2624 6.99694 49.6243 7.20721 49.1168 7.62775C48.6165 8.04829 48.2431 8.63922 47.9965 9.40055C47.75 10.1546 47.6268 11.0392 47.6268 12.0543H47.6485C47.9168 11.641 48.2431 11.293 48.6273 11.0102C49.0189 10.7274 49.4576 10.5135 49.9434 10.3685C50.4291 10.2235 50.9512 10.151 51.5095 10.151C52.5536 10.151 53.4817 10.3866 54.2938 10.8579C55.1131 11.322 55.7548 11.9637 56.2188 12.783C56.6901 13.5951 56.9258 14.5232 56.9258 15.5673C56.9258 16.6694 56.6684 17.641 56.1536 18.4821C55.646 19.3159 54.9427 19.9684 54.0436 20.4397C53.1445 20.9038 52.1077 21.1358 50.9331 21.1358ZM50.9113 18.5038C51.4479 18.5038 51.93 18.3769 52.3578 18.1231C52.7856 17.8621 53.1228 17.5105 53.3693 17.0682C53.6231 16.6186 53.75 16.1183 53.75 15.5673C53.75 15.0162 53.6267 14.5232 53.3802 14.0881C53.1409 13.6458 52.8074 13.2978 52.3796 13.044C51.959 12.7902 51.4805 12.6634 50.9439 12.6634C50.5379 12.6634 50.1609 12.7395 49.8128 12.8918C49.4721 13.0368 49.1712 13.2398 48.9101 13.5008C48.6564 13.7618 48.457 14.07 48.3119 14.4253C48.1669 14.7806 48.0944 15.1649 48.0944 15.5781C48.0944 16.1292 48.2177 16.6259 48.4642 17.0682C48.7107 17.5105 49.0479 17.8621 49.4757 18.1231C49.9035 18.3769 50.382 18.5038 50.9113 18.5038Z" fill="var(--fill-0, #1FD9FE)"/>
</g>
</svg>
