<svg preserveAspectRatio="none" width="100%" height="100%" overflow="visible" style="display: block;" viewBox="0 0 143.593 138.846" fill="none" xmlns="http://www.w3.org/2000/svg">
<g id="Blur" filter="url(#filter0_f_2008_125)">
<path id="E" d="M10 68.5443V40.6985H29.9779V45.6323H15.756V52.0798H28.9127V56.8827H15.756V63.6105H29.9779V68.5443H10Z" fill="var(--fill-0, #1FD9FE)"/>
<path id="4" d="M38.3066 50.5849V46.1371L50.5662 28.7381H54.1731V34.2325H52.1734L43.8571 46.081V46.1184H61.256V50.5849H38.3066ZM52.2108 56.5839V28.7381H57.6118V56.5839H52.2108Z" fill="var(--fill-0, #1FD9FE)"/>
<path id="Q" d="M47.3759 119.675H51.0648L53.0228 122.217L54.7679 124.285L58.3717 128.809H54.399L52.0296 125.764L50.6675 124.07L47.3759 119.675ZM49.0643 127.373C47.1725 127.373 45.4747 126.927 43.9707 126.037C42.4668 125.137 41.2797 123.864 40.4095 122.217C39.5393 120.561 39.1042 118.603 39.1042 116.344C39.1042 114.065 39.5393 112.103 40.4095 110.456C41.2797 108.8 42.4668 107.526 43.9707 106.636C45.4747 105.736 47.1725 105.286 49.0643 105.286C50.9655 105.286 52.6681 105.736 54.172 106.636C55.6759 107.526 56.863 108.8 57.7332 110.456C58.6034 112.103 59.0385 114.065 59.0385 116.344C59.0385 118.613 58.6034 120.57 57.7332 122.217C56.863 123.864 55.6759 125.137 54.172 126.037C52.6681 126.927 50.9655 127.373 49.0643 127.373ZM49.0643 123.467C50.152 123.467 51.1168 123.189 51.9587 122.634C52.8005 122.078 53.4579 121.269 53.9308 120.207C54.4037 119.144 54.6402 117.856 54.6402 116.344C54.6402 114.822 54.4037 113.529 53.9308 112.466C53.4579 111.394 52.8005 110.58 51.9587 110.025C51.1168 109.47 50.152 109.192 49.0643 109.192C47.986 109.192 47.0259 109.47 46.1841 110.025C45.3517 110.58 44.6943 111.394 44.2119 112.466C43.739 113.529 43.5025 114.822 43.5025 116.344C43.5025 117.856 43.739 119.144 44.2119 120.207C44.6943 121.269 45.3517 122.078 46.1841 122.634C47.0259 123.189 47.986 123.467 49.0643 123.467Z" fill="var(--fill-0, #1FD9FE)"/>
<path id="8" d="M66.3837 108.077C62.9519 108.077 59.9286 107.536 57.3139 106.455C54.7197 105.354 52.6973 103.825 51.247 101.867C49.7967 99.9095 49.0715 97.6562 49.0715 95.1071C49.0715 93.0271 49.5311 91.1816 50.4503 89.5706C51.3696 87.9596 52.6565 86.6341 54.3111 85.5941C55.9862 84.5541 57.9165 83.9016 60.1023 83.6365V83.6671C57.222 83.2184 54.9137 82.0969 53.1774 80.3023C51.4615 78.4874 50.6035 76.1831 50.6035 73.3894C50.6035 70.9831 51.2674 68.8521 52.5952 66.9964C53.9434 65.1203 55.8023 63.6622 58.1719 62.6222C60.5619 61.5618 63.2992 61.0316 66.3837 61.0316C69.5295 61.0316 72.2872 61.5516 74.6568 62.5916C77.0264 63.6316 78.8751 65.0795 80.2028 66.9352C81.5306 68.7909 82.1945 70.9423 82.1945 73.3894C82.1945 76.1627 81.3366 78.4568 79.6207 80.2717C77.9048 82.0663 75.6067 83.198 72.7264 83.6671V83.6365C74.9121 83.9016 76.8323 84.5541 78.4869 85.5941C80.1416 86.6341 81.4285 87.9698 82.3477 89.6012C83.2874 91.2122 83.7572 93.0475 83.7572 95.1071C83.7572 97.6562 83.0218 99.9095 81.5511 101.867C80.1007 103.825 78.0682 105.354 75.4535 106.455C72.8592 107.536 69.8359 108.077 66.3837 108.077ZM66.3837 101.225C67.9566 101.225 69.3355 100.95 70.5203 100.399C71.705 99.8279 72.6243 99.0327 73.278 98.013C73.9521 96.973 74.2891 95.7903 74.2891 94.4648C74.2891 93.0781 73.9521 91.8648 73.278 90.8248C72.6038 89.7644 71.6744 88.9385 70.4896 88.3471C69.3048 87.7353 67.9362 87.4294 66.3837 87.4294C64.8517 87.4294 63.4932 87.7353 62.3084 88.3471C61.1236 88.9385 60.1942 89.7644 59.5201 90.8248C58.846 91.8648 58.5089 93.0781 58.5089 94.4648C58.5089 95.8107 58.8358 96.9934 59.4895 98.013C60.1636 99.0327 61.093 99.8279 62.2778 100.399C63.4626 100.95 64.8312 101.225 66.3837 101.225ZM66.3837 80.4553C67.7523 80.4553 68.9473 80.2004 69.9687 79.6906C70.9901 79.1808 71.7765 78.4568 72.3281 77.5188C72.9 76.5604 73.186 75.4592 73.186 74.2152C73.186 72.9713 72.9 71.8905 72.3281 70.9729C71.7765 70.0348 70.9901 69.3109 69.9687 68.8011C68.9678 68.2913 67.7728 68.0364 66.3837 68.0364C65.0355 68.0364 63.8507 68.2913 62.8293 68.8011C61.808 69.3109 61.0113 70.0348 60.4393 70.9729C59.8878 71.8905 59.612 72.9713 59.612 74.2152C59.612 75.4592 59.8878 76.5502 60.4393 77.4882C61.0113 78.4262 61.808 79.1604 62.8293 79.6906C63.8507 80.2004 65.0355 80.4553 66.3837 80.4553Z" fill="var(--fill-0, #1FD9FE)"/>
<path id="5" d="M79.9962 63.8227C78.585 63.8227 77.3379 63.5537 76.2551 63.0158C75.1723 62.4779 74.3113 61.7248 73.6723 60.7566C73.0332 59.7883 72.6737 58.6587 72.5939 57.3677H76.4681C76.5036 57.9863 76.6767 58.5422 76.9873 59.0353C77.298 59.5194 77.7151 59.9049 78.2388 60.1918C78.7625 60.4697 79.3571 60.6086 80.0228 60.6086C80.7062 60.6086 81.3054 60.4518 81.8201 60.138C82.3438 59.8152 82.7477 59.3759 83.0317 58.8201C83.3246 58.2553 83.471 57.6098 83.471 56.8836C83.471 56.1395 83.329 55.4851 83.045 54.9202C82.761 54.3554 82.366 53.9117 81.8601 53.5889C81.3542 53.2662 80.7684 53.1048 80.1027 53.1048C79.2329 53.1048 78.4873 53.2931 77.866 53.6696C77.2536 54.0372 76.832 54.5527 76.6012 55.2161H72.8734L73.4859 43.4896H86.187V46.8381H77.0938L76.7344 51.5718H76.761C77.2758 51.0428 77.8705 50.6483 78.545 50.3883C79.2284 50.1194 79.9829 49.9849 80.8083 49.9849C81.7048 49.9849 82.548 50.1553 83.3379 50.4959C84.1278 50.8276 84.8201 51.3028 85.4148 51.9214C86.0183 52.531 86.4888 53.2527 86.826 54.0865C87.1722 54.9113 87.3453 55.8078 87.3453 56.776C87.3453 58.1477 87.0391 59.367 86.4266 60.4338C85.8231 61.4917 84.9666 62.321 83.8571 62.9217C82.7565 63.5223 81.4696 63.8227 79.9962 63.8227Z" fill="var(--fill-0, #1FD9FE)"/>
<path id="11" d="M22.5752 85.3517C21.6979 85.3517 20.9227 85.1777 20.2496 84.8296C19.5765 84.4816 19.0413 83.9943 18.6441 83.3678C18.2468 82.7413 18.0234 82.0103 17.9737 81.175H20.382C20.4041 81.5753 20.5117 81.9349 20.7048 82.254C20.8979 82.5672 21.1572 82.8167 21.4827 83.0023C21.8083 83.1821 22.1779 83.2721 22.5917 83.2721C23.0166 83.2721 23.389 83.1705 23.709 82.9675C24.0345 82.7587 24.2855 82.4744 24.4621 82.1148C24.6442 81.7493 24.7352 81.3316 24.7352 80.8618C24.7352 80.3803 24.6469 79.9568 24.4704 79.5913C24.2938 79.2259 24.0483 78.9387 23.7338 78.7299C23.4193 78.5211 23.0552 78.4166 22.6414 78.4166C22.1007 78.4166 21.6372 78.5385 21.251 78.7821C20.8703 79.0199 20.6082 79.3535 20.4648 79.7828H18.1475L18.5282 72.1951H26.4235V74.3617H20.771L20.5476 77.4247H20.5641C20.8841 77.0824 21.2538 76.8272 21.6731 76.6589C22.0979 76.4849 22.5669 76.3979 23.08 76.3979C23.6373 76.3979 24.1614 76.5081 24.6524 76.7285C25.1435 76.9432 25.5738 77.2506 25.9435 77.6509C26.3187 78.0454 26.6111 78.5123 26.8208 79.0518C27.0359 79.5855 27.1435 80.1656 27.1435 80.7921C27.1435 81.6797 26.9532 82.4686 26.5725 83.1589C26.1973 83.8435 25.6649 84.3801 24.9752 84.7687C24.2911 85.1574 23.491 85.3517 22.5752 85.3517Z" fill="var(--fill-0, #1FD9FE)"/>
<path id="9" d="M92.9168 110.07C91.2922 110.07 89.8541 109.76 88.6027 109.141C87.3623 108.522 86.3689 107.676 85.6224 106.603C84.8759 105.519 84.4314 104.302 84.2887 102.953H89.0144C89.201 103.915 89.6346 104.684 90.3152 105.259C91.0068 105.834 91.8904 106.122 92.9662 106.122C94.1298 106.122 95.0903 105.801 95.8478 105.159C96.6162 104.518 97.187 103.617 97.5602 102.455C97.9334 101.294 98.1201 99.9445 98.1201 98.4072H98.0871C97.681 99.0376 97.187 99.563 96.6052 99.9832C96.0234 100.404 95.3702 100.724 94.6457 100.945C93.9212 101.156 93.1309 101.261 92.2746 101.261C90.7049 101.261 89.2998 100.907 88.0594 100.199C86.8189 99.48 85.8419 98.5012 85.1284 97.2624C84.4259 96.0126 84.0746 94.5969 84.0746 93.0153C84.0746 91.3341 84.4588 89.8576 85.2272 88.5857C86.0066 87.3138 87.0769 86.3239 88.4381 85.616C89.8102 84.9082 91.38 84.5542 93.1473 84.5542C94.6842 84.5542 96.0454 84.8252 97.2309 85.3672C98.4274 85.9091 99.4373 86.6999 100.261 87.7396C101.095 88.7792 101.726 90.0512 102.154 91.5553C102.593 93.0485 102.813 94.7573 102.813 96.6818C102.813 98.7168 102.599 100.558 102.171 102.206C101.743 103.843 101.111 105.253 100.277 106.437C99.4428 107.609 98.4055 108.511 97.165 109.141C95.9356 109.76 94.5195 110.07 92.9168 110.07ZM93.1309 97.4117C93.7456 97.4117 94.3109 97.3011 94.8269 97.0799C95.3538 96.8587 95.8093 96.549 96.1935 96.1509C96.5887 95.7527 96.8961 95.2882 97.1156 94.7573C97.3352 94.2153 97.445 93.6291 97.445 92.9987C97.445 92.1581 97.2583 91.406 96.8851 90.7424C96.5119 90.0677 96.0014 89.5369 95.3538 89.1498C94.7061 88.7626 93.9816 88.5691 93.1803 88.5691C92.368 88.5691 91.638 88.7626 90.9903 89.1498C90.3426 89.5369 89.8267 90.0677 89.4425 90.7424C89.0693 91.406 88.8827 92.1637 88.8827 93.0153C88.8827 93.8559 89.0693 94.608 89.4425 95.2716C89.8157 95.9352 90.3207 96.4606 90.9574 96.8477C91.605 97.2237 92.3295 97.4117 93.1309 97.4117Z" fill="var(--fill-0, #1FD9FE)"/>
<path id="F" d="M31.5293 104.488V81.3645H47.8754V85.4616H36.3889V91.1417H47.0865V95.1147H36.3889V104.488H31.5293Z" fill="var(--fill-0, #1FD9FE)"/>
<path id="B" d="M29.9341 72.1953V53.0583H37.7785C39.1801 53.0583 40.3714 53.2638 41.3525 53.6748C42.3424 54.0858 43.0913 54.6595 43.5994 55.3959C44.1075 56.1322 44.3615 56.9928 44.3615 57.9774C44.3615 58.7138 44.217 59.3688 43.9279 59.9425C43.6476 60.5076 43.2446 60.9786 42.719 61.3553C42.1934 61.7321 41.5715 62.0103 40.8532 62.1901V62.2158C41.6503 62.2843 42.3686 62.5112 43.0081 62.8965C43.6476 63.2733 44.1513 63.7913 44.5192 64.4506C44.8958 65.1099 45.0842 65.8934 45.0842 66.801C45.0842 67.8627 44.8214 68.8003 44.2958 69.6137C43.779 70.4272 43.0081 71.0608 41.9832 71.5146C40.9583 71.9684 39.7057 72.1953 38.2252 72.1953H29.9341ZM33.8891 69.0871H37.6602C38.7027 69.0871 39.5129 68.8688 40.0911 68.4321C40.6692 67.9954 40.9583 67.379 40.9583 66.5826C40.9583 66.0518 40.8313 65.5937 40.5773 65.2084C40.3232 64.8145 39.9553 64.5148 39.4735 64.3093C38.9917 64.0953 38.4092 63.9882 37.7259 63.9882H33.8891V69.0871ZM33.8891 61.0085H37.4763C38.072 61.0085 38.58 60.9101 39.0005 60.7131C39.4297 60.5162 39.7582 60.2379 39.986 59.8783C40.2225 59.5101 40.3407 59.082 40.3407 58.5939C40.3407 57.849 40.0867 57.2582 39.5786 56.8215C39.0706 56.3848 38.3698 56.1665 37.4763 56.1665H33.8891V61.0085Z" fill="var(--fill-0, #1FD9FE)"/>
<path id="1" d="M31.4482 26.7448V43.4897H28.1701V29.9252H28.148L24.2719 32.4201V29.3858L28.3584 26.7448H31.4482Z" fill="var(--fill-0, #1FD9FE)"/>
<path id="10" d="M133.593 38.7052V79.3712H125.58V46.429H125.526L116.051 52.488V45.119L126.04 38.7052H133.593Z" fill="var(--fill-0, #1FD9FE)"/>
<path id="U" d="M70.5139 36.313C69.144 36.313 67.9508 36.0563 66.9345 35.543C65.9254 35.0221 65.1411 34.3012 64.5813 33.3802C64.0216 32.4517 63.7417 31.3798 63.7417 30.1644V19.1695H67.067V29.8813C67.067 30.5456 67.207 31.1344 67.4868 31.6478C67.7741 32.1611 68.1755 32.5649 68.691 32.8594C69.2139 33.1538 69.8215 33.301 70.5139 33.301C71.2135 33.301 71.8212 33.1538 72.3367 32.8594C72.8523 32.5649 73.2536 32.1611 73.5409 31.6478C73.8281 31.1344 73.9717 30.5456 73.9717 29.8813V19.1695H77.2971V30.1644C77.2971 31.3798 77.0172 32.4517 76.4574 33.3802C75.8977 34.3012 75.1096 35.0221 74.0933 35.543C73.0769 36.0563 71.8838 36.313 70.5139 36.313Z" fill="var(--fill-0, #1FD9FE)"/>
<path id="7" d="M108.787 123.962L120.468 100.938V100.9H106.881V96.1162H126.261V100.844L114.618 123.962H108.787Z" fill="var(--fill-0, #1FD9FE)"/>
<path id="V" d="M99.6864 87.7437L88.143 55.0514H95.537L100.856 70.9588C101.489 72.9335 102.144 75.0837 102.821 77.4095C103.512 79.7206 104.263 82.2438 105.072 84.9792H103.108C103.887 82.2438 104.608 79.7206 105.271 77.4095C105.947 75.0837 106.588 72.9335 107.191 70.9588L112.333 55.0514H119.639L108.339 87.7437H99.6864Z" fill="var(--fill-0, #1FD9FE)"/>
<path id="S" d="M99.3763 56.6464C98.1029 56.6464 97.0162 56.4494 96.1161 56.0554C95.2161 55.6548 94.5261 55.0769 94.046 54.3217C93.566 53.5665 93.326 52.657 93.326 51.5931H96.2961C96.3095 52.1316 96.4395 52.5913 96.6862 52.9722C96.9395 53.3531 97.2962 53.6453 97.7562 53.8489C98.2162 54.0524 98.7629 54.1542 99.3963 54.1542C99.9697 54.1542 100.466 54.0787 100.886 53.9277C101.313 53.7701 101.643 53.5501 101.876 53.2677C102.116 52.9853 102.236 52.6537 102.236 52.2728C102.236 51.9576 102.143 51.685 101.956 51.4552C101.776 51.2188 101.49 51.0119 101.096 50.8346C100.71 50.6573 100.2 50.503 99.5663 50.3716L97.9962 50.0367C96.5162 49.7215 95.4161 49.2257 94.6961 48.5493C93.976 47.8729 93.616 47.0093 93.616 45.9586C93.616 45.0655 93.8527 44.2873 94.326 43.624C94.7994 42.9542 95.4594 42.4321 96.3061 42.0578C97.1595 41.6835 98.1496 41.4963 99.2763 41.4963C100.416 41.4963 101.403 41.6868 102.236 42.0677C103.07 42.4485 103.717 42.9936 104.177 43.7028C104.643 44.4055 104.893 45.2494 104.927 46.2344H102.046C101.993 45.5383 101.72 44.99 101.226 44.5894C100.733 44.1888 100.086 43.9885 99.2863 43.9885C98.7863 43.9885 98.3396 44.0673 97.9462 44.2249C97.5595 44.376 97.2529 44.5894 97.0262 44.8652C96.8062 45.141 96.6962 45.4562 96.6962 45.8109C96.6962 46.1129 96.7828 46.3756 96.9562 46.5989C97.1295 46.8156 97.4062 47.006 97.7862 47.1702C98.1662 47.3344 98.6596 47.4822 99.2663 47.6135L100.696 47.9189C101.49 48.0896 102.176 48.2997 102.756 48.5493C103.336 48.7923 103.813 49.0845 104.187 49.426C104.56 49.7609 104.837 50.1484 105.017 50.5884C105.197 51.0283 105.287 51.5241 105.287 52.0758C105.287 53.0149 105.047 53.8292 104.567 54.5187C104.093 55.2017 103.413 55.727 102.526 56.0948C101.646 56.4625 100.596 56.6464 99.3763 56.6464Z" fill="var(--fill-0, #1FD9FE)"/>
<path id="C" d="M76.2564 128.846C73.7147 128.846 71.441 128.266 69.4351 127.108C67.4416 125.937 65.8718 124.279 64.7256 122.137C63.5918 119.981 63.0249 117.433 63.0249 114.493C63.0249 111.528 63.5918 108.967 64.7256 106.812C65.8718 104.657 67.4416 103 69.4351 101.841C71.441 100.682 73.7147 100.103 76.2564 100.103C77.8885 100.103 79.4022 100.346 80.7976 100.832C82.193 101.318 83.4265 102.009 84.4979 102.906C85.5819 103.803 86.4665 104.881 87.1517 106.139C87.8369 107.398 88.2917 108.805 88.516 110.363H82.7039C82.5419 109.541 82.274 108.812 81.9003 108.176C81.5265 107.528 81.0655 106.986 80.5173 106.55C79.9691 106.102 79.3399 105.765 78.6298 105.541C77.9321 105.304 77.1659 105.186 76.3311 105.186C74.7488 105.186 73.397 105.566 72.2757 106.326C71.1669 107.086 70.3134 108.164 69.7154 109.559C69.1174 110.942 68.8184 112.587 68.8184 114.493C68.8184 116.387 69.1111 118.025 69.6967 119.408C70.2947 120.791 71.1544 121.862 72.2757 122.622C73.397 123.382 74.7488 123.762 76.3311 123.762C77.1659 123.762 77.9321 123.65 78.6298 123.426C79.3275 123.202 79.9504 122.865 80.4986 122.417C81.0468 121.968 81.5078 121.426 81.8816 120.791C82.2553 120.156 82.5357 119.433 82.7225 118.623H88.516C88.2917 120.168 87.8369 121.57 87.1517 122.828C86.4665 124.086 85.5819 125.164 84.4979 126.061C83.414 126.958 82.1744 127.65 80.779 128.136C79.396 128.609 77.8885 128.846 76.2564 128.846Z" fill="var(--fill-0, #1FD9FE)"/>
<path id="0" d="M49.5757 38.7428C47.2459 38.7428 45.2338 38.1635 43.5394 37.0048C41.8574 35.8336 40.5617 34.1766 39.6522 32.0337C38.7551 29.8907 38.3066 27.3429 38.3066 24.3901C38.3066 21.4249 38.7551 18.8708 39.6522 16.7278C40.5617 14.5849 41.8574 12.9279 43.5394 11.7567C45.2213 10.5856 47.2335 10 49.5757 10C51.9056 10 53.9115 10.5856 55.5934 11.7567C57.2878 12.9154 58.5836 14.5724 59.4806 16.7278C60.3901 18.8708 60.8449 21.4249 60.8449 24.3901C60.8449 27.3429 60.3901 29.8907 59.4806 32.0337C58.5836 34.1766 57.2878 35.8336 55.5934 37.0048C53.9115 38.1635 51.9056 38.7428 49.5757 38.7428ZM49.5757 34.1454C50.7843 34.1454 51.8246 33.753 52.6967 32.9681C53.5688 32.1832 54.2416 31.0619 54.7151 29.6042C55.1885 28.1465 55.4252 26.4084 55.4252 24.3901C55.4252 22.3593 55.1885 20.615 54.7151 19.1573C54.2416 17.6996 53.5688 16.5783 52.6967 15.7934C51.8246 14.996 50.7843 14.5974 49.5757 14.5974C48.3672 14.5974 47.3207 14.996 46.4361 15.7934C45.564 16.5783 44.8912 17.6996 44.4177 19.1573C43.9568 20.615 43.7263 22.3593 43.7263 24.3901C43.7263 26.4084 43.9568 28.1465 44.4177 29.6042C44.8912 31.0619 45.564 32.1832 46.4361 32.9681C47.3207 33.753 48.3672 34.1454 49.5757 34.1454Z" fill="var(--fill-0, #1FD9FE)"/>
<path id="6" d="M97.5183 46.3177C95.7741 46.3177 94.2229 46.0125 92.8649 45.402C91.5193 44.7915 90.3731 43.9007 89.4262 42.7296C88.4918 41.5584 87.7754 40.1319 87.2771 38.4499C86.7912 36.7555 86.5482 34.8243 86.5482 32.6565C86.5482 30.364 86.7849 28.2959 87.2584 26.4519C87.7443 24.5955 88.4607 23.007 89.4076 21.6864C90.3544 20.3533 91.5256 19.3379 92.921 18.6402C94.3164 17.93 95.9236 17.5749 97.7426 17.5749C99.599 17.5749 101.225 17.9238 102.62 18.6215C104.028 19.3192 105.156 20.2723 106.003 21.4808C106.85 22.6893 107.355 24.0598 107.517 25.5923H102.134C101.935 24.4959 101.449 23.63 100.677 22.9946C99.9042 22.3467 98.9075 22.0228 97.6865 22.0228C96.3659 22.0228 95.2695 22.3841 94.3974 23.1067C93.5377 23.8293 92.8961 24.8447 92.4725 26.1529C92.0488 27.4486 91.837 28.9686 91.837 30.7129H91.8744C92.3354 30.0027 92.8961 29.4047 93.5564 28.9188C94.2292 28.4329 94.9829 28.0654 95.8177 27.8162C96.6524 27.567 97.5495 27.4424 98.5088 27.4424C100.303 27.4424 101.898 27.8473 103.293 28.6572C104.701 29.4545 105.804 30.5572 106.601 31.965C107.411 33.3604 107.816 34.9552 107.816 36.7493C107.816 38.643 107.373 40.3125 106.489 41.7578C105.617 43.1905 104.408 44.3118 102.863 45.1217C101.318 45.919 99.5367 46.3177 97.5183 46.3177ZM97.481 41.7951C98.4029 41.7951 99.2314 41.5771 99.9665 41.141C100.702 40.6925 101.281 40.0883 101.705 39.3283C102.141 38.5558 102.359 37.6961 102.359 36.7493C102.359 35.8024 102.147 34.9552 101.723 34.2076C101.312 33.4476 100.739 32.8496 100.004 32.4135C99.2813 31.9775 98.459 31.7594 97.537 31.7594C96.8393 31.7594 96.1915 31.8903 95.5934 32.1519C95.0079 32.4011 94.4908 32.7499 94.0423 33.1985C93.6062 33.647 93.2636 34.1765 93.0144 34.787C92.7652 35.3975 92.6406 36.0578 92.6406 36.7679C92.6406 37.7148 92.8525 38.5683 93.2761 39.3283C93.6997 40.0883 94.279 40.6925 95.0141 41.141C95.7492 41.5771 96.5714 41.7951 97.481 41.7951Z" fill="var(--fill-0, #1FD9FE)"/>
</g>
<defs>
<filter id="filter0_f_2008_125" x="1.32131e-08" y="2.60909e-07" width="143.593" height="138.846" filterUnits="userSpaceOnUse" color-interpolation-filters="sRGB">
<feFlood flood-opacity="0" result="BackgroundImageFix"/>
<feBlend mode="normal" in="SourceGraphic" in2="BackgroundImageFix" result="shape"/>
<feGaussianBlur stdDeviation="5" result="effect1_foregroundBlur_2008_125"/>
</filter>
</defs>
</svg>
