<svg preserveAspectRatio="none" width="100%" height="100%" overflow="visible" style="display: block;" viewBox="0 0 123.593 118.846" fill="none" xmlns="http://www.w3.org/2000/svg">
<g id="Numbers">
<path id="E" d="M0.000118269 58.5443V30.6985H19.978V35.6323H5.75615V42.0798H18.9128V46.8827H5.75615V53.6106H19.978V58.5443H0.000118269Z" fill="var(--fill-0, #1FD9FE)"/>
<path id="4" d="M28.3067 40.5849V36.1371L40.5663 18.7382H44.1732V24.2326H42.1735L33.8572 36.081V36.1184H51.2561V40.5849H28.3067ZM42.2109 46.5839V18.7382H47.6119V46.5839H42.2109Z" fill="var(--fill-0, #1FD9FE)"/>
<path id="Q" d="M37.376 109.675H41.0649L43.0229 112.217L44.768 114.285L48.3718 118.809H44.3991L42.0297 115.764L40.6677 114.07L37.376 109.675ZM39.0644 117.373C37.1726 117.373 35.4748 116.927 33.9709 116.037C32.4669 115.137 31.2798 113.864 30.4096 112.217C29.5394 110.561 29.1043 108.603 29.1043 106.344C29.1043 104.065 29.5394 102.103 30.4096 100.456C31.2798 98.7997 32.4669 97.5264 33.9709 96.6361C35.4748 95.7361 37.1726 95.2862 39.0644 95.2862C40.9656 95.2862 42.6682 95.7361 44.1721 96.6361C45.6761 97.5264 46.8631 98.7997 47.7333 100.456C48.6036 102.103 49.0387 104.065 49.0387 106.344C49.0387 108.613 48.6036 110.571 47.7333 112.217C46.8631 113.864 45.6761 115.137 44.1721 116.037C42.6682 116.927 40.9656 117.373 39.0644 117.373ZM39.0644 113.467C40.1522 113.467 41.1169 113.189 41.9588 112.634C42.8006 112.078 43.458 111.269 43.9309 110.207C44.4039 109.144 44.6403 107.856 44.6403 106.344C44.6403 104.822 44.4039 103.529 43.9309 102.466C43.458 101.394 42.8006 100.58 41.9588 100.025C41.1169 99.4699 40.1522 99.1922 39.0644 99.1922C37.9861 99.1922 37.026 99.4699 36.1842 100.025C35.3518 100.58 34.6945 101.394 34.2121 102.466C33.7391 103.529 33.5027 104.822 33.5027 106.344C33.5027 107.856 33.7391 109.144 34.2121 110.207C34.6945 111.269 35.3518 112.078 36.1842 112.634C37.026 113.189 37.9861 113.467 39.0644 113.467Z" fill="var(--fill-0, #1FD9FE)"/>
<path id="8" d="M56.3838 98.0767C52.952 98.0767 49.9288 97.5363 47.3141 96.4555C44.7198 95.3543 42.6975 93.8249 41.2471 91.8672C39.7968 89.9095 39.0716 87.6562 39.0716 85.1072C39.0716 83.0271 39.5312 81.1816 40.4505 79.5707C41.3697 77.9597 42.6566 76.6342 44.3112 75.5942C45.9863 74.5542 47.9167 73.9016 50.1024 73.6365V73.6671C47.2221 73.2185 44.9138 72.0969 43.1775 70.3024C41.4616 68.4874 40.6037 66.1831 40.6037 63.3894C40.6037 60.9831 41.2675 58.8521 42.5953 56.9964C43.9435 55.1203 45.8024 53.6623 48.172 52.6222C50.562 51.5618 53.2993 51.0317 56.3838 51.0317C59.5296 51.0317 62.2873 51.5517 64.6569 52.5917C67.0265 53.6317 68.8752 55.0795 70.203 56.9352C71.5307 58.7909 72.1946 60.9423 72.1946 63.3894C72.1946 66.1627 71.3367 68.4569 69.6208 70.2718C67.9049 72.0663 65.6068 73.1981 62.7265 73.6671V73.6365C64.9123 73.9016 66.8324 74.5542 68.4871 75.5942C70.1417 76.6342 71.4286 77.9699 72.3478 79.6012C73.2875 81.2122 73.7573 83.0475 73.7573 85.1072C73.7573 87.6562 73.0219 89.9095 71.5512 91.8672C70.1008 93.8249 68.0683 95.3543 65.4536 96.4555C62.8593 97.5363 59.8361 98.0767 56.3838 98.0767ZM56.3838 91.2248C57.9567 91.2248 59.3356 90.9495 60.5204 90.399C61.7052 89.828 62.6244 89.0327 63.2781 88.0131C63.9522 86.9731 64.2892 85.7903 64.2892 84.4648C64.2892 83.0781 63.9522 81.8648 63.2781 80.8248C62.604 79.7644 61.6745 78.9385 60.4897 78.3471C59.3049 77.7353 57.9363 77.4295 56.3838 77.4295C54.8518 77.4295 53.4933 77.7353 52.3086 78.3471C51.1238 78.9385 50.1943 79.7644 49.5202 80.8248C48.8461 81.8648 48.5091 83.0781 48.5091 84.4648C48.5091 85.8107 48.8359 86.9934 49.4896 88.0131C50.1637 89.0327 51.0931 89.828 52.2779 90.399C53.4627 90.9495 54.8313 91.2248 56.3838 91.2248ZM56.3838 70.4553C57.7525 70.4553 58.9475 70.2004 59.9688 69.6906C60.9902 69.1808 61.7767 68.4569 62.3282 67.5188C62.9002 66.5604 63.1861 65.4592 63.1861 64.2153C63.1861 62.9713 62.9002 61.8905 62.3282 60.9729C61.7767 60.0348 60.9902 59.3109 59.9688 58.8011C58.9679 58.2913 57.7729 58.0364 56.3838 58.0364C55.0356 58.0364 53.8508 58.2913 52.8295 58.8011C51.8081 59.3109 51.0114 60.0348 50.4395 60.9729C49.8879 61.8905 49.6121 62.9713 49.6121 64.2153C49.6121 65.4592 49.8879 66.5502 50.4395 67.4882C51.0114 68.4263 51.8081 69.1604 52.8295 69.6906C53.8508 70.2004 55.0356 70.4553 56.3838 70.4553Z" fill="var(--fill-0, #1FD9FE)"/>
<path id="5" d="M69.9963 53.8227C68.5851 53.8227 67.338 53.5537 66.2552 53.0158C65.1724 52.4779 64.3114 51.7248 63.6724 50.7566C63.0333 49.7884 62.6739 48.6587 62.594 47.3678H66.4682C66.5037 47.9864 66.6768 48.5422 66.9875 49.0353C67.2981 49.5194 67.7153 49.9049 68.2389 50.1918C68.7626 50.4697 69.3573 50.6087 70.0229 50.6087C70.7064 50.6087 71.3055 50.4518 71.8203 50.138C72.3439 49.8153 72.7478 49.376 73.0318 48.8201C73.3247 48.2553 73.4711 47.6098 73.4711 46.8836C73.4711 46.1395 73.3291 45.4851 73.0451 44.9203C72.7611 44.3555 72.3661 43.9117 71.8602 43.5889C71.3543 43.2662 70.7685 43.1048 70.1028 43.1048C69.233 43.1048 68.4874 43.2931 67.8661 43.6696C67.2537 44.0372 66.8321 44.5527 66.6014 45.2161H62.8736L63.486 33.4897H76.1871V36.8382H67.094L66.7345 41.5718H66.7611C67.2759 41.0428 67.8706 40.6484 68.5451 40.3884C69.2286 40.1194 69.983 39.9849 70.8084 39.9849C71.7049 39.9849 72.5481 40.1553 73.338 40.496C74.1279 40.8277 74.8202 41.3028 75.4149 41.9214C76.0185 42.5311 76.4889 43.2527 76.8262 44.0865C77.1723 44.9113 77.3454 45.8078 77.3454 46.7761C77.3454 48.1477 77.0392 49.367 76.4267 50.4339C75.8232 51.4917 74.9667 52.321 73.8572 52.9217C72.7567 53.5224 71.4697 53.8227 69.9963 53.8227Z" fill="var(--fill-0, #1FD9FE)"/>
<path id="11" d="M12.5753 75.3517C11.698 75.3517 10.9229 75.1777 10.2497 74.8297C9.57663 74.4816 9.04145 73.9943 8.6442 73.3678C8.24695 72.7413 8.0235 72.0104 7.97384 71.175H10.3822C10.4042 71.5753 10.5118 71.935 10.7049 72.254C10.898 72.5673 11.1573 72.8167 11.4829 73.0023C11.8084 73.1822 12.178 73.2721 12.5918 73.2721C13.0167 73.2721 13.3891 73.1706 13.7091 72.9675C14.0346 72.7587 14.2857 72.4745 14.4622 72.1148C14.6443 71.7493 14.7353 71.3317 14.7353 70.8618C14.7353 70.3803 14.647 69.9568 14.4705 69.5914C14.2939 69.2259 14.0484 68.9387 13.7339 68.7299C13.4194 68.5211 13.0553 68.4167 12.6415 68.4167C12.1008 68.4167 11.6373 68.5385 11.2511 68.7821C10.8704 69.02 10.6084 69.3535 10.4649 69.7828H8.14764L8.52834 62.1951H16.4236V64.3618H10.7711L10.5477 67.4247H10.5642C10.8842 67.0824 11.2539 66.8272 11.6732 66.659C12.098 66.4849 12.567 66.3979 13.0801 66.3979C13.6374 66.3979 14.1615 66.5081 14.6526 66.7286C15.1436 66.9432 15.574 67.2507 15.9436 67.6509C16.3188 68.0454 16.6112 68.5124 16.8209 69.0519C17.036 69.5856 17.1436 70.1657 17.1436 70.7922C17.1436 71.6797 16.9533 72.4687 16.5726 73.159C16.1974 73.8435 15.665 74.3801 14.9753 74.7687C14.2912 75.1574 13.4912 75.3517 12.5753 75.3517Z" fill="var(--fill-0, #1FD9FE)"/>
<path id="9" d="M82.9169 100.07C81.2923 100.07 79.8543 99.7605 78.6029 99.1411C77.3624 98.5218 76.369 97.6756 75.6225 96.6028C74.8761 95.5189 74.4315 94.3023 74.2888 92.9529H79.0145C79.2011 93.9152 79.6347 94.6839 80.3153 95.259C81.0069 95.8341 81.8906 96.1217 82.9663 96.1217C84.1299 96.1217 85.0904 95.8009 85.8479 95.1594C86.6163 94.518 87.1871 93.6165 87.5603 92.4552C87.9336 91.2939 88.1202 89.9446 88.1202 88.4072H88.0872C87.6811 89.0376 87.1871 89.563 86.6053 89.9833C86.0235 90.4036 85.3704 90.7243 84.6459 90.9455C83.9214 91.1556 83.131 91.2607 82.2748 91.2607C80.705 91.2607 79.2999 90.9068 78.0595 90.1989C76.819 89.48 75.8421 88.5012 75.1285 87.2624C74.426 86.0126 74.0747 84.5969 74.0747 83.0153C74.0747 81.3342 74.4589 79.8576 75.2273 78.5857C76.0067 77.3138 77.077 76.3239 78.4382 75.616C79.8104 74.9082 81.3801 74.5543 83.1475 74.5543C84.6843 74.5543 86.0455 74.8252 87.231 75.3672C88.4275 75.9091 89.4375 76.6999 90.2608 77.7396C91.095 78.7793 91.7262 80.0512 92.1543 81.5554C92.5934 83.0485 92.813 84.7573 92.813 86.6818C92.813 88.7169 92.5989 90.5584 92.1708 92.2064C91.7427 93.8433 91.1115 95.2535 90.2772 96.4369C89.4429 97.6093 88.4056 98.5107 87.1652 99.1411C85.9357 99.7605 84.5196 100.07 82.9169 100.07ZM83.131 87.4118C83.7457 87.4118 84.3111 87.3012 84.827 87.08C85.3539 86.8588 85.8095 86.5491 86.1937 86.1509C86.5888 85.7527 86.8962 85.2882 87.1158 84.7573C87.3353 84.2154 87.4451 83.6292 87.4451 82.9987C87.4451 82.1582 87.2585 81.4061 86.8852 80.7424C86.512 80.0678 86.0016 79.5369 85.3539 79.1498C84.7062 78.7627 83.9817 78.5691 83.1804 78.5691C82.3681 78.5691 81.6381 78.7627 80.9904 79.1498C80.3428 79.5369 79.8268 80.0678 79.4426 80.7424C79.0694 81.4061 78.8828 82.1637 78.8828 83.0153C78.8828 83.8559 79.0694 84.608 79.4426 85.2716C79.8158 85.9352 80.3208 86.4606 80.9575 86.8477C81.6051 87.2237 82.3296 87.4118 83.131 87.4118Z" fill="var(--fill-0, #1FD9FE)"/>
<path id="F" d="M21.5294 94.4884V71.3645H37.8755V75.4616H26.3891V81.1417H37.0866V85.1147H26.3891V94.4884H21.5294Z" fill="var(--fill-0, #1FD9FE)"/>
<path id="B" d="M19.9342 62.1953V43.0584H27.7786C29.1802 43.0584 30.3715 43.2639 31.3526 43.6749C32.3425 44.0859 33.0914 44.6595 33.5995 45.3959C34.1076 46.1323 34.3616 46.9928 34.3616 47.9775C34.3616 48.7138 34.2171 49.3689 33.928 49.9425C33.6477 50.5077 33.2447 50.9786 32.7191 51.3553C32.1936 51.7321 31.5716 52.0104 30.8533 52.1902V52.2159C31.6505 52.2844 32.3688 52.5113 33.0082 52.8966C33.6477 53.2733 34.1514 53.7913 34.5193 54.4506C34.896 55.1099 35.0843 55.8934 35.0843 56.801C35.0843 57.8628 34.8215 58.8003 34.2959 59.6138C33.7791 60.4272 33.0082 61.0608 31.9833 61.5146C30.9584 61.9684 29.7058 62.1953 28.2254 62.1953H19.9342ZM23.8893 59.0872H27.6604C28.7028 59.0872 29.5131 58.8688 30.0912 58.4322C30.6694 57.9955 30.9584 57.379 30.9584 56.5827C30.9584 56.0518 30.8314 55.5937 30.5774 55.2084C30.3233 54.8145 29.9554 54.5149 29.4736 54.3094C28.9919 54.0953 28.4093 53.9883 27.7261 53.9883H23.8893V59.0872ZM23.8893 51.0086H27.4764C28.0721 51.0086 28.5801 50.9101 29.0006 50.7132C29.4298 50.5162 29.7583 50.2379 29.9861 49.8783C30.2226 49.5101 30.3409 49.082 30.3409 48.594C30.3409 47.849 30.0868 47.2582 29.5788 46.8215C29.0707 46.3849 28.3699 46.1665 27.4764 46.1665H23.8893V51.0086Z" fill="var(--fill-0, #1FD9FE)"/>
<path id="1" d="M21.4484 16.7449V33.4897H18.1703V19.9252H18.1481L14.272 22.4201V19.3858L18.3585 16.7449H21.4484Z" fill="var(--fill-0, #1FD9FE)"/>
<path id="10" d="M123.593 28.7052V69.3712H115.58V36.429H115.526L106.051 42.488V35.119L116.04 28.7052H123.593Z" fill="var(--fill-0, #1FD9FE)"/>
<path id="U" d="M60.514 26.313C59.1441 26.313 57.9509 26.0563 56.9346 25.543C55.9256 25.0221 55.1412 24.3012 54.5814 23.3803C54.0217 22.4517 53.7418 21.3798 53.7418 20.1644V9.16948H57.0671V19.8813C57.0671 20.5456 57.2071 21.1345 57.4869 21.6478C57.7742 22.1611 58.1756 22.565 58.6911 22.8594C59.214 23.1538 59.8217 23.301 60.514 23.301C61.2137 23.301 61.8213 23.1538 62.3368 22.8594C62.8524 22.565 63.2538 22.1611 63.541 21.6478C63.8282 21.1345 63.9719 20.5456 63.9719 19.8813V9.16948H67.2972V20.1644C67.2972 21.3798 67.0173 22.4517 66.4576 23.3803C65.8978 24.3012 65.1098 25.0221 64.0934 25.543C63.077 26.0563 61.8839 26.313 60.514 26.313Z" fill="var(--fill-0, #1FD9FE)"/>
<path id="7" d="M98.7874 113.962L110.468 90.9379V90.9005H96.8812V86.1163H116.261V90.8444L104.618 113.962H98.7874Z" fill="var(--fill-0, #1FD9FE)"/>
<path id="V" d="M89.6866 77.7438L78.1431 45.0515H85.5371L90.8563 60.9588C91.4891 62.9335 92.1439 65.0837 92.8207 67.4095C93.5123 69.7206 94.2627 72.2438 95.072 74.9792H93.1077C93.8875 72.2438 94.6085 69.7206 95.2707 67.4095C95.9475 65.0837 96.5876 62.9335 97.1909 60.9588L102.334 45.0515H109.639L98.3386 77.7438H89.6866Z" fill="var(--fill-0, #1FD9FE)"/>
<path id="S" d="M89.3764 46.6464C88.103 46.6464 87.0163 46.4494 86.1163 46.0554C85.2162 45.6548 84.5262 45.0769 84.0462 44.3217C83.5661 43.5665 83.3261 42.657 83.3261 41.5931H86.2963C86.3096 42.1316 86.4396 42.5913 86.6863 42.9722C86.9396 43.3531 87.2963 43.6453 87.7563 43.8489C88.2164 44.0525 88.7631 44.1543 89.3964 44.1543C89.9698 44.1543 90.4665 44.0787 90.8865 43.9277C91.3132 43.7701 91.6432 43.5501 91.8765 43.2677C92.1166 42.9853 92.2366 42.6537 92.2366 42.2728C92.2366 41.9576 92.1432 41.6851 91.9565 41.4552C91.7765 41.2188 91.4899 41.0119 91.0965 40.8346C90.7098 40.6573 90.1998 40.503 89.5664 40.3717L87.9964 40.0367C86.5163 39.7215 85.4162 39.2257 84.6962 38.5493C83.9762 37.8729 83.6161 37.0094 83.6161 35.9586C83.6161 35.0655 83.8528 34.2873 84.3262 33.6241C84.7995 32.9542 85.4596 32.4322 86.3063 32.0578C87.1596 31.6835 88.1497 31.4964 89.2764 31.4964C90.4165 31.4964 91.4032 31.6868 92.2366 32.0677C93.0699 32.4486 93.7166 32.9936 94.1767 33.7029C94.6433 34.4055 94.8934 35.2494 94.9267 36.2345H92.0466C91.9932 35.5383 91.7199 34.99 91.2265 34.5894C90.7332 34.1888 90.0865 33.9885 89.2864 33.9885C88.7864 33.9885 88.3397 34.0673 87.9463 34.2249C87.5597 34.376 87.253 34.5894 87.0263 34.8652C86.8063 35.141 86.6963 35.4563 86.6963 35.8109C86.6963 36.113 86.783 36.3756 86.9563 36.5989C87.1296 36.8156 87.4063 37.0061 87.7863 37.1702C88.1664 37.3344 88.6597 37.4822 89.2664 37.6135L90.6965 37.9189C91.4899 38.0896 92.1766 38.2998 92.7566 38.5493C93.3366 38.7923 93.8133 39.0845 94.1867 39.426C94.56 39.7609 94.8367 40.1484 95.0167 40.5884C95.1967 41.0284 95.2867 41.5242 95.2867 42.0758C95.2867 43.0149 95.0467 43.8292 94.5667 44.5187C94.0933 45.2017 93.4133 45.7271 92.5266 46.0948C91.6465 46.4626 90.5965 46.6464 89.3764 46.6464Z" fill="var(--fill-0, #1FD9FE)"/>
<path id="C" d="M66.2565 118.846C63.7148 118.846 61.4411 118.266 59.4352 117.108C57.4418 115.937 55.8719 114.28 54.7257 112.137C53.5919 109.981 53.0251 107.433 53.0251 104.493C53.0251 101.528 53.5919 98.9674 54.7257 96.8121C55.8719 94.6567 57.4418 92.9996 59.4352 91.8409C61.4411 90.6822 63.7148 90.1029 66.2565 90.1029C67.8886 90.1029 69.4024 90.3459 70.7978 90.8318C72.1932 91.3177 73.4266 92.0091 74.4981 92.9062C75.582 93.8032 76.4666 94.8809 77.1518 96.1393C77.8371 97.3976 78.2918 98.8055 78.5161 100.363H72.704C72.542 99.5406 72.2741 98.8117 71.9004 98.1763C71.5266 97.5284 71.0656 96.9865 70.5174 96.5504C69.9692 96.1019 69.3401 95.7655 68.6299 95.5412C67.9322 95.3045 67.166 95.1862 66.3312 95.1862C64.7489 95.1862 63.3971 95.5662 62.2758 96.3262C61.167 97.0861 60.3135 98.1638 59.7155 99.5592C59.1175 100.942 58.8185 102.587 58.8185 104.493C58.8185 106.387 59.1113 108.025 59.6968 109.408C60.2949 110.791 61.1545 111.862 62.2758 112.622C63.3971 113.382 64.7489 113.762 66.3312 113.762C67.166 113.762 67.9322 113.65 68.6299 113.426C69.3276 113.202 69.9505 112.865 70.4987 112.417C71.0469 111.968 71.5079 111.426 71.8817 110.791C72.2555 110.156 72.5358 109.433 72.7227 108.623H78.5161C78.2918 110.168 77.8371 111.57 77.1518 112.828C76.4666 114.086 75.582 115.164 74.4981 116.061C73.4141 116.958 72.1745 117.65 70.7791 118.136C69.3961 118.609 67.8886 118.846 66.2565 118.846Z" fill="var(--fill-0, #1FD9FE)"/>
<path id="0" d="M39.5759 28.7428C37.246 28.7428 35.2339 28.1635 33.5395 27.0048C31.8575 25.8337 30.5618 24.1766 29.6523 22.0337C28.7553 19.8907 28.3067 17.3429 28.3067 14.3901C28.3067 11.4249 28.7553 8.8708 29.6523 6.72786C30.5618 4.58492 31.8575 2.92788 33.5395 1.75674C35.2215 0.585596 37.2336 2.50564e-05 39.5759 2.50564e-05C41.9057 2.50564e-05 43.9116 0.585596 45.5935 1.75674C47.2879 2.91542 48.5837 4.57246 49.4807 6.72786C50.3902 8.8708 50.845 11.4249 50.845 14.3901C50.845 17.3429 50.3902 19.8907 49.4807 22.0337C48.5837 24.1766 47.2879 25.8337 45.5935 27.0048C43.9116 28.1635 41.9057 28.7428 39.5759 28.7428ZM39.5759 24.1455C40.7844 24.1455 41.8247 23.753 42.6968 22.9681C43.569 22.1832 44.2417 21.0619 44.7152 19.6042C45.1886 18.1465 45.4253 16.4085 45.4253 14.3901C45.4253 12.3593 45.1886 10.6151 44.7152 9.15735C44.2417 7.69966 43.569 6.57835 42.6968 5.79344C41.8247 4.99606 40.7844 4.59738 39.5759 4.59738C38.3673 4.59738 37.3208 4.99606 36.4362 5.79344C35.5641 6.57835 34.8913 7.69966 34.4179 9.15735C33.9569 10.6151 33.7264 12.3593 33.7264 14.3901C33.7264 16.4085 33.9569 18.1465 34.4179 19.6042C34.8913 21.0619 35.5641 22.1832 36.4362 22.9681C37.3208 23.753 38.3673 24.1455 39.5759 24.1455Z" fill="var(--fill-0, #1FD9FE)"/>
<path id="6" d="M87.5184 36.3178C85.7742 36.3178 84.2231 36.0125 82.865 35.402C81.5195 34.7915 80.3732 33.9007 79.4264 32.7296C78.4919 31.5584 77.7755 30.1319 77.2772 28.4499C76.7913 26.7555 76.5483 24.8244 76.5483 22.6565C76.5483 20.3641 76.7851 18.2959 77.2585 16.452C77.7444 14.5956 78.4608 13.0071 79.4077 11.6864C80.3546 10.3533 81.5257 9.3379 82.9211 8.64019C84.3165 7.93003 85.9237 7.57495 87.7427 7.57495C89.5991 7.57495 91.225 7.9238 92.6204 8.62151C94.0283 9.31921 95.1558 10.2723 96.003 11.4808C96.8502 12.6894 97.3548 14.0598 97.5168 15.5923H92.1345C91.9351 14.4959 91.4492 13.63 90.6768 12.9946C89.9043 12.3467 88.9076 12.0228 87.6866 12.0228C86.366 12.0228 85.2696 12.3841 84.3975 13.1067C83.5378 13.8293 82.8962 14.8448 82.4726 16.1529C82.049 17.4487 81.8372 18.9687 81.8372 20.7129H81.8745C82.3355 20.0028 82.8962 19.4047 83.5565 18.9188C84.2293 18.4329 84.9831 18.0654 85.8178 17.8162C86.6526 17.567 87.5496 17.4424 88.5089 17.4424C90.303 17.4424 91.8978 17.8474 93.2932 18.6572C94.701 19.4546 95.8037 20.5572 96.601 21.965C97.4109 23.3604 97.8158 24.9552 97.8158 26.7493C97.8158 28.643 97.3735 30.3125 96.4889 31.7578C95.6168 33.1906 94.4082 34.3119 92.8633 35.1217C91.3184 35.9191 89.5368 36.3178 87.5184 36.3178ZM87.4811 31.7952C88.403 31.7952 89.2316 31.5771 89.9666 31.1411C90.7017 30.6925 91.2811 30.0883 91.7047 29.3283C92.1407 28.5558 92.3588 27.6962 92.3588 26.7493C92.3588 25.8024 92.1469 24.9552 91.7233 24.2077C91.3122 23.4477 90.7391 22.8496 90.004 22.4136C89.2814 21.9775 88.4591 21.7595 87.5371 21.7595C86.8394 21.7595 86.1916 21.8903 85.5935 22.1519C85.008 22.4011 84.4909 22.75 84.0424 23.1985C83.6063 23.647 83.2637 24.1765 83.0145 24.787C82.7654 25.3975 82.6408 26.0578 82.6408 26.768C82.6408 27.7148 82.8526 28.5683 83.2762 29.3283C83.6998 30.0883 84.2791 30.6925 85.0142 31.1411C85.7493 31.5771 86.5716 31.7952 87.4811 31.7952Z" fill="var(--fill-0, #1FD9FE)"/>
</g>
</svg>
