<svg preserveAspectRatio="none" width="100%" height="100%" overflow="visible" style="display: block;" viewBox="0 0 22.5409 112.464" fill="none" xmlns="http://www.w3.org/2000/svg">
<g id="Group 119">
<path id="Line 82" d="M9.54594 51.2093L9.54594 52.7093L12.5459 52.7093L12.5459 51.2093L11.0459 51.2093L9.54594 51.2093ZM12.1066 31.5364C11.5208 30.9506 10.5711 30.9506 9.98528 31.5364L0.43934 41.0823C-0.146447 41.6681 -0.146447 42.6179 0.43934 43.2036C1.02513 43.7894 1.97487 43.7894 2.56066 43.2036L11.0459 34.7184L19.5312 43.2036C20.117 43.7894 21.0668 43.7894 21.6525 43.2036C22.2383 42.6179 22.2383 41.6681 21.6525 41.0823L12.1066 31.5364ZM11.0459 51.2093L12.5459 51.2093L12.5459 32.597L11.0459 32.597L9.54594 32.597L9.54594 51.2093L11.0459 51.2093Z" fill="var(--stroke-0, white)"/>
<path id="Line 83" d="M12.556 92.3521L12.556 90.8521L9.55595 90.8521L9.55595 92.3521L11.056 92.3521L12.556 92.3521ZM9.99529 112.025C10.5811 112.611 11.5308 112.611 12.1166 112.025L21.6626 102.479C22.2483 101.893 22.2483 100.944 21.6626 100.358C21.0768 99.772 20.127 99.772 19.5412 100.358L11.056 108.843L2.57067 100.358C1.98489 99.772 1.03514 99.772 0.449352 100.358C-0.136435 100.944 -0.136435 101.893 0.449352 102.479L9.99529 112.025ZM11.056 92.3521L9.55595 92.3521L9.55595 110.964L11.056 110.964L12.556 110.964L12.556 92.3521L11.056 92.3521Z" fill="var(--stroke-0, white)"/>
<path id="Line 84" d="M21.0409 73.2807L22.5409 73.2807L22.5409 70.2807L21.0409 70.2807L21.0409 71.7807L21.0409 73.2807ZM0.980278 70.7201C0.394491 71.3058 0.394491 72.2556 0.980278 72.8414L10.5262 82.3873C11.112 82.9731 12.0618 82.9731 12.6475 82.3873C13.2333 81.8015 13.2333 80.8518 12.6475 80.266L4.16226 71.7807L12.6475 63.2954C13.2333 62.7096 13.2333 61.7599 12.6475 61.1741C12.0618 60.5883 11.112 60.5883 10.5262 61.1741L0.980278 70.7201ZM21.0409 71.7807L21.0409 70.2807L2.04094 70.2807L2.04094 71.7807L2.04094 73.2807L21.0409 73.2807L21.0409 71.7807Z" fill="var(--stroke-0, white)"/>
<path id="Line 85" d="M2.04092 9.54594H0.540925V12.5459H2.04092V11.0459V9.54594ZM22.1016 12.1066C22.6874 11.5208 22.6874 10.5711 22.1016 9.98528L12.5556 0.43934C11.9699 -0.146446 11.0201 -0.146446 10.4343 0.43934C9.84854 1.02513 9.84854 1.97487 10.4343 2.56066L18.9196 11.0459L10.4343 19.5312C9.84854 20.117 9.84854 21.0668 10.4343 21.6525C11.0201 22.2383 11.9699 22.2383 12.5556 21.6525L22.1016 12.1066ZM2.04092 11.0459V12.5459H21.0409V11.0459V9.54594H2.04092V11.0459Z" fill="var(--stroke-0, white)"/>
</g>
</svg>
