<svg preserveAspectRatio="none" width="100%" height="100%" overflow="visible" style="display: block;" viewBox="0 0 102.319 98.3888" fill="none" xmlns="http://www.w3.org/2000/svg">
<g id="Numbers">
<path id="E" d="M0.000107944 48.4671V25.4144H16.5392V29.4989H4.76535V34.8366H15.6573V38.8128H4.76535V44.3826H16.5392V48.4671H0.000107944Z" fill="var(--fill-0, #1FD9FE)"/>
<path id="4" d="M23.4345 33.5991V29.9168L33.5839 15.5128H36.5699V20.0614H34.9144L28.0296 29.8704V29.9014H42.4336V33.5991H23.4345ZM34.9454 38.5654V15.5128H39.4166V38.5654H34.9454Z" fill="var(--fill-0, #1FD9FE)"/>
<path id="Q" d="M30.942 90.797H33.9959L35.6169 92.9013L37.0616 94.6133L40.0451 98.3582H36.7562L34.7946 95.8378L33.667 94.4349L30.942 90.797ZM32.3397 97.1693C30.7736 97.1693 29.368 96.8008 28.123 96.0637C26.8779 95.3186 25.8952 94.2645 25.1747 92.9013C24.4543 91.5301 24.0941 89.9093 24.0941 88.0388C24.0941 86.1525 24.4543 84.5277 25.1747 83.1645C25.8952 81.7934 26.8779 80.7392 28.123 80.0021C29.368 79.2571 30.7736 78.8846 32.3397 78.8846C33.9137 78.8846 35.3232 79.2571 36.5683 80.0021C37.8133 80.7392 38.7961 81.7934 39.5165 83.1645C40.2369 84.5277 40.5971 86.1525 40.5971 88.0388C40.5971 89.9172 40.2369 91.5381 39.5165 92.9013C38.7961 94.2645 37.8133 95.3186 36.5683 96.0637C35.3232 96.8008 33.9137 97.1693 32.3397 97.1693ZM32.3397 93.9356C33.2403 93.9356 34.039 93.7058 34.7359 93.2461C35.4328 92.7864 35.9771 92.1166 36.3686 91.2369C36.7601 90.3571 36.9559 89.2911 36.9559 88.0388C36.9559 86.7787 36.7601 85.7087 36.3686 84.8289C35.9771 83.9412 35.4328 83.2675 34.7359 82.8079C34.039 82.3482 33.2403 82.1183 32.3397 82.1183C31.4471 82.1183 30.6522 82.3482 29.9553 82.8079C29.2662 83.2675 28.722 83.9412 28.3226 84.8289C27.9311 85.7087 27.7353 86.7787 27.7353 88.0388C27.7353 89.2911 27.9311 90.3571 28.3226 91.2369C28.722 92.1166 29.2662 92.7864 29.9553 93.2461C30.6522 93.7058 31.4471 93.9356 32.3397 93.9356Z" fill="var(--fill-0, #1FD9FE)"/>
<path id="8" d="M46.6783 81.1948C43.8372 81.1948 41.3344 80.7474 39.1697 79.8526C37.022 78.941 35.3478 77.6748 34.1471 76.0542C32.9464 74.4335 32.3461 72.568 32.3461 70.4577C32.3461 68.7358 32.7266 67.2079 33.4876 65.8742C34.2486 64.5405 35.314 63.4432 36.6838 62.5822C38.0705 61.7212 39.6686 61.181 41.4781 60.9615V60.9869C39.0936 60.6154 37.1827 59.6869 35.7452 58.2013C34.3247 56.6988 33.6144 54.7911 33.6144 52.4783C33.6144 50.4862 34.164 48.722 35.2632 47.1857C36.3794 45.6325 37.9183 44.4255 39.88 43.5645C41.8586 42.6866 44.1247 42.2477 46.6783 42.2477C49.2826 42.2477 51.5657 42.6782 53.5274 43.5392C55.4891 44.4001 57.0195 45.5988 58.1187 47.1351C59.218 48.6713 59.7676 50.4524 59.7676 52.4783C59.7676 54.7742 59.0573 56.6735 57.6368 58.176C56.2162 59.6616 54.3137 60.5986 51.9292 60.9869V60.9615C53.7387 61.181 55.3284 61.7212 56.6982 62.5822C58.068 63.4432 59.1334 64.549 59.8944 65.8996C60.6723 67.2332 61.0613 68.7526 61.0613 70.4577C61.0613 72.568 60.4525 74.4335 59.2349 76.0542C58.0342 77.6748 56.3515 78.941 54.1869 79.8526C52.0392 80.7474 49.5363 81.1948 46.6783 81.1948ZM46.6783 75.5224C47.9805 75.5224 49.122 75.2945 50.1028 74.8386C51.0837 74.3659 51.8447 73.7075 52.3858 72.8634C52.9439 72.0024 53.223 71.0233 53.223 69.9259C53.223 68.778 52.9439 67.7735 52.3858 66.9125C51.8278 66.0346 51.0583 65.3509 50.0775 64.8613C49.0966 64.3548 47.9636 64.1016 46.6783 64.1016C45.41 64.1016 44.2854 64.3548 43.3045 64.8613C42.3237 65.3509 41.5542 66.0346 40.9961 66.9125C40.4381 67.7735 40.159 68.778 40.159 69.9259C40.159 71.0402 40.4296 72.0193 40.9708 72.8634C41.5289 73.7075 42.2983 74.3659 43.2792 74.8386C44.26 75.2945 45.3931 75.5224 46.6783 75.5224ZM46.6783 58.3279C47.8114 58.3279 48.8007 58.1169 49.6462 57.6948C50.4918 57.2728 51.1429 56.6735 51.5995 55.8969C52.073 55.1034 52.3097 54.1918 52.3097 53.162C52.3097 52.1322 52.073 51.2374 51.5995 50.4777C51.1429 49.7011 50.4918 49.1018 49.6462 48.6798C48.8176 48.2577 47.8283 48.0467 46.6783 48.0467C45.5622 48.0467 44.5813 48.2577 43.7358 48.6798C42.8902 49.1018 42.2307 49.7011 41.7572 50.4777C41.3005 51.2374 41.0722 52.1322 41.0722 53.162C41.0722 54.1918 41.3005 55.095 41.7572 55.8716C42.2307 56.6481 42.8902 57.2559 43.7358 57.6948C44.5813 58.1169 45.5622 58.3279 46.6783 58.3279Z" fill="var(--fill-0, #1FD9FE)"/>
<path id="5" d="M57.9479 44.5583C56.7796 44.5583 55.7472 44.3357 54.8507 43.8904C53.9543 43.445 53.2415 42.8216 52.7125 42.02C52.1835 41.2184 51.8859 40.2833 51.8197 39.2145H55.0271C55.0565 39.7266 55.1998 40.1868 55.4569 40.595C55.7141 40.9958 56.0595 41.3149 56.493 41.5524C56.9265 41.7825 57.4188 41.8976 57.9699 41.8976C58.5357 41.8976 59.0317 41.7677 59.4579 41.5079C59.8914 41.2407 60.2257 40.877 60.4609 40.4169C60.7034 39.9493 60.8246 39.4149 60.8246 38.8137C60.8246 38.1977 60.707 37.6559 60.4719 37.1883C60.2368 36.7207 59.9098 36.3533 59.4909 36.0861C59.0721 35.8189 58.5872 35.6853 58.0361 35.6853C57.316 35.6853 56.6987 35.8412 56.1844 36.1529C55.6774 36.4572 55.3284 36.884 55.1373 37.4332H52.0512L52.5582 27.7253H63.0731V30.4974H55.5451L55.2475 34.4162H55.2696C55.6958 33.9783 56.1881 33.6517 56.7465 33.4365C57.3123 33.2138 57.9369 33.1025 58.6202 33.1025C59.3624 33.1025 60.0604 33.2435 60.7144 33.5255C61.3683 33.8002 61.9415 34.1935 62.4338 34.7056C62.9334 35.2103 63.3229 35.8078 63.6021 36.4981C63.8887 37.1809 64.032 37.9231 64.032 38.7247C64.032 39.8602 63.7785 40.8696 63.2714 41.7528C62.7718 42.6286 62.0627 43.3152 61.1442 43.8124C60.2331 44.3097 59.1676 44.5583 57.9479 44.5583Z" fill="var(--fill-0, #1FD9FE)"/>
<path id="11" d="M10.4104 62.3815C9.68418 62.3815 9.04243 62.2374 8.48518 61.9492C7.92793 61.6611 7.48487 61.2577 7.15601 60.739C6.82714 60.2203 6.64215 59.6152 6.60104 58.9237H8.59481C8.61308 59.2551 8.70215 59.5528 8.86201 59.8169C9.02188 60.0763 9.23656 60.2828 9.50605 60.4365C9.77554 60.5853 10.0816 60.6598 10.4241 60.6598C10.7758 60.6598 11.0842 60.5757 11.3491 60.4076C11.6186 60.2348 11.8264 59.9994 11.9726 59.7017C12.1233 59.3991 12.1987 59.0534 12.1987 58.6644C12.1987 58.2657 12.1256 57.9152 11.9794 57.6126C11.8332 57.3101 11.63 57.0723 11.3696 56.8994C11.1093 56.7266 10.8078 56.6401 10.4652 56.6401C10.0176 56.6401 9.63394 56.741 9.31421 56.9427C8.99904 57.1396 8.78208 57.4157 8.66332 57.7711H6.74492L7.06009 51.4895H13.5964V53.2832H8.91682L8.73184 55.8189H8.74554C9.01046 55.5355 9.31649 55.3242 9.66363 55.185C10.0153 55.0409 10.4036 54.9689 10.8284 54.9689C11.2897 54.9689 11.7236 55.0601 12.1301 55.2426C12.5367 55.4203 12.8929 55.6748 13.199 56.0062C13.5096 56.3328 13.7517 56.7194 13.9252 57.166C14.1034 57.6078 14.1924 58.0881 14.1924 58.6067C14.1924 59.3415 14.0348 59.9946 13.7197 60.5661C13.4091 61.1328 12.9683 61.577 12.3974 61.8988C11.831 62.2206 11.1687 62.3815 10.4104 62.3815Z" fill="var(--fill-0, #1FD9FE)"/>
<path id="9" d="M68.6441 82.8452C67.2991 82.8452 66.1086 82.5888 65.0726 82.0761C64.0457 81.5633 63.2232 80.8628 62.6053 79.9747C61.9873 79.0773 61.6192 78.0701 61.5011 76.953H65.4134C65.5679 77.7496 65.9268 78.386 66.4903 78.8622C67.0628 79.3383 67.7944 79.5764 68.685 79.5764C69.6483 79.5764 70.4435 79.3108 71.0705 78.7797C71.7067 78.2487 72.1792 77.5024 72.4882 76.541C72.7972 75.5796 72.9517 74.4625 72.9517 73.1898H72.9244C72.5882 73.7117 72.1792 74.1466 71.6976 74.4945C71.2159 74.8425 70.6752 75.108 70.0754 75.2911C69.4756 75.4651 68.8213 75.5521 68.1125 75.5521C66.8129 75.5521 65.6497 75.2591 64.6228 74.6731C63.5958 74.0779 62.787 73.2676 62.1963 72.2421C61.6147 71.2074 61.3239 70.0354 61.3239 68.726C61.3239 67.3342 61.642 66.1118 62.2781 65.0589C62.9233 64.0059 63.8094 63.1864 64.9363 62.6004C66.0723 62.0143 67.3718 61.7213 68.8349 61.7213C70.1072 61.7213 71.2341 61.9457 72.2156 62.3943C73.2062 62.843 74.0422 63.4977 74.7238 64.3584C75.4145 65.2191 75.937 66.2721 76.2915 67.5174C76.655 68.7535 76.8367 70.1681 76.8367 71.7614C76.8367 73.4461 76.6595 74.9707 76.3051 76.335C75.9507 77.6901 75.4281 78.8576 74.7374 79.8373C74.0468 80.8079 73.188 81.5541 72.1611 82.0761C71.1432 82.5888 69.9709 82.8452 68.6441 82.8452ZM68.8213 72.3657C69.3302 72.3657 69.7982 72.2741 70.2254 72.091C70.6616 71.9079 71.0387 71.6515 71.3568 71.3218C71.684 70.9922 71.9384 70.6076 72.1202 70.1681C72.3019 69.7195 72.3928 69.2342 72.3928 68.7123C72.3928 68.0164 72.2383 67.3937 71.9293 66.8444C71.6203 66.2858 71.1978 65.8463 70.6616 65.5258C70.1254 65.2054 69.5256 65.0451 68.8622 65.0451C68.1897 65.0451 67.5854 65.2054 67.0492 65.5258C66.513 65.8463 66.0859 66.2858 65.7678 66.8444C65.4588 67.3937 65.3043 68.021 65.3043 68.726C65.3043 69.4219 65.4588 70.0445 65.7678 70.5939C66.0768 71.1433 66.4948 71.5782 67.0219 71.8987C67.5581 72.21 68.1579 72.3657 68.8213 72.3657Z" fill="var(--fill-0, #1FD9FE)"/>
<path id="F" d="M17.8237 78.224V59.0805H31.3561V62.4723H21.8468V67.1747H30.703V70.4638H21.8468V78.224H17.8237Z" fill="var(--fill-0, #1FD9FE)"/>
<path id="B" d="M16.5031 51.4896V35.6467H22.9973C24.1576 35.6467 25.1438 35.8169 25.9561 36.1571C26.7755 36.4974 27.3956 36.9723 27.8162 37.5819C28.2368 38.1915 28.4471 38.9039 28.4471 39.7191C28.4471 40.3287 28.3275 40.871 28.0881 41.3459C27.8561 41.8138 27.5225 42.2036 27.0874 42.5155C26.6522 42.8274 26.1374 43.0578 25.5427 43.2067V43.2279C26.2026 43.2846 26.7973 43.4725 27.3267 43.7915C27.8561 44.1034 28.2731 44.5322 28.5776 45.078C28.8895 45.6239 29.0454 46.2725 29.0454 47.0239C29.0454 47.9028 28.8278 48.679 28.3927 49.3524C27.9649 50.0259 27.3267 50.5504 26.4782 50.9261C25.6297 51.3018 24.5927 51.4896 23.3671 51.4896H16.5031ZM19.7774 48.9165H22.8993C23.7623 48.9165 24.4331 48.7357 24.9118 48.3742C25.3904 48.0127 25.6297 47.5023 25.6297 46.8431C25.6297 46.4036 25.5246 46.0244 25.3143 45.7054C25.1039 45.3793 24.7994 45.1312 24.4005 44.9611C24.0016 44.7839 23.5194 44.6953 22.9537 44.6953H19.7774V48.9165ZM19.7774 42.2285H22.7471C23.2402 42.2285 23.6608 42.1469 24.0089 41.9839C24.3642 41.8209 24.6362 41.5905 24.8247 41.2928C25.0206 40.988 25.1185 40.6335 25.1185 40.2295C25.1185 39.6128 24.9081 39.1237 24.4875 38.7622C24.0669 38.4006 23.4868 38.2199 22.7471 38.2199H19.7774V42.2285Z" fill="var(--fill-0, #1FD9FE)"/>
<path id="1" d="M17.7564 13.8627V27.7252H15.0426V16.4956H15.0243L11.8153 18.5611V16.0491L15.1985 13.8627H17.7564Z" fill="var(--fill-0, #1FD9FE)"/>
<path id="10" d="M102.319 23.7643V57.4304H95.6848V30.1586H95.64L87.7959 35.1746V29.0741L96.0658 23.7643H102.319Z" fill="var(--fill-0, #1FD9FE)"/>
<path id="U" d="M50.0973 21.7837C48.9632 21.7837 47.9755 21.5712 47.134 21.1462C46.2987 20.715 45.6494 20.1182 45.186 19.3558C44.7226 18.5871 44.4909 17.6997 44.4909 16.6935V7.5911H47.2438V16.4591C47.2438 17.0091 47.3596 17.4965 47.5913 17.9215C47.8291 18.3465 48.1614 18.6808 48.5882 18.9246C49.0211 19.1683 49.5242 19.2901 50.0973 19.2901C50.6766 19.2901 51.1796 19.1683 51.6064 18.9246C52.0332 18.6808 52.3655 18.3465 52.6033 17.9215C52.8411 17.4965 52.96 17.0091 52.96 16.4591V7.5911H55.7129V16.6935C55.7129 17.6997 55.4812 18.5871 55.0178 19.3558C54.5544 20.1182 53.902 20.715 53.0606 21.1462C52.2192 21.5712 51.2314 21.7837 50.0973 21.7837Z" fill="var(--fill-0, #1FD9FE)"/>
<path id="7" d="M81.7826 94.3458L91.4523 75.2848V75.2539H80.2045V71.2932H96.2485V75.2075L86.6097 94.3458H81.7826Z" fill="var(--fill-0, #1FD9FE)"/>
<path id="V" d="M74.2485 64.3618L64.692 37.2969H70.8133L75.2169 50.466C75.7407 52.1008 76.2828 53.8809 76.8432 55.8064C77.4157 57.7197 78.037 59.8086 78.707 62.0731H77.0807C77.7263 59.8086 78.3232 57.7197 78.8714 55.8064C79.4318 53.8809 79.9617 52.1008 80.4611 50.466L84.7186 37.2969H90.7668L81.4113 64.3618H74.2485Z" fill="var(--fill-0, #1FD9FE)"/>
<path id="S" d="M73.9916 38.6172C72.9374 38.6172 72.0378 38.4541 71.2926 38.1279C70.5475 37.7963 69.9763 37.3179 69.5789 36.6926C69.1815 36.0674 68.9828 35.3145 68.9828 34.4337H71.4417C71.4527 34.8795 71.5603 35.2601 71.7646 35.5754C71.9743 35.8907 72.2696 36.1327 72.6504 36.3012C73.0313 36.4697 73.4839 36.554 74.0082 36.554C74.4829 36.554 74.8941 36.4915 75.2418 36.3664C75.595 36.236 75.8682 36.0538 76.0614 35.8201C76.2601 35.5863 76.3595 35.3117 76.3595 34.9964C76.3595 34.7355 76.2822 34.5098 76.1276 34.3196C75.9786 34.1238 75.7413 33.9526 75.4156 33.8058C75.0955 33.659 74.6733 33.5312 74.1489 33.4225L72.8491 33.1452C71.6238 32.8843 70.7131 32.4738 70.117 31.9139C69.5209 31.3539 69.2229 30.639 69.2229 29.7691C69.2229 29.0297 69.4188 28.3855 69.8107 27.8364C70.2026 27.2819 70.749 26.8496 71.45 26.5398C72.1564 26.2299 72.9761 26.0749 73.9088 26.0749C74.8527 26.0749 75.6695 26.2326 76.3595 26.5479C77.0494 26.8632 77.5848 27.3145 77.9656 27.9016C78.352 28.4833 78.5589 29.182 78.5865 29.9974H76.2022C76.158 29.4212 75.9317 28.9672 75.5233 28.6356C75.1148 28.3039 74.5795 28.1381 73.9171 28.1381C73.5032 28.1381 73.1334 28.2034 72.8077 28.3338C72.4876 28.4589 72.2337 28.6356 72.046 28.8639C71.8639 29.0922 71.7728 29.3532 71.7728 29.6468C71.7728 29.8969 71.8446 30.1143 71.9881 30.2992C72.1316 30.4786 72.3607 30.6362 72.6753 30.7722C72.9899 30.9081 73.3983 31.0304 73.9006 31.1391L75.0845 31.3919C75.7413 31.5333 76.3098 31.7073 76.79 31.9139C77.2702 32.115 77.6648 32.3569 77.9739 32.6396C78.283 32.9169 78.512 33.2377 78.661 33.6019C78.8101 33.9662 78.8846 34.3766 78.8846 34.8333C78.8846 35.6108 78.6859 36.2849 78.2885 36.8557C77.8966 37.4212 77.3336 37.8561 76.5996 38.1605C75.871 38.465 75.0017 38.6172 73.9916 38.6172Z" fill="var(--fill-0, #1FD9FE)"/>
<path id="C" d="M54.8517 98.3887C52.7475 98.3887 50.8652 97.9091 49.2046 96.9498C47.5543 95.9803 46.2546 94.6085 45.3057 92.8344C44.3671 91.05 43.8978 88.9407 43.8978 86.5065C43.8978 84.0517 44.3671 81.9321 45.3057 80.1477C46.2546 78.3633 47.5543 76.9915 49.2046 76.0323C50.8652 75.073 52.7475 74.5934 54.8517 74.5934C56.2029 74.5934 57.4561 74.7945 58.6113 75.1968C59.7665 75.5991 60.7876 76.1715 61.6746 76.9141C62.572 77.6568 63.3043 78.549 63.8716 79.5907C64.4389 80.6325 64.8154 81.798 65.001 83.0873H60.1894C60.0553 82.4066 59.8335 81.8032 59.5241 81.2771C59.2147 80.7408 58.833 80.2921 58.3792 79.9311C57.9254 79.5598 57.4045 79.2813 56.8166 79.0956C56.239 78.8997 55.6046 78.8017 54.9136 78.8017C53.6036 78.8017 52.4845 79.1163 51.5562 79.7454C50.6383 80.3746 49.9317 81.2668 49.4366 82.422C48.9415 83.5669 48.694 84.9284 48.694 86.5065C48.694 88.0743 48.9364 89.4306 49.4212 90.5755C49.9162 91.7204 50.6279 92.6075 51.5562 93.2366C52.4845 93.8658 53.6036 94.1804 54.9136 94.1804C55.6046 94.1804 56.239 94.0876 56.8166 93.9019C57.3942 93.7163 57.9099 93.4378 58.3637 93.0665C58.8176 92.6951 59.1992 92.2465 59.5086 91.7204C59.8181 91.1944 60.0501 90.5962 60.2048 89.9257H65.001C64.8154 91.2047 64.4389 92.3651 63.8716 93.4068C63.3043 94.4486 62.572 95.3408 61.6746 96.0834C60.7773 96.8261 59.751 97.3985 58.5958 97.8008C57.4509 98.1927 56.2029 98.3887 54.8517 98.3887Z" fill="var(--fill-0, #1FD9FE)"/>
<path id="0" d="M32.7639 23.7954C30.8351 23.7954 29.1693 23.3158 27.7666 22.3565C26.3741 21.387 25.3014 20.0152 24.5485 18.2411C23.8058 16.467 23.4345 14.3577 23.4345 11.9132C23.4345 9.45839 23.8058 7.34394 24.5485 5.56986C25.3014 3.79579 26.3741 2.42398 27.7666 1.45443C29.159 0.484875 30.8248 9.9353e-05 32.7639 9.9353e-05C34.6927 9.9353e-05 36.3533 0.484875 37.7457 1.45443C39.1485 2.41366 40.2212 3.78548 40.9638 5.56986C41.7168 7.34394 42.0932 9.45839 42.0932 11.9132C42.0932 14.3577 41.7168 16.467 40.9638 18.2411C40.2212 20.0152 39.1485 21.387 37.7457 22.3565C36.3533 23.3158 34.6927 23.7954 32.7639 23.7954ZM32.7639 19.9894C33.7644 19.9894 34.6256 19.6645 35.3476 19.0147C36.0696 18.3649 36.6266 17.4366 37.0186 16.2298C37.4105 15.023 37.6065 13.5841 37.6065 11.9132C37.6065 10.232 37.4105 8.78795 37.0186 7.58117C36.6266 6.37439 36.0696 5.44609 35.3476 4.79629C34.6256 4.13617 33.7644 3.80611 32.7639 3.80611C31.7634 3.80611 30.897 4.13617 30.1646 4.79629C29.4426 5.44609 28.8857 6.37439 28.4937 7.58117C28.1121 8.78795 27.9213 10.232 27.9213 11.9132C27.9213 13.5841 28.1121 15.023 28.4937 16.2298C28.8857 17.4366 29.4426 18.3649 30.1646 19.0147C30.897 19.6645 31.7634 19.9894 32.7639 19.9894Z" fill="var(--fill-0, #1FD9FE)"/>
<path id="6" d="M72.4537 30.0665C71.0097 30.0665 69.7256 29.8138 68.6013 29.3084C67.4874 28.803 66.5384 28.0655 65.7545 27.096C64.981 26.1264 64.3879 24.9454 63.9753 23.553C63.573 22.1502 63.3719 20.5515 63.3719 18.7568C63.3719 16.8589 63.5679 15.1468 63.9598 13.6202C64.3621 12.0834 64.9552 10.7683 65.7391 9.67498C66.523 8.57134 67.4925 7.73072 68.6477 7.15311C69.8029 6.56519 71.1335 6.27123 72.6394 6.27123C74.1762 6.27123 75.5223 6.56003 76.6775 7.13764C77.843 7.71524 78.7764 8.50429 79.4778 9.50479C80.1792 10.5053 80.5969 11.6399 80.731 12.9085H76.2752C76.1102 12.0009 75.7079 11.284 75.0684 10.758C74.4289 10.2216 73.6038 9.95346 72.593 9.95346C71.4997 9.95346 70.592 10.2526 69.87 10.8508C69.1583 11.449 68.6271 12.2897 68.2764 13.3727C67.9257 14.4454 67.7504 15.7037 67.7504 17.1477H67.7813C68.1629 16.5598 68.6271 16.0647 69.1738 15.6625C69.7307 15.2602 70.3548 14.9559 71.0458 14.7497C71.7369 14.5434 72.4795 14.4402 73.2737 14.4402C74.759 14.4402 76.0792 14.7754 77.2344 15.4459C78.4 16.106 79.3128 17.0188 79.9729 18.1843C80.6433 19.3396 80.9786 20.6598 80.9786 22.1451C80.9786 23.7128 80.6124 25.095 79.8801 26.2914C79.1581 27.4776 78.1576 28.4059 76.8786 29.0763C75.5996 29.7364 74.1247 30.0665 72.4537 30.0665ZM72.4228 26.3224C73.1861 26.3224 73.872 26.1419 74.4805 25.7809C75.0891 25.4096 75.5687 24.9093 75.9194 24.2801C76.2804 23.6406 76.4609 22.929 76.4609 22.1451C76.4609 21.3612 76.2855 20.6598 75.9348 20.0409C75.5945 19.4118 75.12 18.9167 74.5114 18.5557C73.9132 18.1947 73.2325 18.0142 72.4692 18.0142C71.8916 18.0142 71.3552 18.1225 70.8602 18.3391C70.3754 18.5453 69.9473 18.8341 69.576 19.2055C69.215 19.5768 68.9314 20.0151 68.7251 20.5205C68.5188 21.026 68.4157 21.5726 68.4157 22.1605C68.4157 22.9444 68.591 23.651 68.9417 24.2801C69.2924 24.9093 69.772 25.4096 70.3805 25.7809C70.9891 26.1419 71.6698 26.3224 72.4228 26.3224Z" fill="var(--fill-0, #1FD9FE)"/>
</g>
</svg>
