<svg preserveAspectRatio="none" width="100%" height="100%" overflow="visible" style="display: block;" viewBox="0 0 300.864 157.276" fill="none" xmlns="http://www.w3.org/2000/svg">
<g id="VAST_Logo">
<path id="Vector" d="M58.6645 47.7759C58.5948 45.7512 60.1341 43.758 62.1341 43.394C67.8216 43.3693 73.5114 43.3917 79.1989 43.385C80.6056 43.3356 81.8932 44.567 81.9539 45.9647C81.9989 47.095 81.9854 48.2276 81.9652 49.3579C81.9741 50.7017 80.8011 51.996 79.4236 51.9421C76.4619 51.9713 73.4957 51.8882 70.5317 51.9803C70.9541 52.9264 71.5339 53.7825 72.0845 54.6567C75.6012 60.5015 79.1068 66.3575 82.6326 72.1979C83.1674 72.9642 83.3741 73.9394 83.1179 74.8473C82.7831 75.9394 81.6483 76.4135 80.7809 77.0023C79.8663 77.5393 78.9989 78.4045 77.8529 78.2697C76.8641 78.3011 76.0776 77.5596 75.6215 76.7506C70.3362 68.0946 65.1116 59.4026 59.7948 50.7669C59.2173 49.8658 58.66 48.8793 58.6645 47.7759ZM143.222 59.6611C143.973 59.2633 144.732 58.8768 145.528 58.5779C146.418 58.2454 147.458 58.6768 147.964 59.4543C148.723 60.6273 149.229 61.9419 149.84 63.1958C152.238 68.2069 154.514 73.2787 156.964 78.2629C157.896 76.6247 158.6 74.8675 159.426 73.1731C161.35 69.1036 163.242 65.016 165.179 60.9509C165.642 60.0566 166.044 58.9285 167.1 58.5892C167.923 58.2409 168.761 58.6948 169.503 59.0319C170.184 59.3712 170.948 59.6318 171.451 60.2318C171.99 60.8341 172.1 61.7419 171.833 62.488C168.107 70.3597 164.429 78.2584 160.698 86.1302C160.157 87.2897 159.651 88.665 158.359 89.1728C156.791 89.9908 154.728 89.1571 153.964 87.6178C149.995 79.2314 146.067 70.8249 142.101 62.4385C141.663 61.4093 142.247 60.1442 143.222 59.6611ZM200.59 58.8319C202.217 57.9375 204.444 58.742 205.185 60.4296C209.131 68.7553 212.987 77.1281 216.983 85.4313C217.369 86.4897 216.899 87.7594 215.886 88.2717C214.922 88.7369 213.976 89.3728 212.897 89.5009C211.583 89.4739 210.868 88.2065 210.392 87.1526C207.637 81.2853 204.844 75.436 202.113 69.5552C199.338 75.463 196.563 81.3685 193.761 87.265C193.345 88.1234 192.862 89.1054 191.875 89.4065C191.055 89.7076 190.26 89.2133 189.536 88.8852C188.862 88.5391 188.107 88.2695 187.61 87.6717C187.078 87.0672 187.006 86.1706 187.242 85.4291C190.979 77.6247 194.63 69.7755 198.307 61.9397C198.873 60.7914 199.32 59.3936 200.59 58.8319ZM239.978 58.7195C241.261 58.3757 242.596 58.4768 243.91 58.4678C247.733 58.4678 251.553 58.4678 255.375 58.4656C256.175 58.4229 257.029 58.6566 257.546 59.306C258.409 60.2678 258.112 61.6655 258.056 62.8363C258.045 63.8003 257.413 64.7733 256.447 64.998C255.431 65.2317 254.38 65.1171 253.348 65.1396C249.598 65.1396 245.849 65.1373 242.101 65.1396C241.198 65.1014 240.18 65.4699 239.775 66.3306C239.506 67.189 239.71 68.2069 240.393 68.8204C241.097 69.5642 242.139 69.7665 243.094 69.9912C245.153 70.4968 247.218 70.9709 249.285 71.4496C251.687 71.9956 253.966 73.3821 255.31 75.4832C256.719 77.6337 256.973 80.4067 256.335 82.8628C255.341 86.665 251.391 89.3413 247.503 89.0627C243.155 89.0492 238.807 89.0694 234.459 89.0515C233.169 89.1638 232.038 87.9144 232.117 86.6583C232.126 85.7796 232.072 84.883 232.283 84.0224C232.54 83.083 233.486 82.3887 234.468 82.4651C238.663 82.4606 242.858 82.4561 247.056 82.4696C247.784 82.4673 248.591 82.5055 249.211 82.0516C250.13 81.3977 250.191 80.0112 249.667 79.0899C249.231 78.3371 248.355 78.0337 247.55 77.8719C245.285 77.4023 243.054 76.7955 240.798 76.2922C238.173 75.6742 235.726 74.1012 234.272 71.8046C232.883 69.5777 232.587 66.7171 233.398 64.2362C234.349 61.3442 237.106 59.4026 239.978 58.7195ZM273.276 60.3487C273.404 59.2476 274.492 58.4094 275.586 58.4678C283.231 58.4701 290.878 58.4611 298.525 58.4723C299.689 58.4431 300.713 59.4296 300.803 60.5779C300.873 61.8633 301.055 63.3891 300.086 64.407C299.531 65.0452 298.637 65.1576 297.844 65.1463C295.363 65.1329 292.88 65.1508 290.399 65.1306C290.26 72.3776 290.39 79.6337 290.336 86.883C290.347 87.8313 289.592 88.6492 288.747 88.9751C287.741 89.1324 286.714 89.0515 285.7 89.0447C284.905 89.0784 284.224 88.5009 283.878 87.829C283.543 86.9526 283.646 85.9931 283.631 85.0763C283.635 78.4292 283.64 71.7844 283.631 65.1373C281.251 65.1418 278.871 65.1329 276.494 65.1486C275.862 65.1463 275.211 65.1531 274.62 64.9081C273.842 64.5306 273.247 63.7216 273.253 62.8408C273.229 62.0093 273.211 61.1779 273.276 60.3487ZM105.517 70.7327C106.068 69.8159 106.594 68.6699 107.74 68.4069C108.956 68.0452 110.021 68.8631 111.009 69.4429C111.904 69.9979 112.996 70.4698 113.414 71.5147C113.74 72.6608 113.461 73.9012 112.839 74.8967C107.798 83.2696 102.778 91.6581 97.7379 100.031C97.0705 101.11 96.5132 102.393 95.3177 102.993C93.5694 103.937 91.2706 103.062 90.2302 101.465C87.4392 96.7659 84.655 92.0581 81.8528 87.3639C81.4079 86.6695 81.3809 85.7706 81.6213 85.0021C81.9584 84.1752 82.7831 83.7325 83.5247 83.328C84.3561 82.883 85.1494 82.3662 86.0145 81.9864C87.1156 81.5011 88.4886 82.0089 89.1021 83.0224C90.6212 85.4785 92.0189 88.011 93.5874 90.4402C93.9289 89.9638 94.2615 89.4829 94.5537 88.9751C98.1761 82.8763 101.864 76.8135 105.517 70.7327Z" fill="var(--fill-0, white)"/>
<g id="Ship">
<g id="Thrust" filter="url(#filter0_f_2009_197)">
<path d="M50 91.1116L53.5247 50L87.9643 107.276L50 91.1116Z" fill="var(--fill-0, #29B8FF)"/>
</g>
<g id="body">
<path d="M88.9767 45.7964C89.2778 44.2391 91.0126 43.529 92.4508 43.5784C103.158 43.5627 113.866 43.5582 124.574 43.5605C127.473 43.4885 129.479 47.1761 128.032 49.6232C125.32 54.1153 122.598 58.5983 119.915 63.1061C119.506 63.8791 118.906 64.6297 118.001 64.8094C117.138 65.1285 116.28 64.6252 115.549 64.2072C114.749 63.7286 113.918 63.3016 113.129 62.805C112.109 62.1533 111.623 60.7152 112.192 59.6163C113.603 57.0141 115.324 54.5827 116.702 51.9625C108.241 51.9356 99.781 51.9603 91.3227 51.9423C89.9857 51.967 88.8464 50.6794 88.9228 49.3648C88.943 48.1761 88.8486 46.9784 88.9767 45.7964Z" fill="#29B8FF"/>
<path d="M62.1341 43.394C60.1341 43.758 58.5948 45.7512 58.6645 47.7759C58.66 48.8793 59.2173 49.8658 59.7948 50.7669C65.1116 59.4026 70.3362 68.0946 75.6215 76.7506C76.0776 77.5596 76.8641 78.3011 77.8529 78.2697C78.9989 78.4045 79.8663 77.5393 80.7809 77.0023C81.6483 76.4135 82.7831 75.9394 83.1179 74.8473C83.3741 73.9394 83.1674 72.9642 82.6326 72.1979C79.1068 66.3575 75.6012 60.5015 72.0845 54.6567C71.5339 53.7825 70.9541 52.9264 70.5317 51.9803C73.4957 51.8882 76.4619 51.9713 79.4236 51.9421C80.8011 51.996 81.9741 50.7017 81.9651 49.3579C81.9854 48.2276 81.9989 47.095 81.9539 45.9647C81.8932 44.567 80.6056 43.3356 79.1989 43.385C73.5114 43.3917 67.8216 43.3693 62.1341 43.394Z" fill="var(--fill-0, white)"/>
<path d="M107.74 68.4069C106.594 68.6699 106.068 69.8159 105.517 70.7327C101.864 76.8135 98.1761 82.8763 94.5537 88.9751C94.2615 89.4829 93.9289 89.9638 93.5874 90.4402C92.0189 88.011 90.6212 85.4785 89.1021 83.0224C88.4886 82.0089 87.1156 81.5011 86.0145 81.9864C85.1494 82.3662 84.3561 82.883 83.5247 83.328L83.5005 83.3412C82.7652 83.7421 81.9547 84.1841 81.6213 85.0021C81.3809 85.7706 81.4079 86.6695 81.8528 87.3639C84.655 92.0581 87.4392 96.7659 90.2301 101.465C91.2706 103.062 93.5694 103.937 95.3177 102.993C96.5132 102.393 97.0705 101.11 97.7379 100.031C102.778 91.6581 107.798 83.2696 112.839 74.8967C113.461 73.9012 113.74 72.6608 113.414 71.5147C112.996 70.4698 111.904 69.9979 111.009 69.4429C110.021 68.8631 108.956 68.0452 107.74 68.4069Z" fill="var(--fill-0, white)"/>
</g>
</g>
</g>
<defs>
<filter id="filter0_f_2009_197" x="0" y="0" width="137.964" height="157.276" filterUnits="userSpaceOnUse" color-interpolation-filters="sRGB">
<feFlood flood-opacity="0" result="BackgroundImageFix"/>
<feBlend mode="normal" in="SourceGraphic" in2="BackgroundImageFix" result="shape"/>
<feGaussianBlur stdDeviation="25" result="effect1_foregroundBlur_2009_197"/>
</filter>
</defs>
</svg>
