<svg width="70" height="60" viewBox="0 0 70 60" fill="none" xmlns="http://www.w3.org/2000/svg">
<path d="M0.00227384 4.39386C-0.0673876 2.36918 1.47191 0.375966 3.47187 0.0119289C9.15939 -0.0127897 14.8492 0.00968326 20.5367 0.00294183C21.9434 -0.0464954 23.231 1.18494 23.2917 2.58266C23.3366 3.71298 23.3231 4.84554 23.3029 5.97585C23.3119 7.31964 22.1389 8.614 20.7614 8.56007C17.7997 8.58928 14.8334 8.50614 11.8694 8.59827C12.2919 9.54432 12.8717 10.4005 13.4222 11.2746C16.939 17.1194 20.4445 22.9755 23.9703 28.8158C24.5051 29.5821 24.7119 30.5574 24.4557 31.4652C24.1209 32.5573 22.9861 33.0315 22.1187 33.6202C21.2041 34.1573 20.3367 35.0224 19.1906 34.8876C18.2019 34.9191 17.4154 34.1775 16.9592 33.3685C11.6739 24.7125 6.44933 16.0206 1.13259 7.38481C0.555071 6.48371 -0.00222045 5.49721 0.00227384 4.39386ZM46.8552 27.3507C47.4058 26.4339 47.9316 25.2878 49.0777 25.0249C50.2934 24.6631 51.3585 25.4811 52.3473 26.0608C53.2416 26.6159 54.3337 27.0878 54.7517 28.1327C55.0775 29.2787 54.7989 30.5192 54.1764 31.5147C49.1361 39.8875 44.116 48.2761 39.0756 56.649C38.4082 57.7276 37.8509 59.0107 36.6554 59.6107C34.9072 60.5545 32.6083 59.6804 31.5679 58.0826C28.777 53.3839 25.9927 48.6761 23.1906 43.9818C22.7456 43.2874 22.7187 42.3886 22.9591 41.6201C23.2962 40.7931 24.1209 40.3504 24.8624 39.9459C25.6939 39.501 26.4871 38.9842 27.3523 38.6044C28.4534 38.119 29.8264 38.6269 30.4398 39.6403C31.9589 42.0964 33.3566 44.629 34.9251 47.0581C35.2667 46.5818 35.5993 46.1009 35.8914 45.593C39.5138 39.4943 43.2014 33.4315 46.8552 27.3507Z" fill="white"/>
<path d="M30.3144 2.41428C30.6155 0.85701 32.3503 0.146913 33.7885 0.19635C44.4961 0.18062 55.2038 0.176125 65.9114 0.178373C68.8102 0.106464 70.817 3.79403 69.3698 6.24117C66.6575 10.7332 63.9362 15.2163 61.2531 19.724C60.8441 20.4971 60.2441 21.2476 59.3385 21.4274C58.4756 21.7465 57.6172 21.2431 56.8869 20.8251C56.0869 20.3465 55.2555 19.9195 54.4667 19.4229C53.4465 18.7712 52.9611 17.3331 53.5297 16.2342C54.9409 13.632 56.6622 11.2006 58.0397 8.58045C49.5792 8.55348 41.1187 8.5782 32.6604 8.56022C31.3234 8.58494 30.1841 7.29733 30.2605 5.98275C30.2807 4.79401 30.1863 3.59628 30.3144 2.41428Z" fill="#29B8FF"/>
</svg>
